<?xml version="1.0" encoding="UTF-8"?>
<svg width="75px" height="60px" viewBox="0 0 75 60" version="1.1" xmlns="http://www.w3.org/2000/svg" xmlns:xlink="http://www.w3.org/1999/xlink">
    <!-- Generator: Sketch 54.1 (76490) - https://sketchapp.com -->
    <title>bitmap_o</title>
    <desc>Created with Sketch.</desc>
    <g id="Page-1" stroke="none" stroke-width="1" fill="none" fill-rule="evenodd">
        <g id="Client-Logos" transform="translate(-67.000000, -235.000000)" fill-rule="nonzero">
            <g id="bitmap_o" transform="translate(67.000000, 235.000000)">
                <g id="Group" transform="translate(11.281120, 13.381743)">
                    <path d="M15.4512448,11.3122407 C15.4512448,11.1877593 15.4512448,11.0710581 15.4512448,10.9465768 C15.4512448,7.66338174 15.4512448,4.3879668 15.4512448,1.10477178 C15.4512448,0.59906639 15.7079876,0.217842324 16.128112,0.0778008299 C16.5326763,-0.0544605809 16.9839212,0.0778008299 17.248444,0.412344398 C17.4196058,0.622406639 17.4740664,0.871369295 17.4740664,1.13589212 C17.4740664,4.81587137 17.4740664,8.50363071 17.4662863,12.18361 C17.4662863,13.1483402 16.8672199,13.9107884 16.0036307,14.0819502 C15.0778008,14.2686722 14.2764523,13.8485477 13.871888,12.9304979 C12.4247925,9.66286307 10.9776971,6.38744813 9.53060166,3.1120332 C9.49948133,3.03423237 9.46058091,2.95643154 9.35165975,2.87863071 C9.34387967,3.01089212 9.33609959,3.13537344 9.33609959,3.26763485 C9.33609959,6.51192946 9.33609959,9.74844398 9.33609959,12.9927386 C9.33609959,13.7007261 8.92375519,14.1364108 8.28578838,14.1130705 C7.80342324,14.0975104 7.42219917,13.7707469 7.34439834,13.2883817 C7.32105809,13.1327801 7.31327801,12.9771784 7.31327801,12.8215768 C7.31327801,9.281639 7.31327801,5.74170124 7.31327801,2.20176349 C7.31327801,1.781639 7.34439834,1.36929461 7.5466805,0.995850622 C7.9123444,0.334543568 8.47251037,-4.42354486e-15 9.23495851,0.023340249 C10.028527,0.0466804979 10.5731328,0.466804979 10.8998963,1.16701245 C11.343361,2.13174274 11.7557054,3.10425311 12.18361,4.0689834 C13.2028008,6.38744813 14.2219917,8.70591286 15.2489627,11.0165975 C15.2956432,11.1177386 15.3423237,11.2110996 15.3890041,11.3122407 C15.4123444,11.3278008 15.4356846,11.3200207 15.4512448,11.3122407 Z" id="Path" fill="#FBFBFB"></path>
                    <path d="M19.4346473,20.9362033 C19.4346473,24.375 19.4346473,27.7904564 19.4346473,31.1981328 C19.4346473,31.6493776 19.2479253,31.9761411 18.843361,32.155083 C18.4543568,32.3340249 18.0809129,32.2640041 17.7541494,31.9917012 C17.4974066,31.7738589 17.4040456,31.4782158 17.4040456,31.1592324 C17.4040456,27.4792531 17.3884855,23.7914938 17.4118257,20.1115145 C17.4196058,18.5399378 18.9600622,17.6374481 20.2359959,18.4232365 C20.6405602,18.6721992 20.8817427,19.0378631 21.0684647,19.4657676 C22.4844398,22.6789419 23.9004149,25.8921162 25.3241701,29.1052905 C25.3708506,29.2142116 25.3864108,29.3542531 25.5497925,29.4553942 C25.5497925,29.2920124 25.5497925,29.159751 25.5497925,29.0274896 C25.5497925,25.7598548 25.5497925,22.4922199 25.5497925,19.2245851 C25.5497925,18.4465768 26.2188797,17.9564315 26.9113071,18.2131743 C27.3314315,18.3687759 27.5726141,18.7577801 27.5726141,19.2946058 C27.5726141,20.8506224 27.5726141,22.406639 27.5726141,23.9626556 C27.5726141,26.0399378 27.5726141,28.1094398 27.5726141,30.186722 C27.5726141,31.3459544 26.9190871,32.1239627 25.876556,32.2406639 C25.0440871,32.3340249 24.3283195,31.875 23.9315353,30.9880705 C23.3324689,29.6343361 22.7334025,28.2728216 22.1343361,26.9113071 C21.3018672,25.0207469 20.4693983,23.1301867 19.6369295,21.2396266 C19.598029,21.1384855 19.5824689,21.0062241 19.4346473,20.9362033 Z" id="Path" fill="#FBFBFB"></path>
                    <path d="M28.2806017,7.05653527 C28.2806017,5.11151452 28.2806017,3.16649378 28.2806017,1.22147303 C28.2806017,0.420124481 28.6462656,0.0389004149 29.4320539,0.0389004149 C30.7935685,0.0389004149 32.155083,-0.00778008299 33.5165975,0.0778008299 C35.531639,0.202282158 37.1109959,1.72717842 37.4610996,3.75778008 C37.7878631,5.66390041 36.7064315,7.67894191 34.9014523,8.45695021 C34.598029,8.58921162 34.6058091,8.68257261 34.7691909,8.93153527 C35.5394191,10.1141079 36.2940871,11.3044606 37.0409751,12.5025934 C37.4844398,13.2028008 37.1810166,13.9808091 36.4185685,14.1364108 C36.0062241,14.2219917 35.6172199,14.0430498 35.344917,13.6151452 C34.3957469,12.1369295 33.4465768,10.6509336 32.5129668,9.16493776 C32.3651452,8.93153527 32.2095436,8.82261411 31.9294606,8.83817427 C31.4937759,8.86151452 31.0503112,8.86151452 30.6068465,8.83817427 C30.3578838,8.83039419 30.3034232,8.90819502 30.3112033,9.14159751 C30.3189834,10.4408714 30.3189834,11.7323651 30.3112033,13.031639 C30.3034232,13.8329876 29.6810166,14.3231328 28.9808091,14.1052905 C28.5373444,13.965249 28.2883817,13.6073651 28.2883817,13.1016598 C28.2728216,11.0710581 28.2806017,9.06379668 28.2806017,7.05653527 Z M30.3034232,4.4346473 C30.3034232,5.13485477 30.3112033,5.83506224 30.2956432,6.52748963 C30.2878631,6.75311203 30.3656639,6.80757261 30.5835062,6.80757261 C31.4237552,6.79201245 32.2640041,6.8153527 33.1042531,6.79979253 C34.403527,6.7686722 35.4304979,5.78060166 35.4616183,4.55134855 C35.5005187,3.21317427 34.598029,2.17842324 33.2520747,2.09284232 C32.3495851,2.03838174 31.4393154,2.07728216 30.5368257,2.05394191 C30.3034232,2.04616183 30.2956432,2.16286307 30.2956432,2.3340249 C30.3034232,3.04201245 30.3034232,3.73443983 30.3034232,4.4346473 Z" id="Shape" fill="#FBFBFB"></path>
                    <path d="M44.5098548,32.248444 C43.9107884,32.248444 43.3195021,32.2562241 42.7204357,32.248444 C42.0357884,32.2406639 41.6001037,31.8283195 41.6078838,31.221473 C41.6156639,30.6301867 42.0513485,30.2334025 42.7126556,30.2256224 C43.8952282,30.2022822 45.0700207,30.2723029 46.2525934,30.186722 C46.7349585,30.1556017 47.1939834,30.0233402 47.6063278,29.7588174 C48.1431535,29.4087137 48.376556,28.8874481 48.3376556,28.2650415 C48.2987552,27.5959544 48.0809129,27.0124481 47.3729253,26.7634855 C46.5171162,26.4678423 45.6613071,26.1877593 44.8054979,25.8998963 C44.06639,25.6509336 43.3506224,25.3552905 42.7359959,24.8573651 C41.4289419,23.7837137 41.156639,22.3832988 41.530083,20.8272822 C41.8801867,19.3801867 42.8915975,18.5943983 44.3075726,18.2754149 C45.2256224,18.0731328 46.1670124,18.1431535 47.0928423,18.1353734 C47.5440871,18.1275934 48.003112,18.1275934 48.4543568,18.1353734 C49.0923237,18.1431535 49.5357884,18.5788382 49.5280083,19.1701245 C49.5202282,19.7458506 49.0845436,20.1504149 48.4621369,20.158195 C47.2951245,20.1815353 46.128112,20.0881743 44.9688797,20.2126556 C44.1286307,20.3060166 43.6073651,20.7028008 43.4595436,21.3407676 C43.2339212,22.3054979 43.4751037,22.966805 44.2608921,23.4491701 C45.1244813,23.9704357 46.1125519,24.1727178 47.0461618,24.4917012 C47.341805,24.5928423 47.6374481,24.6862033 47.9253112,24.8029046 C49.5513485,25.4408714 50.3604772,26.6467842 50.344917,28.3973029 C50.3293568,30.0233402 49.3801867,31.3226141 47.8008299,31.8983402 C46.8438797,32.248444 45.848029,32.2562241 44.8521784,32.2406639 C44.7432573,32.248444 44.626556,32.248444 44.5098548,32.248444 Z" id="Path" fill="#FBFBFB"></path>
                    <path d="M44.2764523,2.08506224 C43.8563278,3.53993776 43.4673237,4.8936722 43.0705394,6.23962656 C42.3936722,8.58921162 41.716805,10.9310166 41.0321577,13.2806017 C40.8376556,13.9419087 40.3319502,14.2686722 39.7562241,14.0975104 C39.1571577,13.9263485 38.8926349,13.3895228 39.094917,12.7048755 C40.1841286,8.94709544 41.2733402,5.18153527 42.3625519,1.42375519 C42.6115145,0.567946058 43.3195021,0.0544605809 44.245332,0.031120332 C45.1478216,0.015560166 45.93361,0.544605809 46.1747925,1.36929461 C47.2795643,5.1659751 48.3687759,8.97043568 49.4657676,12.7671162 C49.6135892,13.2728216 49.4813278,13.685166 49.1156639,13.9419087 C48.7577801,14.1986515 48.3220954,14.1986515 47.9486515,13.9574689 C47.7074689,13.8018672 47.5907676,13.5606846 47.5129668,13.2883817 C46.4782158,9.70176349 45.4356846,6.11514523 44.4009336,2.52852697 C44.3698133,2.42738589 44.3386929,2.31846473 44.2764523,2.08506224 Z" id="Path" fill="#FBFBFB"></path>
                    <path d="M2.1473029,25.1685685 C2.1473029,23.2079876 2.1473029,21.2551867 2.1473029,19.2946058 C2.1473029,18.6177386 2.54408714,18.1509336 3.13537344,18.1431535 C3.75,18.1275934 4.17012448,18.5943983 4.17012448,19.2946058 C4.17012448,22.780083 4.17790456,26.2733402 4.1623444,29.7588174 C4.1623444,30.1478216 4.27126556,30.2100622 4.62914938,30.2100622 C6.06846473,30.186722 7.50778008,30.1945021 8.94709544,30.2022822 C9.56172199,30.2022822 9.98962656,30.5057054 10.0829876,30.9958506 C10.215249,31.6649378 9.79512448,32.2328838 9.1026971,32.2406639 C7.11877593,32.2562241 5.13485477,32.2562241 3.15093361,32.2406639 C2.53630705,32.2406639 2.1473029,31.8127593 2.1473029,31.1903527 C2.1473029,29.1830913 2.1473029,27.1758299 2.1473029,25.1685685 Z" id="Path" fill="#FBFBFB"></path>
                    <path d="M21.8698133,7.70228216 C21.8698133,6.23962656 21.8775934,4.77697095 21.8698133,3.30653527 C21.8698133,2.90975104 22.0409751,2.39626556 21.7997925,2.1473029 C21.5741701,1.9216805 21.0606846,2.10062241 20.6716805,2.08506224 C20.5783195,2.07728216 20.4927386,2.08506224 20.3993776,2.08506224 C19.7536307,2.06172199 19.3335062,1.64159751 19.3412863,1.03475104 C19.3490664,0.451244813 19.7691909,0.0389004149 20.3993776,0.0389004149 C22.0487552,0.031120332 23.6903527,0.031120332 25.3397303,0.0389004149 C25.9776971,0.0389004149 26.4211618,0.490145228 26.4133817,1.07365145 C26.4056017,1.64159751 25.9621369,2.06172199 25.3475104,2.08506224 C25.2463693,2.09284232 25.1374481,2.07728216 25.0363071,2.08506224 C24.6628631,2.10840249 24.1571577,1.9216805 23.9548755,2.15508299 C23.7681535,2.38070539 23.8926349,2.87085062 23.8926349,3.24429461 C23.8926349,6.49636929 23.8926349,9.74844398 23.8926349,13.0005187 C23.8926349,13.8485477 23.1924274,14.3775934 22.4844398,14.05861 C22.0098548,13.8485477 21.8698133,13.4362033 21.8698133,12.9460581 C21.8775934,11.1955394 21.8698133,9.45280083 21.8698133,7.70228216 Z" id="Path" fill="#FBFBFB"></path>
                    <path d="M38.814834,32.248444 C38.4880705,32.2406639 38.2079876,32.1239627 38.0057054,31.8594398 C36.473029,29.8521784 34.9325726,27.8526971 33.3998963,25.8454357 C33.1042531,25.4564315 33.096473,25.0129668 33.3843361,24.6161826 C34.8314315,22.593361 36.278527,20.5705394 37.7334025,18.563278 C38.0757261,18.0886929 38.6903527,18.0108921 39.1415975,18.3532158 C39.6084025,18.7033195 39.7017635,19.2946058 39.3438797,19.8003112 C38.1224066,21.5119295 36.9087137,23.2157676 35.6716805,24.9118257 C35.5005187,25.1452282 35.5160788,25.2852697 35.6872407,25.503112 C36.9787344,27.1758299 38.254668,28.8563278 39.5461618,30.5290456 C39.8262448,30.8869295 39.9118257,31.2759336 39.7173237,31.688278 C39.5383817,32.0539419 39.2271784,32.2328838 38.814834,32.248444 Z" id="Path" fill="#FBFBFB"></path>
                    <path d="M14.5876556,25.223029 C14.5876556,27.1524896 14.5876556,29.0819502 14.5876556,31.0114108 C14.5876556,31.1670124 14.5798755,31.3226141 14.5409751,31.4704357 C14.4164938,31.9761411 13.9808091,32.2873444 13.4828838,32.2406639 C12.9616183,32.1939834 12.5726141,31.7971992 12.564834,31.2603734 C12.5492739,30.5368257 12.564834,29.8054979 12.564834,29.0819502 C12.564834,26.2733402 12.5570539,23.4569502 12.5726141,20.6483402 C12.5726141,20.2359959 12.4481328,20.1426349 12.0746888,20.1737552 C11.7712656,20.2048755 11.4522822,20.1893154 11.1410788,20.158195 C10.5731328,20.0959544 10.215249,19.6991701 10.223029,19.1545643 C10.223029,18.6177386 10.6120332,18.1664938 11.1488589,18.1431535 C11.9735477,18.1120332 12.8060166,18.1120332 13.6384855,18.1431535 C14.2064315,18.1664938 14.5798755,18.6332988 14.5798755,19.2634855 C14.5876556,21.2551867 14.5876556,23.2391079 14.5876556,25.223029 Z" id="Path" fill="#FBFBFB"></path>
                    <path d="M4.17012448,7.07987552 C4.17012448,9.07157676 4.17790456,11.0710581 4.17012448,13.0627593 C4.17012448,13.8563278 3.46213693,14.3542531 2.76970954,14.0741701 C2.36514523,13.9107884 2.1473029,13.5529046 2.1473029,13.0471992 C2.1473029,9.54616183 2.13952282,6.05290456 2.15508299,2.55186722 C2.15508299,2.15508299 2.05394191,2.03838174 1.67271784,2.07728216 C1.37707469,2.10840249 1.08143154,2.12396266 0.785788382,2.03838174 C0.295643154,1.89834025 0.00778008299,1.50155602 0.031120332,0.995850622 C0.0544605809,0.505705394 0.396784232,0.0933609959 0.894709544,0.0622406639 C1.69605809,0.00778008299 2.49740664,-4.42354486e-15 3.29875519,0.0622406639 C3.843361,0.108921162 4.1623444,0.544605809 4.1623444,1.16701245 C4.17790456,3.13537344 4.17012448,5.10373444 4.17012448,7.07987552 Z" id="Path" fill="#FDFDFD"></path>
                    <path d="M30.4045643,25.1685685 C30.4045643,23.2157676 30.4045643,21.2551867 30.4045643,19.3023859 C30.4045643,18.6177386 30.7935685,18.1587137 31.3848548,18.1431535 C31.9994813,18.1275934 32.4273859,18.5788382 32.4273859,19.2868257 C32.4273859,23.2391079 32.4273859,27.19139 32.4273859,31.1358921 C32.4273859,31.8127593 32.0072614,32.2562241 31.408195,32.248444 C30.8013485,32.2406639 30.4045643,31.7971992 30.4045643,31.1125519 C30.4045643,29.1286307 30.4045643,27.1524896 30.4045643,25.1685685 Z" id="Path" fill="#FBFBFB"></path>
                    <path d="M53.2624481,30.9725104 C53.2624481,31.688278 52.7022822,32.2562241 51.9942946,32.248444 C51.2940871,32.2406639 50.7028008,31.6571577 50.7105809,30.9647303 C50.718361,30.2645228 51.3018672,29.6810166 52.0020747,29.6810166 C52.7100622,29.6887967 53.2624481,30.2567427 53.2624481,30.9725104 Z M53.0446058,30.9958506 C53.0523859,30.3890041 52.6011411,29.9221992 52.0176349,29.9144191 C51.4341286,29.906639 50.9439834,30.3812241 50.9362033,30.9647303 C50.9284232,31.5248963 51.4419087,32.0461618 52.0020747,32.0383817 C52.5544606,32.0383817 53.0368257,31.5560166 53.0446058,30.9958506 Z" id="Shape" fill="#FBFBFB"></path>
                    <path d="M52.523066,31.594917 C52.2733457,31.5560166 52.2733457,31.3692946 52.1808567,31.2525934 C52.1161144,31.1670124 52.0698699,31.0658714 51.9126386,31.0892116 C51.7554073,31.1125519 51.8016518,31.221473 51.7924029,31.3070539 C51.7739051,31.408195 51.8478963,31.5871369 51.6536694,31.5715768 C51.4779403,31.5560166 51.5704293,31.3770747 51.5611804,31.2759336 C51.5426826,31.1125519 51.5519315,30.94139 51.5611804,30.7780083 C51.5704293,30.6224066 51.4871892,30.4045643 51.7461584,30.3578838 C52.0051276,30.3112033 52.3195902,30.2567427 52.5138171,30.4745851 C52.6617995,30.6379668 52.6525506,30.848029 52.4675726,31.0036307 C52.1993545,31.221473 52.6617995,31.3692946 52.523066,31.594917 Z M52.0328743,30.9024896 C52.2086034,30.9024896 52.3843325,30.9024896 52.3843325,30.7235477 C52.3843325,30.5290456 52.2271012,30.5057054 52.0421232,30.4979253 C51.875643,30.4901452 51.7924029,30.5212656 51.7924029,30.6846473 C51.783154,30.848029 51.8478963,30.9258299 52.0328743,30.9024896 Z" id="Shape" fill="#FBFBFB"></path>
                </g>
                <g id="Group" fill="#000000">
                    <path d="M37.5233402,0.015560166 C48.9211618,0.015560166 60.3189834,0.015560166 71.716805,0.015560166 C73.3350622,0.015560166 74.5487552,0.941390041 74.9299793,2.45850622 C74.9922199,2.6996888 74.9922199,2.94865145 74.9922199,3.18983402 C74.9922199,20.7728216 74.9922199,38.3558091 74.9922199,55.9387967 C74.9922199,57.751556 73.6540456,59.0741701 71.7946058,59.1130705 C71.7323651,59.1130705 71.6623444,59.1130705 71.6001037,59.1130705 C48.8667012,59.1130705 26.1410788,59.1130705 3.40767635,59.1130705 C1.81275934,59.1130705 0.622406639,58.2883817 0.178941909,56.8801867 C0.0778008299,56.5689834 0.0389004149,56.25 0.0389004149,55.9232365 C0.0389004149,38.340249 0.0389004149,20.7572614 0.0389004149,3.17427386 C0.0389004149,1.34595436 1.43153527,-5.68434189e-14 3.2909751,-5.68434189e-14 C14.7043568,0.015560166 26.1177386,0.015560166 37.5233402,0.015560166 Z M26.7323651,24.6939834 C26.7090249,24.7017635 26.6934647,24.7017635 26.6701245,24.7095436 C26.623444,24.6084025 26.5767635,24.5150415 26.530083,24.4139004 C25.5108921,22.0954357 24.4839212,19.776971 23.4647303,17.4662863 C23.0368257,16.4937759 22.6244813,15.5212656 22.1810166,14.5643154 C21.8620332,13.8641079 21.3174274,13.4439834 20.5160788,13.4206432 C19.7614108,13.3973029 19.1934647,13.7318465 18.8278008,14.3931535 C18.6177386,14.7665975 18.5943983,15.1789419 18.5943983,15.5990664 C18.5943983,19.1390041 18.5943983,22.6789419 18.5943983,26.2188797 C18.5943983,26.3744813 18.6021784,26.530083 18.6255187,26.6856846 C18.7033195,27.1602697 19.0845436,27.4870332 19.5669087,27.5103734 C20.2048755,27.5337137 20.6172199,27.098029 20.6172199,26.3900415 C20.6172199,23.1457469 20.6172199,19.9092324 20.6172199,16.6649378 C20.6172199,16.5326763 20.6327801,16.408195 20.6327801,16.2759336 C20.7339212,16.3459544 20.7728216,16.4237552 20.811722,16.5093361 C22.2588174,19.784751 23.6981328,23.0523859 25.1530083,26.3278008 C25.5575726,27.2380705 26.3589212,27.6659751 27.284751,27.4792531 C28.1483402,27.3080913 28.7474066,26.5456432 28.7474066,25.5809129 C28.7551867,21.9009336 28.7474066,18.2131743 28.7551867,14.533195 C28.7551867,14.2608921 28.7007261,14.0197095 28.5295643,13.8096473 C28.2650415,13.4751037 27.8137967,13.3428423 27.4092324,13.4751037 C26.9891079,13.6151452 26.7323651,13.9963693 26.7323651,14.5020747 C26.7323651,17.7852697 26.7323651,21.0606846 26.7323651,24.3438797 C26.7323651,24.4528008 26.7323651,24.5772822 26.7323651,24.6939834 Z M30.7157676,34.3179461 C30.8635892,34.3957469 30.8791494,34.5202282 30.9180498,34.6213693 C31.7582988,36.5119295 32.5829876,38.4024896 33.4154564,40.2930498 C34.0145228,41.6545643 34.6058091,43.0160788 35.2126556,44.3698133 C35.6094398,45.2567427 36.3174274,45.7079876 37.1576763,45.6224066 C38.2002075,45.5134855 38.8537344,44.7276971 38.8537344,43.5684647 C38.8615145,41.4911826 38.8537344,39.4216805 38.8537344,37.3443983 C38.8537344,35.7883817 38.8537344,34.2323651 38.8537344,32.6763485 C38.8537344,32.1317427 38.6125519,31.7505187 38.1924274,31.594917 C37.4922199,31.3381743 36.8309129,31.8205394 36.8309129,32.6063278 C36.8309129,35.8739627 36.8309129,39.1415975 36.8309129,42.4092324 C36.8309129,42.5414938 36.8309129,42.6815353 36.8309129,42.8371369 C36.6675311,42.7359959 36.659751,42.6037344 36.6052905,42.4870332 C35.1815353,39.2738589 33.7655602,36.0606846 32.3495851,32.8475104 C32.1628631,32.4196058 31.9216805,32.0539419 31.5171162,31.8049793 C30.2411826,31.026971 28.7085062,31.9216805 28.6929461,33.4932573 C28.6696058,37.1732365 28.685166,40.8609959 28.685166,44.5409751 C28.685166,44.8599585 28.778527,45.1556017 29.0352697,45.373444 C29.3620332,45.653527 29.7354772,45.7157676 30.1244813,45.5368257 C30.5290456,45.3578838 30.7157676,45.0311203 30.7157676,44.5798755 C30.7157676,41.1644191 30.7157676,37.7567427 30.7157676,34.3179461 Z M39.561722,20.438278 C39.561722,22.4455394 39.561722,24.4605809 39.561722,26.4678423 C39.561722,26.9813278 39.8106846,27.3314315 40.2541494,27.471473 C40.9543568,27.6970954 41.5767635,27.1991701 41.5845436,26.3978216 C41.5923237,25.0985477 41.5923237,23.8070539 41.5845436,22.5077801 C41.5845436,22.2743776 41.6390041,22.1887967 41.8801867,22.2043568 C42.3236515,22.2276971 42.7593361,22.2276971 43.2028008,22.2043568 C43.4828838,22.1887967 43.6384855,22.2899378 43.7863071,22.5311203 C44.719917,24.0248963 45.6690871,25.503112 46.6182573,26.9813278 C46.8905602,27.4092324 47.2795643,27.5881743 47.6919087,27.5025934 C48.4543568,27.3469917 48.75,26.5689834 48.3143154,25.8687759 C47.5674274,24.6706432 46.8127593,23.4802905 46.0425311,22.2977178 C45.8791494,22.0487552 45.8713693,21.9553942 46.1747925,21.8231328 C47.9719917,21.0451245 49.0612033,19.0378631 48.7344398,17.1239627 C48.3843361,15.093361 46.8127593,13.5684647 44.7899378,13.4439834 C43.4362033,13.3584025 42.0669087,13.405083 40.7053942,13.405083 C39.9196058,13.405083 39.5539419,13.7863071 39.5539419,14.5876556 C39.561722,16.5482365 39.561722,18.4932573 39.561722,20.438278 Z M55.7909751,45.6301867 C55.9076763,45.6301867 56.0243776,45.6301867 56.1410788,45.6301867 C57.1369295,45.6379668 58.1327801,45.6379668 59.0897303,45.2878631 C60.6613071,44.7121369 61.6104772,43.4128631 61.6338174,41.7868257 C61.6493776,40.0363071 60.840249,38.8303942 59.2142116,38.1924274 C58.9263485,38.0757261 58.6307054,37.9823651 58.3350622,37.8812241 C57.3936722,37.5622407 56.4056017,37.3599585 55.5497925,36.8386929 C54.7640041,36.3563278 54.5228216,35.6950207 54.748444,34.7302905 C54.8962656,34.0923237 55.4175311,33.6955394 56.2577801,33.6021784 C57.4170124,33.4776971 58.591805,33.5710581 59.7510373,33.5477178 C60.373444,33.5321577 60.8091286,33.1353734 60.8169087,32.5596473 C60.8246888,31.968361 60.3812241,31.5404564 59.7432573,31.5248963 C59.2920124,31.5171162 58.8329876,31.5171162 58.3817427,31.5248963 C57.4481328,31.5326763 56.5145228,31.4626556 55.596473,31.6649378 C54.1804979,31.9761411 53.1690871,32.7619295 52.8189834,34.216805 C52.4455394,35.7728216 52.7178423,37.1732365 54.0248963,38.246888 C54.6317427,38.7448133 55.3552905,39.0404564 56.0943983,39.2894191 C56.9502075,39.5772822 57.8137967,39.8573651 58.6618257,40.1530083 C59.3698133,40.3941909 59.5876556,40.9854772 59.626556,41.6545643 C59.6654564,42.276971 59.4320539,42.7982365 58.8952282,43.1483402 C58.4828838,43.4206432 58.0238589,43.5451245 57.5414938,43.5762448 C56.3667012,43.6540456 55.1841286,43.591805 54.001556,43.6151452 C53.340249,43.6229253 52.9045643,44.0197095 52.8967842,44.6109959 C52.8890041,45.2178423 53.3246888,45.6301867 54.0093361,45.6379668 C54.5928423,45.6379668 55.1919087,45.6301867 55.7909751,45.6301867 Z M55.5575726,15.466805 C55.6198133,15.6924274 55.6509336,15.8091286 55.6820539,15.9180498 C56.716805,19.504668 57.7593361,23.0912863 58.7940871,26.6779046 C58.871888,26.9424274 58.9885892,27.18361 59.2297718,27.3469917 C59.6032158,27.5881743 60.0389004,27.5881743 60.3967842,27.3314315 C60.7624481,27.0669087 60.8947095,26.6545643 60.746888,26.156639 C59.6498963,22.3599585 58.5606846,18.5554979 57.4559129,14.7588174 C57.2147303,13.9341286 56.436722,13.3973029 55.5264523,13.4206432 C54.6006224,13.4362033 53.8926349,13.9574689 53.6436722,14.813278 C52.5544606,18.5710581 51.465249,22.3366183 50.3760373,26.0943983 C50.1815353,26.7790456 50.438278,27.3158714 51.0373444,27.4870332 C51.6130705,27.6504149 52.1187759,27.3314315 52.313278,26.6701245 C52.9901452,24.3283195 53.6670124,21.9787344 54.3516598,19.6291494 C54.748444,18.2754149 55.1374481,16.9216805 55.5575726,15.466805 Z M13.4284232,38.5503112 C13.4284232,40.5575726 13.4284232,42.5726141 13.4284232,44.5798755 C13.4284232,45.2022822 13.8174274,45.6224066 14.4320539,45.6301867 C16.4159751,45.6457469 18.3998963,45.6457469 20.3838174,45.6301867 C21.0684647,45.6224066 21.4963693,45.0544606 21.3641079,44.3853734 C21.2629668,43.8952282 20.8428423,43.591805 20.2282158,43.591805 C18.7889004,43.5840249 17.3495851,43.5762448 15.9102697,43.5995851 C15.5523859,43.6073651 15.4434647,43.5373444 15.4434647,43.1483402 C15.4590249,39.6628631 15.4512448,36.1696058 15.4512448,32.6841286 C15.4512448,31.9839212 15.0311203,31.5171162 14.4164938,31.5326763 C13.8252075,31.5482365 13.4284232,32.0072614 13.4284232,32.6841286 C13.4284232,34.6291494 13.4284232,36.5897303 13.4284232,38.5503112 Z M33.1509336,21.0840249 C33.1509336,22.8345436 33.1509336,24.5850622 33.1509336,26.3355809 C33.1509336,26.8257261 33.2909751,27.2380705 33.7655602,27.4481328 C34.4813278,27.7671162 35.1737552,27.2458506 35.1737552,26.3900415 C35.1737552,23.1379668 35.1737552,19.8858921 35.1737552,16.6338174 C35.1737552,16.2603734 35.0492739,15.7702282 35.2359959,15.5446058 C35.4304979,15.3112033 35.9439834,15.4979253 36.3174274,15.4745851 C36.4185685,15.466805 36.5274896,15.4745851 36.6286307,15.4745851 C37.2432573,15.4512448 37.686722,15.0233402 37.6945021,14.4631743 C37.7022822,13.879668 37.2588174,13.4362033 36.6208506,13.4284232 C34.971473,13.4206432 33.3298755,13.4206432 31.6804979,13.4284232 C31.0503112,13.4284232 30.6301867,13.8485477 30.6224066,14.4242739 C30.6146266,15.0311203 31.034751,15.4434647 31.6804979,15.4745851 C31.7738589,15.4745851 31.8594398,15.4745851 31.9528008,15.4745851 C32.341805,15.4901452 32.8552905,15.3112033 33.0809129,15.5368257 C33.3220954,15.7780083 33.1509336,16.2992739 33.1509336,16.6960581 C33.1587137,18.1509336 33.1509336,19.6213693 33.1509336,21.0840249 Z M50.0959544,45.6301867 C50.5082988,45.6068465 50.8195021,45.4356846 50.9906639,45.0544606 C51.185166,44.6343361 51.0995851,44.253112 50.8195021,43.8952282 C49.5357884,42.2225104 48.2520747,40.5420124 46.9605809,38.8692946 C46.7894191,38.6514523 46.7738589,38.5191909 46.9450207,38.2780083 C48.1820539,36.5819502 49.403527,34.878112 50.6172199,33.1664938 C50.9751037,32.6607884 50.8817427,32.0695021 50.4149378,31.7193983 C49.9636929,31.3770747 49.3490664,31.4548755 49.0067427,31.9294606 C47.5518672,33.9445021 46.0969917,35.9595436 44.6576763,37.9823651 C44.3775934,38.3791494 44.3853734,38.8226141 44.6732365,39.2116183 C46.2059129,41.2188797 47.7385892,43.2261411 49.2790456,45.2256224 C49.4891079,45.5057054 49.7691909,45.6224066 50.0959544,45.6301867 Z M25.8687759,38.6047718 C25.8687759,36.6208506 25.8687759,34.6369295 25.8687759,32.6607884 C25.8687759,32.0228216 25.503112,31.5560166 24.9273859,31.5404564 C24.1026971,31.5093361 23.2702282,31.5093361 22.4377593,31.5404564 C21.8931535,31.5560166 21.5119295,32.0072614 21.5119295,32.5518672 C21.5119295,33.096473 21.8620332,33.5010373 22.4299793,33.5554979 C22.7411826,33.5866183 23.0523859,33.6021784 23.3635892,33.5710581 C23.7370332,33.5399378 23.8615145,33.6332988 23.8615145,34.0456432 C23.8381743,36.8542531 23.8537344,39.6706432 23.8537344,42.4792531 C23.8537344,43.2028008 23.8459544,43.9341286 23.8537344,44.6576763 C23.8615145,45.1945021 24.2505187,45.5912863 24.7717842,45.6379668 C25.2697095,45.6846473 25.7053942,45.373444 25.8298755,44.8677386 C25.8687759,44.719917 25.876556,44.5643154 25.876556,44.4087137 C25.8687759,42.4636929 25.8687759,40.5342324 25.8687759,38.6047718 Z M15.4512448,20.4616183 C15.4512448,18.4932573 15.4512448,16.5248963 15.4512448,14.5565353 C15.4512448,13.9341286 15.1400415,13.498444 14.5876556,13.4517635 C13.7863071,13.3895228 12.9849585,13.3895228 12.18361,13.4517635 C11.6856846,13.4906639 11.343361,13.8952282 11.3200207,14.3853734 C11.2966805,14.8910788 11.5845436,15.2878631 12.0746888,15.4279046 C12.370332,15.5134855 12.6737552,15.4901452 12.9616183,15.466805 C13.3428423,15.4279046 13.4439834,15.5446058 13.4439834,15.94139 C13.4284232,19.4424274 13.4362033,22.9356846 13.4362033,26.436722 C13.4362033,26.9424274 13.6540456,27.3003112 14.05861,27.4636929 C14.7510373,27.7437759 15.4590249,27.2458506 15.4590249,26.4522822 C15.4590249,24.4528008 15.4512448,22.4533195 15.4512448,20.4616183 Z M41.6856846,38.5503112 C41.6856846,40.5342324 41.6856846,42.5103734 41.6856846,44.4942946 C41.6856846,45.1789419 42.0824689,45.6224066 42.6893154,45.6301867 C43.2883817,45.6379668 43.7085062,45.1945021 43.7085062,44.5176349 C43.7162863,40.5653527 43.7162863,36.6130705 43.7085062,32.6685685 C43.7085062,31.968361 43.2806017,31.5093361 42.6659751,31.5248963 C42.0669087,31.5404564 41.6856846,31.9994813 41.6856846,32.6841286 C41.6856846,34.6369295 41.6856846,36.5975104 41.6856846,38.5503112 Z M64.5435685,44.3542531 C64.5435685,43.6384855 63.9834025,43.0705394 63.2754149,43.0627593 C62.5752075,43.0627593 61.9917012,43.6384855 61.9839212,44.346473 C61.9761411,45.0389004 62.5596473,45.6224066 63.2676349,45.6301867 C63.9834025,45.6379668 64.5513485,45.0700207 64.5435685,44.3542531 Z" id="Shape"></path>
                    <path d="M41.5845436,17.81639 C41.5845436,17.1161826 41.5845436,16.4159751 41.5845436,15.7235477 C41.5845436,15.5523859 41.5923237,15.4356846 41.8257261,15.4434647 C42.7282158,15.466805 43.6384855,15.4201245 44.5409751,15.4823651 C45.8869295,15.5679461 46.7894191,16.6026971 46.7505187,17.9408714 C46.7193983,19.1779046 45.6924274,20.1659751 44.3931535,20.1893154 C43.5529046,20.2048755 42.7126556,20.1893154 41.8724066,20.1970954 C41.6545643,20.1970954 41.5845436,20.1426349 41.5845436,19.9170124 C41.5923237,19.216805 41.5845436,18.5165975 41.5845436,17.81639 Z" id="Path"></path>
                    <path d="M64.3257261,44.3775934 C64.3179461,44.9377593 63.8355809,45.4201245 63.283195,45.4201245 C62.7308091,45.4201245 62.2173237,44.906639 62.2173237,44.346473 C62.2251037,43.7629668 62.7074689,43.2961618 63.2987552,43.2961618 C63.8822614,43.3039419 64.3335062,43.778527 64.3257261,44.3775934 Z M63.6488589,44.9766598 C63.7655602,44.7432573 63.376556,44.5954357 63.6021784,44.3698133 C63.7577801,44.2142116 63.7577801,44.0041494 63.6410788,43.8407676 C63.4776971,43.6229253 63.2131743,43.6773859 62.995332,43.7240664 C62.7774896,43.7707469 62.8475104,43.9885892 62.8397303,44.1441909 C62.8319502,44.3075726 62.8319502,44.4787344 62.8397303,44.6421162 C62.8475104,44.7432573 62.7697095,44.9221992 62.9175311,44.9377593 C63.0809129,44.9533195 63.0186722,44.7743776 63.0342324,44.6732365 C63.0497925,44.5876556 63.003112,44.4865145 63.1353734,44.4553942 C63.2676349,44.4320539 63.3065353,44.533195 63.3609959,44.6187759 C63.4387967,44.7588174 63.4387967,44.9377593 63.6488589,44.9766598 Z" id="Shape"></path>
                    <path d="M63.2365145,44.2842324 C63.0809129,44.3075726 63.0264523,44.2375519 63.0264523,44.06639 C63.0264523,43.9030083 63.1042531,43.871888 63.2365145,43.879668 C63.3921162,43.8874481 63.5321577,43.9107884 63.5243776,44.1052905 C63.5243776,44.2842324 63.3843361,44.2842324 63.2365145,44.2842324 Z" id="Path"></path>
                </g>
            </g>
        </g>
    </g>
</svg>