<svg xmlns="http://www.w3.org/2000/svg" xmlns:xlink="http://www.w3.org/1999/xlink" width="164" height="48" viewBox="0 0 164 48">
    <defs>
        <path id="a" d="M.353.57H37.38v17.414H.353z"/>
        <path id="c" d="M.97.044h2.973v2.991H.969z"/>
    </defs>
    <g fill="none" fill-rule="evenodd">
        <path fill="#015595" d="M55.55 17.735c0 2.076.015 2.322.263 2.52.2.18.964.345 1.61.345.78 0 1.21-.115 1.694-.46.663-.48 1.06-1.352 1.06-2.259 0-1.976-1.559-3.21-4.013-3.21-.533 0-.6.033-.6.395v.345c0 .775-.015 1.55-.015 2.324zm0-4.843c0 .543.032.84.032.905 0 .215.082.264.415.264l.664-.016c1.658-.05 2.654-1.072 2.654-2.703 0-1.366-1.195-2.388-2.788-2.388-.297 0-.499.032-.664.115a.459.459 0 0 0-.2.181.662.662 0 0 0-.08.331c0 .098-.018.312-.018.609l-.016 1.664v1.038zm-1.229-2.77c0-.74-.017-.806-.132-1.036-.167-.33-.432-.462-.995-.477-.167 0-.25-.067-.25-.181 0-.116.083-.166.413-.166 0 0 1.245.05 1.43.05.347 0 1.092-.033 1.54-.033.698 0 1.496.033 1.496.033.661.033 1.243.197 1.658.478.798.51 1.211 1.352 1.211 2.388 0 1.136-.78 2.355-1.707 2.767l-.316.133c-.018.017-.035.033-.035.065 0 .033.035.068.1.099l.216.065a3.78 3.78 0 0 1 1.858 1.169c.466.562.699 1.219.699 2.028 0 1.038-.35 1.927-1.013 2.586-.88.905-1.777 1.186-3.668 1.186-.183 0-.447 0-.846-.017-.332-.016-.6-.016-.797-.016h-.63c-.364 0-.614.016-.78.033-.214.016-.381.016-.5.016-.18 0-.296-.066-.296-.164 0-.099.066-.149.198-.181.397-.083.48-.116.68-.264.117-.1.216-.216.249-.33.049-.098.085-.263.116-.461.05-.28.066-.526.066-.71l.052-6.587-.017-2.472zM74.747 15.33c0-2.077-.73-3.871-2.091-5.156-1.011-.955-2.007-1.336-3.518-1.336-1.294 0-2.124.265-3.003.94-1.311 1.005-1.924 2.322-1.924 4.167 0 3.772 2.555 6.986 5.575 6.986 3.087 0 4.96-2.126 4.96-5.602zm-4.978 6.177c-1.676 0-3.168-.528-4.032-1.086-1.776-1.173-2.822-3.395-2.822-6.014 0-3.607 2.706-6.26 6.388-6.26 1.529 0 2.922.346 3.952.99 1.79 1.103 2.902 3.31 2.902 5.715 0 .527-.066 1.07-.165 1.664-.25 1.332-.68 2.24-1.495 3.112-1.194 1.251-2.72 1.829-4.579 1.879h-.15zM76.404 8.56c-.049-.018-.115-.066-.115-.134 0-.115.082-.163.264-.163.582 0 1.18.015 1.925.015.417 0 .83-.015 1.063-.015h.332c.215 0 .316.048.316.148 0 .115-.066.165-.268.198-.347.066-.613.345-.613.659 0 .18.2.691.466 1.136l2.59 4.348c.013.033.048.05.08.05.034 0 .069-.033.166-.214l2.838-4.662c.215-.344.283-.527.283-.774 0-.248-.15-.46-.366-.493l-.315-.05c-.15-.017-.182-.05-.182-.15 0-.115.083-.196.167-.196 0 0 1.325.067 1.443.067.198 0 .995-.067 1.127-.067.282 0 .4.048.4.18 0 .083-.066.149-.167.182l-.382.082c-.332.068-.58.38-1.193 1.352l-3.436 5.452c-.05.065-.068.148-.068.296l-.031 3.904c0 .724.398 1.07 1.242 1.169l.299.033c.184.017.283.1.283.232 0 .114-.066.164-.283.164l-.282-.017s-1.742-.033-1.907-.033c-.215 0-1.957.033-1.957.033-.101 0-.184-.066-.184-.131 0-.133.083-.133.366-.198.248-.066.563-.164.763-.312.298-.199.432-.66.432-1.532v-3.246c0-.231-.035-.28-.25-.643l-3.252-5.402c-.349-.56-.432-.759-.68-.94-.249-.18-.864-.312-.914-.329M100.994 10.8c-.115 0-.167-.05-.216-.248a3.458 3.458 0 0 0-.099-.443c-.165-.56-.265-.726-.582-.924-.364-.214-.863-.328-1.526-.328-1.378 0-2.307.89-2.307 2.222 0 .988.68 1.878 2.274 2.966l1.146.774c1.377.923 1.874 1.795 1.874 3.13 0 2.306-1.527 3.574-4.281 3.574-.547 0-.864-.033-1.527-.164l-.481-.1c-.115-.033-.132-.066-.165-.312l-.117-.923c-.017-.165-.1-.577-.1-.577a4.203 4.203 0 0 1-.082-.642c0-.13.05-.18.15-.18.116 0 .164.05.2.215.114.46.263.79.513 1.102.433.577 1.21.874 2.307.874 1.46 0 2.522-1.038 2.522-2.455 0-.447-.118-.923-.281-1.202-.218-.347-.815-.94-1.362-1.32l-1.094-.756c-1.013-.691-1.527-1.154-1.876-1.616-.398-.493-.598-1.136-.598-1.893 0-2.06 1.36-3.395 3.5-3.395.417 0 .898.035 1.579.133.165.017.281.033.347.033.316.033.382.15.382.61v.247c0 .28.082 1.219.082 1.4 0 .13-.066.198-.182.198M113.49 20.716c-1.295.543-2.656.84-3.75.84-4.115 0-6.773-2.587-6.773-6.589 0-1.962.567-3.493 1.81-4.81.879-.955 1.56-1.367 2.555-1.714.697-.246 1.428-.296 2.175-.296 1.094 0 2.008.115 3.501.71.3.114.53.197.697.247.233.048.281.115.281.46 0 .593.035 1.169.084 1.83v.065c0 .18-.066.246-.165.246-.1 0-.2-.082-.367-.46-.215-.495-.978-1.319-1.492-1.648-.88-.576-1.643-.807-2.689-.807-1.245 0-2.205.296-3.069.938-1.412 1.022-2.025 2.405-2.025 4.564 0 3.525 2.59 6.555 5.626 6.555 1.061 0 2.272-.38 3.02-.921.497-.362 1.143-1.236 1.327-1.764.117-.345.165-.427.332-.427.116 0 .182.146.182.346 0 .098-.05.36-.116.626-.099.33-.18.707-.18.707l-.101.48c-.084.377-.266.573-.864.822M127.89 15.33c0-2.077-.73-3.871-2.09-5.156-1.012-.955-2.007-1.336-3.518-1.336-1.294 0-2.123.265-3.003.94-1.312 1.005-1.923 2.322-1.923 4.167 0 3.772 2.553 6.986 5.574 6.986 3.086 0 4.96-2.126 4.96-5.602zm-4.976 6.177c-1.676 0-3.17-.528-4.033-1.086-1.775-1.173-2.822-3.395-2.822-6.014 0-3.607 2.706-6.26 6.39-6.26 1.526 0 2.92.346 3.95.99 1.792 1.103 2.902 3.31 2.902 5.715 0 .527-.066 1.07-.165 1.664-.25 1.332-.681 2.24-1.494 3.112-1.193 1.251-2.722 1.829-4.58 1.879h-.148zM130.876 8.214s1.427.048 1.545.048h1.527l.264-.015c.132 0 .216.05.216.13 0 .099-.066.132-.216.149a1.38 1.38 0 0 0-.98.528 1.422 1.422 0 0 0-.217.444 2.037 2.037 0 0 0-.114.61c-.016.346-.016 1.253-.016 2.718l.016 3.557c0 .462.017.857.05 1.186.082.955.596 1.912 1.327 2.488.697.543 1.593.774 2.988.774 1.443 0 2.404-.33 3.102-1.038.613-.626.814-1.35.814-2.932l-.019-6.95c0-.875-.196-1.154-.877-1.302l-.316-.067c-.182-.033-.198-.047-.198-.147 0-.083.033-.116.165-.116l.466.018a57.49 57.49 0 0 0 1.16.048c.168 0 .516 0 1.063-.033l.331-.015c.167 0 .25.048.25.146 0 .116-.083.181-.397.216-.483.065-.681.214-.797.674-.05.181-.084.395-.101.61a91.985 91.985 0 0 0-.118 3.476l-.047 3.557c-.035 1.978-.299 2.767-1.263 3.559a3.13 3.13 0 0 1-1.51.724 11.29 11.29 0 0 1-2.205.215c-1.775 0-3.054-.429-3.917-1.319a3.975 3.975 0 0 1-.896-1.515 4.283 4.283 0 0 1-.215-1.267s-.018-2.668-.018-2.868l.033-4.282c0-1.087-.23-1.564-.712-1.631l-.448-.066c-.184-.031-.25-.065-.25-.164 0-.1.099-.165.215-.165l.315.017zM144.632 8.477c.048-.216.067-.23.198-.23 0 0 4.795.083 5.012.083h4.28l.88-.05c.232 0 .282.064.282.395 0 .13-.015.246-.033.346l-.3 1.252a.188.188 0 0 1-.181.164c-.082 0-.132-.05-.132-.148 0-.116.033-.231.033-.378 0-.362-.033-.445-.233-.545-.297-.165-.879-.23-1.957-.23-.565 0-1.13.016-1.494.05l-.365.032c-.132.015-.2.065-.217.165 0 0-.017.33-.017.445v9.966c0 .626.3.922 1.096 1.07l.349.066c.099.033.283.033.283.197 0 .115-.068.182-.215.182h-.332l-3.752-.017c-.083 0-.264.017-.347.017-.084 0-.132-.082-.132-.182 0-.033.014-.097.08-.131.07-.033.298-.066.298-.066l.58-.116c.301-.065.567-.279.648-.525.101-.281.134-.973.134-2.342l.035-8.267c0-.545-.068-.578-.966-.578-.33 0-.712 0-1.143.018-.894.032-1.313.098-1.641.23-.334.132-.65.494-.898 1.037-.05.115-.085.133-.151.133-.097 0-.15-.033-.15-.1 0-.049.016-.081.035-.131l.15-.493.149-.742.134-.577zM162.735 10.8c-.116 0-.166-.05-.217-.248a3.511 3.511 0 0 0-.1-.443c-.166-.56-.265-.726-.58-.924-.365-.214-.864-.328-1.527-.328-1.376 0-2.307.89-2.307 2.222 0 .988.68 1.878 2.275 2.966l1.143.774c1.378.923 1.876 1.795 1.876 3.13 0 2.306-1.527 3.574-4.281 3.574-.546 0-.862-.033-1.527-.164l-.48-.1c-.116-.033-.132-.066-.168-.312l-.115-.923a8.395 8.395 0 0 0-.1-.577 4.204 4.204 0 0 1-.082-.642c0-.13.05-.18.15-.18.117 0 .166.05.2.215.115.46.265.79.515 1.102.43.577 1.21.874 2.305.874 1.46 0 2.522-1.038 2.522-2.455 0-.447-.117-.923-.28-1.202-.217-.347-.814-.94-1.362-1.32l-1.094-.756c-1.014-.691-1.528-1.154-1.876-1.616-.4-.493-.599-1.136-.599-1.893 0-2.06 1.362-3.395 3.502-3.395.417 0 .896.035 1.577.133.165.017.281.033.349.033.316.033.382.15.382.61v.247c0 .28.08 1.219.08 1.4 0 .13-.066.198-.18.198M64.693 35.91c0-2.075-.73-3.87-2.09-5.156-1.012-.954-2.007-1.335-3.518-1.335-1.294 0-2.123.266-3.003.94-1.312 1.005-1.925 2.322-1.925 4.167 0 3.772 2.555 6.986 5.576 6.986 3.086 0 4.96-2.126 4.96-5.601zm-4.978 6.178c-1.674 0-3.168-.527-4.031-1.086-1.775-1.173-2.822-3.395-2.822-6.014 0-3.607 2.706-6.26 6.388-6.26 1.528 0 2.923.346 3.95.99 1.792 1.103 2.904 3.31 2.904 5.715 0 .526-.066 1.07-.165 1.664-.249 1.332-.681 2.24-1.494 3.112-1.195 1.252-2.72 1.83-4.58 1.88h-.15zM75.062 28.86c.151 0 .2.115.217.395l.049 1.384c.017.214.035.378.035.526 0 .183-.066.314-.167.314-.115 0-.18-.116-.198-.33-.066-.725-.401-1.267-.896-1.45a2.717 2.717 0 0 0-.697-.13 80.904 80.904 0 0 0-2.19-.033l-.815.015c-.364.017-.397.05-.397.28l-.065 4.727c0 .133.049.216.13.216l2.889-.033c.28 0 .497-.05.596-.133.05-.05.099-.164.168-.362.049-.133.08-.262.098-.38.017-.18.066-.263.166-.263.117 0 .18.115.18.331-.063.922-.063 1.02-.063 1.103 0 .428.05 1.056.099 1.383.033.214.066.412.066.462 0 .131-.066.214-.181.214-.1 0-.167-.131-.25-.528-.214-.92-.4-1.086-1.343-1.103 0 0-.945-.017-1.162-.017l-1.08-.033c-.097 0-.165 0-.23.033-.083.034-.102.15-.102.527v3.46c0 1.004.05 1.4.216 1.68.133.231.48.38 1.03.414.265.014.383.08.383.196 0 .099-.052.149-.234.149h-3.898c-.052 0-.1-.05-.1-.116 0-.1.048-.148.215-.165.413-.05.695-.147.861-.347.101-.114.235-.328.25-.543.016-.147.034-.412.034-.79l.015-1.17v-1.416l.068-5.633c0-.577-.017-1.155-.05-1.517-.05-.641-.332-.972-.88-.988-.331 0-.465-.065-.465-.18 0-.1.134-.166.334-.166l7.052.017h.312zM88.303 31.167c-.018-.05-.049-.066-.082-.066-.035 0-.085.033-.116.083l-1.61 3.902c-.05.132-.084.265-.084.346 0 .098.068.15.233.166l2.972-.016c.215 0 .297-.067.297-.215 0-.033 0-.066-.016-.099l-1.493-3.872-.101-.23zm-.18-1.895l.131-.378c.049-.133.117-.18.249-.18.114 0 .182.063.23.196l.218.593c.762 2.076 1.61 4.265 2.537 6.59.848 2.156 1.362 3.408 1.494 3.755l.233.625s.264.61.448.757c.116.1.264.181.547.231.299.05.382.083.382.23 0 .1-.064.165-.165.165H91.01c-.183 0-.25-.048-.25-.148 0-.116.1-.18.349-.197.43-.05.712-.379.712-.84 0-.13-.049-.313-.163-.708l-1.329-3.543c-.05-.148-.1-.181-.2-.181h-.182c-.697 0-1.391-.033-2.091-.033l-1.676.017a.325.325 0 0 0-.165.035c-.033.014-.066.065-.1.146l-1.394 3.492c-.115.296-.198.645-.198.841 0 .181.1.412.215.543.115.116.151.131.547.214.283.067.367.117.367.233 0 .064-.084.146-.167.146l-.363-.017s-.797-.033-1.079-.033c-.135 0-1.528.068-1.528.068-.15 0-.233-.05-.233-.164 0-.15.084-.216.35-.316.48-.18.711-.46 1.012-1.169l3.833-8.975.846-1.995zM107.102 32.698c-.016-.098-.047-.166-.1-.166-.032 0-.081.035-.097.083l-.267.545c-.563 1.152-1.127 2.486-1.758 4.019-.913 2.24-1.528 3.707-1.86 4.365l-.182.363c-.033.065-.101.13-.152.13-.099 0-.147-.065-.18-.146l-.249-.528c-.465-.972-1.111-2.437-1.924-4.43-.747-1.83-1.329-3.182-1.794-4.07l-.23-.446c-.052-.064-.1-.114-.118-.114a.111.111 0 0 0-.099.066l-.05.313-.58 7.083-.018.692c0 .329.018.462.117.625.15.231.314.297 1.16.43.167.017.235.064.235.179 0 .117-.101.183-.284.183l-.663-.017c-.38-.016-.914-.016-1.245-.016-.348 0-.63 0-.846.016l-.283.017c-.148 0-.181-.033-.181-.133 0-.098.082-.148.297-.197.498-.117.73-.346.815-.84l.099-.642c.033-.181.333-3.162.333-3.162l.464-5.19c.116-1.219.147-1.795.147-2.224v-.148c0-.495.068-.694.25-.694.133 0 .218.118.332.414l.963 2.388c.298.724 3.633 8.136 3.633 8.136.016.068.068.118.1.118.051 0 .083-.05.117-.118l.462-1.086c.369-.857.982-2.24 1.828-4.134.995-2.207 1.724-3.936 2.205-5.173l.119-.296c.066-.164.132-.23.23-.23.119 0 .199.114.218.313l.132 2.24s.099 1.582.114 1.763l.384 6.588c.066 1.284.348 1.762 1.094 1.88.282.032.416.115.416.244 0 .133-.1.183-.348.183h-.068s-1.443-.017-1.56-.017c-.131 0-1.16.034-1.16.034-.1 0-.566.016-.583.016-.115 0-.18-.066-.18-.166 0-.098.065-.148.232-.212.611-.216.96-.643.96-1.172 0-.164-.013-.444-.03-.838l-.069-1.287-.298-5.534zM114.22 29.602c-.25.015-.316.048-.316.196l-.013.48V34.542c0 .164.013.181.149.181h2.505c.929 0 1.144-.116 1.245-.691.049-.264.099-.347.217-.347.082 0 .132.066.132.181l-.05.56v.906l.099 1.17v.247c0 .083-.033.133-.115.133-.118 0-.167-.083-.217-.462-.1-.626-.4-.89-1.047-.906 0 0-.63-.017-1.609-.032-.283 0-1.129.048-1.129.048h-.114c-.033.017-.053.067-.053.115l.066 3.971c.018 1.317.152 1.548.897 1.581.814.048.88.048.965.048.928 0 2.024-.098 2.307-.213.281-.116.664-.41.846-.659.116-.166.215-.362.314-.691.033-.133.068-.166.15-.166.099 0 .15.033.15.148 0 .149-.1.593-.199.973l-.2.708c-.099.462-.165.528-.48.528h-.298c-.281 0-1.197-.033-2.706-.033-2.04 0-3.517.033-3.95.048l-.314.018c-.083 0-.132-.05-.132-.116 0-.1.05-.148.382-.215.198-.049.514-.181.664-.295.182-.133.248-.33.265-.824l.016-.774v-5.487s-.033-3.327-.05-3.524c-.033-.593-.066-.988-.231-1.219-.1-.132-.266-.214-.515-.23l-.4-.034c-.098-.017-.164-.065-.164-.163 0-.1.099-.166.266-.166 0 0 3.434.066 3.517.066 3.85-.083 3.884-.083 3.917-.083.13 0 .215.133.215.281v.131c-.017.116-.017.231-.017.362 0 .347.034.726.067 1.022.016.099.032.182.032.247 0 .183-.065.262-.165.262-.082 0-.132-.046-.181-.18l-.1-.311c-.267-.857-.68-1.09-1.892-1.09h-2.076l-.65.035zM123.212 34.839c0 .248.151.314.716.314 2.223 0 3.451-.988 3.451-2.768 0-1.746-1.261-2.882-3.22-2.882-.797 0-.912.13-.912.988l-.035 4.348zm-.76 6.969s-1.58.065-1.795.065c-.083 0-.132-.05-.132-.132s.049-.149.184-.18l.414-.115c.364-.1.597-.38.679-.792.083-.427.118-1.219.134-2.586l.066-8.153c-.033-.347-.233-.643-.466-.676l-.48-.081c-.117-.017-.25-.05-.267-.067-.048-.016-.08-.083-.08-.149 0-.133.115-.18.282-.18a433.495 433.495 0 0 0 2.421.081c1.511-.016 2.192-.016 2.208-.016 1.759 0 3.037 1.317 3.037 3.096 0 1.171-.415 2.126-1.179 2.72l-.863.675s1.127 2.273 1.777 3.36c.43.725 1.177 1.795 1.177 1.795l.316.395c.216.264.646.46 1.178.578l.363.082c.151.033.184.064.184.147 0 .116-.033.133-.234.148l-.197.018s-1.776.05-1.994.05c-.448 0-.78-.363-1.012-.792l-.365-.626c-.281-.479-.68-1.236-1.178-2.272a80.362 80.362 0 0 1-.962-2.043l-.1-.214c-.08-.181-.282-.314-.614-.314-.496 0-1.245.033-1.542.066-.2.017-.235.1-.235.346l-.015 3.245c0 .74.015 1.136.068 1.417.067.345.413.674.746.742l.513.098c.217.048.267.065.267.181 0 .098-.05.148-.166.148l-.35-.017s-1.208-.048-1.658-.048h-.13zM135.11 39.815c.017.955.067 1.219.33 1.433.15.115.432.214.797.28.201.034.3.097.3.197a.158.158 0 0 1-.165.166l-.283-.017c-.415-.018-1.063-.05-1.892-.05-.599 0-1.045.032-1.344.05l-.233.017c-.099 0-.165-.067-.165-.166 0-.113.066-.18.398-.263.334-.099.596-.297.731-.576.183-.38.183-.576.198-3.295l.016-6.64c0-.312-.016-.591-.049-.84-.05-.462-.267-.774-.562-.856-.136-.033-.534-.099-.534-.099-.116-.015-.15-.065-.15-.13 0-.133.067-.183.267-.183.331 0 .813.034 1.195.034h.63c.764 0 1.228 0 1.742-.034.132 0 .165.034.165.132 0 .116-.099.199-.363.247-.349.083-.615.23-.764.427a.93.93 0 0 0-.182.413c-.084.429-.132 1.665-.132 3.032v4.397l.048 2.324zM148.5 41.297c-1.293.543-2.655.84-3.75.84-4.116 0-6.771-2.587-6.771-6.589 0-1.962.566-3.493 1.81-4.81.878-.955 1.56-1.367 2.554-1.714.697-.246 1.428-.296 2.173-.296 1.096 0 2.008.115 3.504.71.298.114.53.197.696.247.233.048.282.115.282.46 0 .593.033 1.169.083 1.828v.067c0 .18-.066.246-.167.246-.099 0-.198-.082-.365-.46-.215-.495-.977-1.319-1.492-1.648-.88-.576-1.644-.807-2.69-.807-1.245 0-2.206.296-3.067.938-1.412 1.022-2.026 2.405-2.026 4.564 0 3.525 2.588 6.555 5.624 6.555 1.063 0 2.276-.38 3.021-.92.498-.363 1.145-1.237 1.329-1.765.114-.345.165-.427.331-.427.117 0 .183.146.183.345 0 .1-.052.362-.117.627-.099.33-.18.707-.18.707l-.103.48c-.081.377-.264.573-.861.822M156.895 31.167c-.015-.05-.048-.066-.083-.066-.031 0-.082.033-.115.083l-1.61 3.902c-.05.132-.083.265-.083.346 0 .098.066.15.233.166l2.97-.016c.217 0 .3-.067.3-.215 0-.033 0-.066-.019-.099l-1.49-3.872-.103-.23zm-.18-1.895l.13-.378c.05-.133.116-.18.248-.18.12 0 .184.063.233.196l.217.593c.763 2.076 1.61 4.265 2.538 6.59.846 2.156 1.36 3.408 1.495 3.755l.231.625s.266.61.448.757c.115.1.266.181.548.231.298.05.38.083.38.23 0 .1-.064.165-.165.165H159.6c-.184 0-.248-.048-.248-.148 0-.116.099-.18.346-.197.432-.05.715-.379.715-.84 0-.13-.05-.313-.166-.708l-1.33-3.543c-.048-.148-.098-.181-.197-.181h-.183c-.696 0-1.393-.033-2.09-.033l-1.677.017a.33.33 0 0 0-.165.035c-.033.014-.064.065-.1.146l-1.395 3.492c-.115.296-.197.645-.197.841 0 .181.1.412.216.543.116.116.15.131.545.214.285.067.367.117.367.233 0 .064-.082.146-.165.146l-.365-.017s-.797-.033-1.079-.033c-.134 0-1.527.068-1.527.068-.15 0-.232-.05-.232-.164 0-.15.081-.216.347-.316.483-.18.714-.46 1.013-1.169l3.833-8.975.848-1.995zM33.695 40.586h.191c.22 0 .407-.08.407-.284 0-.143-.108-.288-.407-.288-.083 0-.144.007-.19.012v.56zm0 .914h-.265v-1.652c.14-.017.27-.038.47-.038.252 0 .419.052.518.124.099.073.151.185.151.344 0 .215-.144.346-.325.4v.013c.146.028.245.157.28.402.038.255.078.355.106.407h-.278c-.042-.053-.08-.202-.113-.419-.04-.212-.146-.29-.36-.29h-.184v.709zm.278-2.112c-.656 0-1.191.56-1.191 1.252 0 .703.535 1.255 1.198 1.255.664.008 1.193-.552 1.193-1.252 0-.695-.53-1.255-1.193-1.255h-.007zm.007-.23c.815 0 1.466.656 1.466 1.482 0 .836-.651 1.486-1.473 1.486-.816 0-1.478-.65-1.478-1.486 0-.826.662-1.481 1.478-1.481h.007z"/>
        <path fill="#E11D38" d="M4.387 22.901l.54 1.657h1.752L5.264 25.58l.54 1.656-1.417-1.021-1.418 1.02.54-1.655-1.418-1.022h1.752zM36.75 22.901l.542 1.657h1.753l-1.42 1.022.542 1.656-1.417-1.021-1.417 1.02.54-1.655-1.419-1.022h1.754z"/>
        <path fill="#E11D38" d="M8.193 25.715c-1.416.879-2.192 2.017-2.591 2.976-.152.356-.25.69-.32.977l-.017.074-.061-.041a9.952 9.952 0 0 1-1.666-1.402c-1.167-1.226-2.275-3.026-2.28-5.536.006-1 .206-1.874.555-2.635l-.839-1.112C.372 20.063 0 21.31 0 22.747v.025c0 2.984 1.39 5.144 2.753 6.522 1.365 1.38 2.725 2.062 2.765 2.081l1.094.522a3.915 3.915 0 0 1-.178-1.17c0-.455.08-.995.326-1.554.33-.738.89-1.61 2.001-2.332.276-.168.528-.271.662-.32-.311-.198-1.04-.687-1.23-.806M38.457 29.293c1.354-1.376 2.747-3.535 2.747-6.52v-.025c0-1.44-.368-2.685-.972-3.73l-.836 1.11a6.35 6.35 0 0 1 .549 2.637c-.002 2.509-1.108 4.309-2.279 5.534a10.033 10.033 0 0 1-1.66 1.4l-.063.044-.02-.075a6.262 6.262 0 0 0-.315-.977c-.401-.96-1.178-2.098-2.597-2.976-.187.119-.919.609-1.228.807.136.048.386.15.664.32 1.115.72 1.659 1.597 1.996 2.33.246.53.32 1.062.32 1.52 0 .557-.11 1.006-.17 1.21l1.095-.525c.042-.02 1.403-.702 2.769-2.084"/>
        <g transform="translate(1.737 .154)">
            <mask id="b" fill="#fff">
                <use xlink:href="#a"/>
            </mask>
            <path fill="#E11D38" d="M26.26 17.194c.246-.13.604-.31 1.06-.488.917-.35 2.234-.712 3.802-.712h.018c1.311 0 2.954.466 4.3 1.398h1.94a7.807 7.807 0 0 0-.828-.741c-1.664-1.288-3.701-1.902-5.428-1.905a11.8 11.8 0 0 0-5.007 1.119l-.061.03-.012-.07c-.459-2.496-1.557-4.743-2.831-7.036-1.41-2.533-3.04-5.136-4.348-8.219-1.304 3.083-2.937 5.686-4.344 8.219-1.273 2.293-2.374 4.54-2.833 7.036l-.01.07-.061-.03a11.797 11.797 0 0 0-5.006-1.12c-1.73.004-3.767.618-5.43 1.906a8.355 8.355 0 0 0-.828.741h1.939c1.347-.932 2.989-1.398 4.3-1.398h.02c1.568 0 2.88.362 3.798.712.462.178.82.357 1.06.488.12.064.211.12.269.152a.93.93 0 0 0 .076.048l.005.002v.003l.865.585.111-1.038c.287-2.623 1.405-4.998 2.825-7.552.997-1.791 2.134-3.662 3.199-5.757l.045-.091.049.091c1.063 2.095 2.204 3.966 3.196 5.757 1.42 2.554 2.539 4.93 2.822 7.552l.116 1.038.86-.581.005-.004.01-.005s0-.003.006-.007a.462.462 0 0 0 .064-.041c.06-.033.151-.088.268-.152" mask="url(#b)"/>
        </g>
        <path fill="#E11D38" d="M7.876 35.183c0 .14.003.26.003.352 0 1.884.744 3.584 1.888 4.824 1.145 1.236 2.708 2.026 4.37 2.03h.004c.757 0 1.525-.17 2.263-.527l.047-.022.02.048c.572 1.205 1.932 3.695 4.131 5.542 2.206-1.852 3.556-4.337 4.132-5.542l.021-.048.049.022a5.168 5.168 0 0 0 2.26.526h.005c1.665-.003 3.223-.793 4.368-2.029a7.117 7.117 0 0 0 1.89-4.824l.001-.352c0-.683-.067-1.91-.878-3.388v.028c-.004 1.791-1.38 2.991-1.8 3.238-.43.246-.846.338-1.252.338h-.007c-.6 0-1.181-.21-1.619-.433-.314-.164-.55-.336-.67-.423l-1.065.756c.168.134.637.496 1.098.743.56.295 1.344.608 2.263.608h.005c.6 0 1.254-.146 1.885-.51.232-.138.465-.305.687-.503l.094-.08-.003.123a5.89 5.89 0 0 1-1.555 3.832c-.943 1.021-2.19 1.626-3.435 1.626v.002h-.007c-.75-.003-1.51-.216-2.257-.714l-.661-.512-.285.838v.002c-.016.026-.028.065-.049.115-.045.097-.11.247-.2.433-.173.37-.437.893-.792 1.486-.531.893-1.259 1.945-2.176 2.886-.002.006-.005.01-.007.01l-.04.039-.035-.038a.055.055 0 0 1-.012-.01c-.915-.942-1.645-1.994-2.174-2.887a18.772 18.772 0 0 1-.796-1.486c-.087-.186-.151-.336-.193-.433-.022-.05-.041-.09-.05-.115v-.002h-.002l-.285-.838-.667.514c-.741.496-1.5.709-2.25.712-.006 0-.01-.002-.01-.002-1.246 0-2.492-.605-3.433-1.626A5.907 5.907 0 0 1 9.14 35.68l-.003-.123.088.08c.228.198.459.365.693.503.63.364 1.284.51 1.885.51H11.812c.915 0 1.698-.312 2.261-.608a8.521 8.521 0 0 0 1.098-.743l-1.07-.756a4.556 4.556 0 0 1-.667.418c-.44.227-1.023.438-1.615.438h-.007c-.41 0-.825-.092-1.258-.338-.415-.247-1.796-1.449-1.796-3.238v-.028c-.811 1.478-.88 2.705-.882 3.388M19.734 16.977h1.761l-.893-12.374zM16.459 27.99c.099.817.28 1.714.597 2.58v-2.58h-.597z"/>
        <path fill="#E11D38" d="M17.712 27.99v3.978c.186.308.396.608.63.89V27.99h-.63zM19.005 27.99v5.542c.194.174.404.336.628.486V27.99h-.628zM20.295 27.99v6.412c.096.052.198.097.304.145.11-.05.216-.103.323-.159V27.99h-.627zM21.585 27.99v6.012c.222-.151.432-.314.627-.486V27.99h-.627zM22.873 27.99v4.843a6.93 6.93 0 0 0 .628-.895V27.99h-.628zM24.743 27.99h-.584v2.535c.311-.856.488-1.733.584-2.535"/>
        <path fill="#015595" d="M17.18 36.436c.175.05.578.105.578.105l1.018-2.404c-.765-.619-1.334-1.367-1.769-2.16-.218.493-1.509 3.404-1.523 3.486-.017.086.031.223.156.293.126.071.386.226.386.226s-.333.628-.65.766c-.312.14-.892.362-1.417.33-.52-.035-.858-.046-.941.382-.143.712.56 1.074.56 1.074s-.28-.778.227-.778h3.199c.195 0 .403.242.21.678.42-.178.58-.522.492-.957-.089-.434-.577-.365-.803-.381-.23-.017-.63-.141-.63-.141l.434-.695s.297.12.472.176"/>
        <path fill="#015595" d="M22.928 21.514s.16.82.49.82c.335 0 1.882-1.399 2.45-1.964.568-.562 2.363-2.188 4.497-2.188 2.133 0 9.762.019 9.762.019s-.263.798-.909.919c-.65.122-4.568.526-4.568.526h4.499s-.457.81-1.124.934c-.663.117-3.583.417-3.583.417h3.46s-.33.849-1.17 1.004c-.84.16-3.586.384-3.586.384h3.305s-.472.8-1.205.955c-.735.157-3.639.45-3.639.45h3.095s-.434.749-1.243.887c-.803.14-3.255.469-3.255.469h2.642s-.645.851-1.557 1.01c-.908.152-2.692.414-2.692.414h1.892s-.825.694-1.47.888c-.648.191-2.346.486-2.346.486h1.382l-2.52 1.491v.245l2.887 2.795s-.435.765-1.207 1.405c-.768.643-1.26.886-1.26.886l-1.481-3.36c.07-.164.142-.324.203-.492.662-1.712.8-3.493.8-4.727 0-.938-.083-1.559-.084-1.567l-.027-.218-4.693-1.07-.067-.02-.073.02-4.688 1.07-.032.218c-.003.008-.086.634-.086 1.591 0 1.233.139 3.014.799 4.719.066.172.14.345.215.514l-1.468 3.322s-.488-.243-1.26-.886a5.821 5.821 0 0 1-1.206-1.405l2.887-2.795v-.245l-2.517-1.491h1.379s-1.697-.295-2.343-.486c-.65-.194-1.47-.888-1.47-.888h1.888s-1.783-.262-2.693-.414c-.909-.159-1.558-1.01-1.558-1.01h2.643s-2.45-.33-3.257-.47c-.802-.137-1.238-.886-1.238-.886h3.095s-2.906-.293-3.639-.45c-.736-.155-1.205-.955-1.205-.955H8.08s-2.743-.224-3.582-.384c-.842-.155-1.176-1.004-1.176-1.004h3.464s-2.922-.3-3.583-.417c-.666-.124-1.122-.934-1.122-.934h4.496s-3.916-.404-4.566-.526c-.648-.121-.905-.92-.905-.92s7.623-.018 9.758-.018c2.133 0 3.927 1.626 4.497 2.188.568.565 2.117 1.963 2.45 1.963.329 0 .79-.601.79-.601.262-.51.553-1.357.553-1.357s-.396-.143-.648-.302c-.248-.153-.382-.419-.382-.419h.98c.245 0 .999.186.93.562-.065.381-.63 2.159-.63 2.159s.593.119 1.185.119c.592 0 1.648-.12 1.648-.12l-.542-3.45c-.053-.354-.592-.47-1.052-.47-.464 0-.83.104-.922.128-.093.027-.12.12.064.224.184.107.394.041.394.041s-.01.223-.182.352c-.172.128-.58.157-.857.157s-.776-.03-.95.014c-.166.038-.262.127-.298.207-.044.077.116.403.116.403s-.278.119-.462-.334c-.182-.463-.056-.873.144-1.007.462-.32 1.45-.121 1.45-.121s.226-.574.843-.822c.618-.249 1.238-.106 1.804-.038.568.062 1.107.038 1.107.038l-.476.796s.389 2.4.509 3.022"/>
        <path fill="#015595" d="M22.019 34.437a6.84 6.84 0 0 1-1.298.71l-.121.054-.125-.053a6.76 6.76 0 0 1-1.272-.694l-.677 1.737s.667.253 2.056.258c0 .002 0 .002.006.002H20.644v-.002c1.394-.005 2.056-.258 2.056-.258l-.681-1.754zM27.267 37.076c-.527.035-1.102-.19-1.416-.329-.316-.138-.646-.765-.646-.765s.26-.156.384-.228c.12-.069.172-.205.158-.293-.02-.081-1.37-3.136-1.543-3.52a7.24 7.24 0 0 1-1.757 2.175l1.023 2.422s.404-.051.576-.103c.178-.053.475-.176.475-.176l.439.695s-.405.122-.629.14c-.229.015-.719-.054-.807.382-.087.437.07.78.49.957-.193-.438.019-.679.21-.679h3.2c.51 0 .23.78.23.78s.698-.361.56-1.077c-.084-.425-.421-.417-.947-.38M24.136 25.588l.128.388-.33-.238-.326.238.126-.388-.33-.235h.408l.122-.38.127.38h.405l-.33.235zm.128 1.508l-.33-.24-.326.24.126-.384-.33-.238h.408l.122-.383.127.383h.405l-.33.238.128.384zm-1.117-1.398l-.328-.235-.323.235.121-.38-.326-.237h.405l.123-.385.125.385h.406l-.328.238.125.379zm-.208 1.398l-.328-.24-.327.24.123-.384-.328-.238h.405l.127-.383.125.383h.404l-.326.238.125.384zm-1.232-1.908l-.33.236.127-.38-.328-.237h.405l.126-.381.124.38h.404l-.324.238.123.38-.327-.236zm-.093 1.908l-.33-.24-.327.24.127-.384-.328-.238h.404l.124-.383.128.383h.405l-.329.238.126.384zm-1.341-1.943l.128-.384-.328-.237h.406l.124-.38.126.38h.405l-.328.237.123.384-.326-.24-.33.24zm-.035 1.943l-.33-.24-.327.24.125-.384-.33-.238h.405l.127-.383.125.383h.405l-.327.238.127.384zm-1.28-2.29h.408l.122-.38.125.38h.404l-.33.238.13.382-.33-.237-.328.237.125-.382-.326-.237zm-.049 2.29l-.323-.24-.333.24.128-.384-.332-.238h.409l.128-.383.123.383h.402l-.325.238.123.384zm-1.066-2.015h.404l.125-.383.126.383h.402l-.324.238.123.38-.327-.236-.328.237.124-.381-.325-.238zm-.382.507l.125.388-.33-.238-.329.238.129-.388-.328-.235h.403l.125-.38.126.38h.407l-.328.235zm.125 1.508l-.33-.24-.329.24.129-.384-.328-.238h.403l.125-.383.126.383h.407l-.328.238.125.384zm7.204-2.183l-4.187-.958-4.19.958a14.164 14.164 0 0 0-.057 1.297c0 .338.01.72.043 1.13h8.405c.03-.42.045-.81.045-1.15 0-.58-.036-1.028-.059-1.277z"/>
        <g transform="translate(159.795 28.464)">
            <mask id="d" fill="#fff">
                <use xlink:href="#c"/>
            </mask>
            <path fill="#015595" d="M2.465.044c.825 0 1.478.663 1.478 1.491 0 .843-.653 1.5-1.482 1.5a1.486 1.486 0 0 1-1.492-1.5C.97.707 1.636.044 2.461.044h.004zm-.004.23C1.796.275 1.26.84 1.26 1.536c0 .709.539 1.267 1.206 1.267.67.007 1.204-.558 1.204-1.258 0-.704-.534-1.27-1.204-1.27H2.46zm-.28 2.132h-.27V.742c.142-.023.276-.043.477-.043.256 0 .417.053.518.127.1.073.156.185.156.345 0 .22-.149.352-.331.405v.012c.149.026.25.16.284.406.037.258.08.358.106.412h-.28c-.04-.054-.08-.207-.114-.426-.04-.212-.15-.292-.361-.292h-.184v.718zm0-.923h.188c.224 0 .412-.079.412-.288 0-.146-.108-.29-.412-.29a.987.987 0 0 0-.187.014v.564z" mask="url(#d)"/>
        </g>
    </g>
</svg>
