<?xml version="1.0" encoding="UTF-8"?>
<svg width="164px" height="48px" viewBox="0 0 164 48" version="1.1" xmlns="http://www.w3.org/2000/svg" xmlns:xlink="http://www.w3.org/1999/xlink">
    <!-- Generator: Sketch 54.1 (76490) - https://sketchapp.com -->
    <title>boyscout</title>
    <desc>Created with Sketch.</desc>
    <defs>
        <polygon id="path-1" points="0.353113129 0.570689655 37.3804898 0.570689655 37.3804898 17.9837931 0.353113129 17.9837931"></polygon>
        <polygon id="path-3" points="0.96936762 0.0436206897 3.94277817 0.0436206897 3.94277817 3.035 0.96936762 3.035"></polygon>
    </defs>
    <g id="Page-1" stroke="none" stroke-width="1" fill="none" fill-rule="evenodd">
        <g id="Client-Logos" transform="translate(-993.000000, -263.000000)">
            <g id="boyscout" transform="translate(993.000000, 263.000000)">
                <path d="M55.5490548,17.7346552 C55.5490548,19.8105172 55.564687,20.057069 55.8130646,20.2553448 C56.0128089,20.4346552 56.7770478,20.6001724 57.4231771,20.6001724 C58.2030482,20.6001724 58.6338011,20.4846552 59.1166611,20.1398276 C59.7801595,19.6605172 60.1779111,18.7881034 60.1779111,17.8812069 C60.1779111,15.9053448 58.6181689,14.6708621 56.1639198,14.6708621 C55.6306894,14.6708621 55.564687,14.7036207 55.564687,15.0656897 L55.564687,15.4105172 C55.564687,16.1863793 55.5490548,16.9605172 55.5490548,17.7346552 L55.5490548,17.7346552 Z M55.5490548,12.8915517 C55.5490548,13.4346552 55.582056,13.7312069 55.582056,13.7967241 C55.582056,14.0122414 55.6636906,14.0605172 55.9971767,14.0605172 L56.6606751,14.045 C58.319421,13.995 59.3146685,12.9725862 59.3146685,11.3415517 C59.3146685,9.97603448 58.1196767,8.95362069 56.5269333,8.95362069 C56.2299222,8.95362069 56.028441,8.98637931 55.8634349,9.06913793 C55.7644312,9.11913793 55.6984288,9.18637931 55.6636906,9.25017241 C55.6150573,9.33293103 55.582056,9.44844828 55.582056,9.5812069 C55.582056,9.67948276 55.564687,9.89327586 55.564687,10.1898276 L55.5490548,11.8536207 L55.5490548,12.8915517 Z M54.3210618,10.1225862 C54.3210618,9.38293103 54.3036927,9.31568966 54.1890569,9.08637931 C54.0223138,8.75534483 53.7565671,8.62431034 53.1938093,8.6087931 C53.0270663,8.6087931 52.9436948,8.54155172 52.9436948,8.42775862 C52.9436948,8.31224138 53.0270663,8.26224138 53.3570786,8.26224138 C53.3570786,8.26224138 54.6024407,8.31224138 54.7865528,8.31224138 C55.1339341,8.31224138 55.8790671,8.27948276 56.327189,8.27948276 C57.0254255,8.27948276 57.8226657,8.31224138 57.8226657,8.31224138 C58.4844271,8.345 59.0662908,8.5087931 59.4814115,8.78982759 C60.2786517,9.30017241 60.6920355,10.1415517 60.6920355,11.1777586 C60.6920355,12.3139655 59.9121644,13.532931 58.9846562,13.945 L58.6685392,14.0777586 C58.6511701,14.095 58.6338011,14.1105172 58.6338011,14.1432759 C58.6338011,14.1760345 58.6685392,14.2105172 58.7345417,14.2415517 L58.9499181,14.307069 C59.2330339,14.3898276 59.3997769,14.457069 59.4640425,14.4898276 C59.9451656,14.6863793 60.4766591,15.0812069 60.8084082,15.4760345 C61.2738992,16.0381034 61.5066447,16.695 61.5066447,17.5036207 C61.5066447,18.5415517 61.1575265,19.4312069 60.4940281,20.0898276 C59.6134164,20.995 58.7171726,21.2760345 56.8256812,21.2760345 C56.643306,21.2760345 56.3792962,21.2760345 55.9798077,21.2587931 C55.6480585,21.2432759 55.3805749,21.2432759 55.1825675,21.2432759 L54.5538073,21.2432759 C54.1890569,21.2432759 53.9389423,21.2587931 53.7739362,21.2760345 C53.5585597,21.2915517 53.3918167,21.2915517 53.273707,21.2915517 C53.0930688,21.2915517 52.976696,21.2260345 52.976696,21.1277586 C52.976696,21.0294828 53.0426985,20.9794828 53.1747034,20.9467241 C53.572455,20.8639655 53.6558265,20.8312069 53.8555708,20.682931 C53.9719435,20.582931 54.0709472,20.4674138 54.1039484,20.3536207 C54.1525818,20.2553448 54.1890569,20.0898276 54.2203212,19.8915517 C54.2706915,19.6122414 54.2863236,19.3656897 54.2863236,19.182931 L54.3384308,12.595 L54.3210618,10.1225862 Z" id="Fill-1" fill="#97A3C3"></path>
                <path d="M74.746737,15.3293103 C74.746737,13.2534483 74.0172362,11.4586207 72.6555013,10.1741379 C71.6446217,9.21896552 70.6493741,8.83793103 69.1382653,8.83793103 C67.8442698,8.83793103 67.0140284,9.10344828 66.1351537,9.77758621 C64.8237891,10.7827586 64.2106611,12.1 64.2106611,13.9448276 C64.2106611,17.7172414 66.7656508,20.9310345 69.7861315,20.9310345 C72.8726147,20.9310345 74.746737,18.8051724 74.746737,15.3293103 L74.746737,15.3293103 Z M69.7687624,21.5068966 C68.0926475,21.5068966 66.6006446,20.9793103 65.737402,20.4206897 C63.9605465,19.2482759 62.9149287,17.0258621 62.9149287,14.4068966 C62.9149287,10.8 65.6210293,8.14655172 69.3032714,8.14655172 C70.8317493,8.14655172 72.2247485,8.49310345 73.2547342,9.1362069 C75.0454849,10.2396552 76.1571052,12.4465517 76.1571052,14.8517241 C76.1571052,15.3793103 76.0911028,15.9224138 75.9920991,16.5155172 C75.7419845,17.8482759 75.3112317,18.7551724 74.4966224,19.6275862 C73.3033675,20.8793103 71.7766266,21.4568966 69.9181364,21.5068966 L69.7687624,21.5068966 Z" id="Fill-3" fill="#97A3C3"></path>
                <path d="M76.4039197,8.55913793 C76.3552863,8.54189655 76.2892838,8.49362069 76.2892838,8.42637931 C76.2892838,8.31086207 76.3709184,8.26258621 76.5532936,8.26258621 C77.1351574,8.26258621 77.7326533,8.27810345 78.4777862,8.27810345 C78.8946438,8.27810345 79.3080276,8.26258621 79.5407731,8.26258621 L79.8725223,8.26258621 C80.0878987,8.26258621 80.1886393,8.31086207 80.1886393,8.41086207 C80.1886393,8.52637931 80.1226369,8.57637931 79.9211557,8.60913793 C79.5737744,8.67465517 79.3080276,8.95396552 79.3080276,9.26775862 C79.3080276,9.4487931 79.5077719,9.95913793 79.7735186,10.4039655 L82.3632465,14.7522414 C82.3771418,14.785 82.4118799,14.8022414 82.4448811,14.8022414 C82.4778823,14.8022414 82.5126205,14.7694828 82.6098872,14.5884483 L85.4479928,9.92637931 C85.6633692,9.58155172 85.7311086,9.3987931 85.7311086,9.15224138 C85.7311086,8.90396552 85.5817346,8.69189655 85.3646212,8.65913793 L85.0502411,8.60913793 C84.9008672,8.59189655 84.8678659,8.55913793 84.8678659,8.45913793 C84.8678659,8.34362069 84.9512375,8.26258621 85.034609,8.26258621 C85.034609,8.26258621 86.3598688,8.32982759 86.4779784,8.32982759 C86.6759858,8.32982759 87.473226,8.26258621 87.6052309,8.26258621 C87.8866098,8.26258621 88.0047194,8.31086207 88.0047194,8.44362069 C88.0047194,8.52637931 87.938717,8.59189655 87.8379764,8.62465517 L87.4558569,8.70741379 C87.1241077,8.77465517 86.8757301,9.08672414 86.262602,10.0591379 L82.8270006,15.5108621 C82.7766303,15.5763793 82.7592612,15.6591379 82.7592612,15.8074138 L82.7279969,19.7108621 C82.7279969,20.435 83.1257485,20.7815517 83.9698852,20.8798276 L84.2686331,20.9125862 C84.4527452,20.9298276 84.5517489,21.0125862 84.5517489,21.1453448 C84.5517489,21.2591379 84.4857465,21.3091379 84.2686331,21.3091379 L83.9872542,21.2918966 C83.9872542,21.2918966 82.2451368,21.2591379 82.0801307,21.2591379 C81.8647543,21.2591379 80.1226369,21.2918966 80.1226369,21.2918966 C80.0218963,21.2918966 79.9385248,21.2263793 79.9385248,21.1608621 C79.9385248,21.0281034 80.0218963,21.0281034 80.3050121,20.9625862 C80.5533897,20.897069 80.8677698,20.7987931 81.0675141,20.6505172 C81.3662621,20.4522414 81.5000039,19.9901724 81.5000039,19.1194828 L81.5000039,15.872931 C81.5000039,15.6418966 81.4652657,15.5936207 81.2498893,15.2298276 L77.9984,9.82810345 C77.6492818,9.26775862 77.5659102,9.06948276 77.3175326,8.88844828 C77.0691549,8.70741379 76.45429,8.57637931 76.4039197,8.55913793" id="Fill-5" fill="#97A3C3"></path>
                <path d="M100.993655,10.8001724 C100.879019,10.8001724 100.826912,10.7501724 100.778279,10.5518966 C100.762646,10.4381034 100.729645,10.2881034 100.679275,10.1087931 C100.514269,9.54844828 100.413528,9.38293103 100.097411,9.18465517 C99.7326607,8.97086207 99.2341685,8.85706897 98.5706701,8.85706897 C97.1933031,8.85706897 96.2640581,9.74672414 96.2640581,11.0794828 C96.2640581,12.0674138 96.9449255,12.957069 98.5376689,14.045 L99.6840273,14.8191379 C101.061394,15.7415517 101.55815,16.6139655 101.55815,17.9484483 C101.55815,20.2553448 100.031409,21.5225862 97.2766747,21.5225862 C96.7295491,21.5225862 96.413432,21.4898276 95.7499337,21.3587931 L95.2688105,21.2587931 C95.1541747,21.2260345 95.1368056,21.1932759 95.1038044,20.9467241 L94.9874317,20.0243103 C94.9700626,19.8587931 94.8866911,19.4467241 94.8866911,19.4467241 C94.8554267,19.282931 94.8050565,18.9863793 94.8050565,18.8053448 C94.8050565,18.6743103 94.8554267,18.6243103 94.9544304,18.6243103 C95.0708032,18.6243103 95.1194366,18.6743103 95.1541747,18.8398276 C95.2688105,19.3001724 95.4181845,19.6294828 95.6682991,19.9415517 C96.1007888,20.5191379 96.878923,20.8156897 97.9749112,20.8156897 C99.4356497,20.8156897 100.4969,19.7777586 100.4969,18.3605172 C100.4969,17.9139655 100.37879,17.4381034 100.215521,17.1587931 C99.9984074,16.8122414 99.4009115,16.2191379 98.8537859,15.8398276 L97.7595347,15.082931 C96.7469181,14.3915517 96.2327937,13.9294828 95.8836755,13.4674138 C95.4859239,12.9743103 95.2861796,12.3312069 95.2861796,11.5743103 C95.2861796,9.51396552 96.6461775,8.17948276 98.7860466,8.17948276 C99.2029042,8.17948276 99.6840273,8.21396552 100.364895,8.31224138 C100.529901,8.32948276 100.646274,8.345 100.712276,8.345 C101.028393,8.37775862 101.094396,8.495 101.094396,8.95534483 L101.094396,9.20189655 C101.094396,9.4812069 101.17603,10.4208621 101.17603,10.6018966 C101.17603,10.732931 101.110028,10.8001724 100.993655,10.8001724" id="Fill-7" fill="#97A3C3"></path>
                <path d="M113.489483,20.7156897 C112.195487,21.2587931 110.833752,21.5553448 109.739501,21.5553448 C105.624769,21.5553448 102.967302,18.9691379 102.967302,14.9674138 C102.967302,13.0053448 103.533534,11.4743103 104.777159,10.157069 C105.656034,9.20189655 106.336901,8.78982759 107.332149,8.44327586 C108.028648,8.19672414 108.759886,8.14672414 109.506756,8.14672414 C110.601007,8.14672414 111.51462,8.26224138 113.00836,8.85706897 C113.308844,8.97086207 113.538116,9.05362069 113.704859,9.10362069 C113.937605,9.15189655 113.986238,9.21913793 113.986238,9.56396552 C113.986238,10.157069 114.020976,10.732931 114.06961,11.3932759 L114.06961,11.4587931 C114.06961,11.6398276 114.003607,11.7053448 113.904603,11.7053448 C113.8056,11.7053448 113.704859,11.6225862 113.538116,11.245 C113.32274,10.7501724 112.560238,9.92603448 112.046113,9.59672414 C111.165502,9.02086207 110.403,8.78982759 109.357382,8.78982759 C108.11202,8.78982759 107.15151,9.08637931 106.288268,9.72775862 C104.876162,10.7501724 104.263034,12.132931 104.263034,14.2915517 C104.263034,17.8174138 106.852762,20.8467241 109.888875,20.8467241 C110.950125,20.8467241 112.160749,20.4674138 112.909356,19.9260345 C113.406111,19.5639655 114.05224,18.6898276 114.236353,18.1622414 C114.352725,17.8174138 114.401359,17.7346552 114.568102,17.7346552 C114.684475,17.7346552 114.750477,17.8812069 114.750477,18.0812069 C114.750477,18.1794828 114.700107,18.4415517 114.634104,18.707069 C114.535101,19.0363793 114.453466,19.4139655 114.453466,19.4139655 L114.352725,19.8932759 C114.269354,20.2708621 114.086979,20.4674138 113.489483,20.7156897" id="Fill-9" fill="#97A3C3"></path>
                <path d="M127.89035,15.3293103 C127.89035,13.2534483 127.160849,11.4586207 125.800851,10.1741379 C124.788234,9.21896552 123.792987,8.83793103 122.281878,8.83793103 C120.987883,8.83793103 120.159378,9.10344828 119.278766,9.77758621 C117.967402,10.7827586 117.356011,12.1 117.356011,13.9448276 C117.356011,17.7172414 119.909264,20.9310345 122.929744,20.9310345 C126.016227,20.9310345 127.89035,18.8051724 127.89035,15.3293103 L127.89035,15.3293103 Z M122.914112,21.5068966 C121.237997,21.5068966 119.744257,20.9793103 118.881015,20.4206897 C117.105896,19.2482759 116.058541,17.0258621 116.058541,14.4068966 C116.058541,10.8 118.764642,8.14655172 122.448621,8.14655172 C123.975362,8.14655172 125.368361,8.49310345 126.398347,9.1362069 C128.190835,10.2396552 129.300718,12.4465517 129.300718,14.8517241 C129.300718,15.3793103 129.234716,15.9224138 129.135712,16.5155172 C128.885597,17.8482759 128.454844,18.7551724 127.641972,19.6275862 C126.448717,20.8793103 124.920239,21.4568966 123.061749,21.5068966 L122.914112,21.5068966 Z" id="Fill-11" fill="#97A3C3"></path>
                <path d="M130.875571,8.21396552 C130.875571,8.21396552 132.303309,8.26224138 132.421418,8.26224138 L133.948159,8.26224138 L134.212169,8.24672414 C134.344174,8.24672414 134.427545,8.29672414 134.427545,8.37775862 C134.427545,8.47603448 134.361543,8.5087931 134.212169,8.52603448 C133.81268,8.5587931 133.463562,8.75706897 133.232554,9.05362069 C133.13355,9.20189655 133.050178,9.35017241 133.01544,9.49844828 C132.951175,9.695 132.900804,9.91051724 132.900804,10.1087931 C132.885172,10.4536207 132.885172,11.3605172 132.885172,12.8260345 L132.900804,16.382931 C132.900804,16.845 132.918174,17.2398276 132.951175,17.5691379 C133.032809,18.5243103 133.546934,19.4812069 134.278171,20.057069 C134.974671,20.6001724 135.870915,20.8312069 137.265651,20.8312069 C138.70902,20.8312069 139.66953,20.5001724 140.367766,19.7932759 C140.980894,19.1674138 141.182376,18.4432759 141.182376,16.8605172 L141.16327,9.91051724 C141.16327,9.03637931 140.966999,8.75706897 140.286132,8.6087931 L139.970015,8.54155172 C139.787639,8.5087931 139.772007,8.495 139.772007,8.395 C139.772007,8.31224138 139.805009,8.27948276 139.937013,8.27948276 L140.402504,8.29672414 C141.099004,8.32948276 141.496756,8.345 141.562758,8.345 C141.731238,8.345 142.078619,8.345 142.625745,8.31224138 L142.957494,8.29672414 C143.124237,8.29672414 143.207609,8.345 143.207609,8.44327586 C143.207609,8.5587931 143.124237,8.62431034 142.809857,8.6587931 C142.326997,8.72431034 142.12899,8.87258621 142.012617,9.33293103 C141.962247,9.51396552 141.929245,9.72775862 141.911876,9.94327586 C141.878875,10.4881034 141.812873,12.0346552 141.793767,13.4191379 L141.74687,16.9760345 C141.712132,18.9536207 141.448122,19.7432759 140.484139,20.5346552 C140.036017,20.9139655 139.572263,21.145 138.974767,21.2587931 C138.328638,21.3915517 137.548767,21.4743103 136.768896,21.4743103 C134.993777,21.4743103 133.715414,21.045 132.852171,20.1553448 C132.452683,19.7277586 132.138302,19.2174138 131.955927,18.6398276 C131.822185,18.2122414 131.740551,17.7846552 131.740551,17.3725862 C131.740551,17.3725862 131.723182,14.7053448 131.723182,14.5053448 L131.756183,10.2225862 C131.756183,9.13637931 131.525174,8.6587931 131.044051,8.59155172 L130.595929,8.52603448 C130.411817,8.495 130.345815,8.46051724 130.345815,8.36224138 C130.345815,8.26224138 130.444818,8.19672414 130.561191,8.19672414 L130.875571,8.21396552 Z" id="Fill-13" fill="#97A3C3"></path>
                <path d="M144.631698,8.47655172 C144.680332,8.26103448 144.699438,8.24724138 144.829706,8.24724138 C144.829706,8.24724138 149.625305,8.33 149.842419,8.33 L154.122157,8.33 L155.002768,8.28 C155.233777,8.28 155.284147,8.3437931 155.284147,8.67482759 C155.284147,8.80586207 155.268515,8.92137931 155.251146,9.02137931 L154.950661,10.2731034 C154.936766,10.3713793 154.853394,10.4368966 154.770023,10.4368966 C154.688388,10.4368966 154.638018,10.3868966 154.638018,10.2886207 C154.638018,10.1731034 154.671019,10.0575862 154.671019,9.91103448 C154.671019,9.54896552 154.638018,9.4662069 154.438274,9.3662069 C154.141263,9.20068966 153.559399,9.13517241 152.48078,9.13517241 C151.916285,9.13517241 151.35179,9.15241379 150.98704,9.18517241 L150.62229,9.21793103 C150.490285,9.23344828 150.422545,9.28344828 150.405176,9.38344828 C150.405176,9.38344828 150.387807,9.71275862 150.387807,9.82827586 L150.387807,19.7937931 C150.387807,20.4196552 150.688292,20.7162069 151.483795,20.8644828 L151.832914,20.93 C151.931917,20.9627586 152.116029,20.9627586 152.116029,21.1265517 C152.116029,21.242069 152.04829,21.3093103 151.900653,21.3093103 L151.568904,21.3093103 L147.817185,21.292069 C147.733814,21.292069 147.553176,21.3093103 147.469804,21.3093103 C147.386432,21.3093103 147.337799,21.2265517 147.337799,21.1265517 C147.337799,21.0937931 147.351694,21.03 147.417697,20.9955172 C147.487173,20.9627586 147.716445,20.93 147.716445,20.93 L148.296572,20.8144828 C148.597056,20.7489655 148.862803,20.5351724 148.944438,20.2886207 C149.045178,20.0075862 149.07818,19.3162069 149.07818,17.9472414 L149.112918,9.68 C149.112918,9.13517241 149.045178,9.10241379 148.147198,9.10241379 C147.817185,9.10241379 147.435066,9.10241379 147.004313,9.11965517 C146.109806,9.15241379 145.691212,9.21793103 145.362936,9.35068966 C145.02945,9.48172414 144.713333,9.8437931 144.464955,10.3868966 C144.414585,10.5024138 144.379847,10.5196552 144.313845,10.5196552 C144.216578,10.5196552 144.164471,10.4868966 144.164471,10.4196552 C144.164471,10.3713793 144.180103,10.3386207 144.199209,10.2886207 L144.348583,9.79551724 L144.497957,9.05413793 L144.631698,8.47655172 Z" id="Fill-15" fill="#97A3C3"></path>
                <path d="M162.735303,10.8001724 C162.61893,10.8001724 162.56856,10.7501724 162.51819,10.5518966 C162.502558,10.4381034 162.46782,10.2881034 162.417449,10.1087931 C162.252443,9.54844828 162.153439,9.38293103 161.837322,9.18465517 C161.472572,8.97086207 160.97408,8.85706897 160.310581,8.85706897 C158.934951,8.85706897 158.003969,9.74672414 158.003969,11.0794828 C158.003969,12.0674138 158.684837,12.957069 160.279317,14.045 L161.422202,14.8191379 C162.799569,15.7415517 163.298061,16.6139655 163.298061,17.9484483 C163.298061,20.2553448 161.77132,21.5225862 159.016586,21.5225862 C158.471197,21.5225862 158.15508,21.4898276 157.489845,21.3587931 L157.010459,21.2587931 C156.894086,21.2260345 156.878454,21.1932759 156.841979,20.9467241 L156.727343,20.0243103 C156.711711,19.8587931 156.626602,19.4467241 156.626602,19.4467241 C156.595338,19.282931 156.544968,18.9863793 156.544968,18.8053448 C156.544968,18.6743103 156.595338,18.6243103 156.694342,18.6243103 C156.812451,18.6243103 156.861085,18.6743103 156.894086,18.8398276 C157.010459,19.3001724 157.159833,19.6294828 157.409947,19.9415517 C157.8407,20.5191379 158.620571,20.8156897 159.714822,20.8156897 C161.175561,20.8156897 162.236811,19.7777586 162.236811,18.3605172 C162.236811,17.9139655 162.120438,17.4381034 161.957169,17.1587931 C161.740056,16.8122414 161.14256,16.2191379 160.595434,15.8398276 L159.501183,15.082931 C158.486829,14.3915517 157.972705,13.9294828 157.625324,13.4674138 C157.224098,12.9743103 157.026091,12.3312069 157.026091,11.5743103 C157.026091,9.51396552 158.387826,8.17948276 160.527695,8.17948276 C160.944552,8.17948276 161.423939,8.21396552 162.104806,8.31224138 C162.269812,8.32948276 162.386185,8.345 162.453924,8.345 C162.770041,8.37775862 162.836044,8.495 162.836044,8.95534483 L162.836044,9.20189655 C162.836044,9.4812069 162.915941,10.4208621 162.915941,10.6018966 C162.915941,10.732931 162.849939,10.8001724 162.735303,10.8001724" id="Fill-17" fill="#97A3C3"></path>
                <path d="M64.6933474,35.9105172 C64.6933474,33.8346552 63.9638466,32.0398276 62.6038487,30.7536207 C61.5912321,29.8001724 60.5959846,29.4191379 59.0848757,29.4191379 C57.7908803,29.4191379 56.9623758,29.6846552 56.0817641,30.3587931 C54.7703995,31.3639655 54.1572715,32.6812069 54.1572715,34.5260345 C54.1572715,38.2984483 56.7122612,41.5122414 59.7327419,41.5122414 C62.8192251,41.5122414 64.6933474,39.3863793 64.6933474,35.9105172 L64.6933474,35.9105172 Z M59.7153729,42.0881034 C58.0409948,42.0881034 56.5472551,41.5605172 55.6840125,41.0018966 C53.9088938,39.8294828 52.8615391,37.607069 52.8615391,34.9881034 C52.8615391,31.3812069 55.5676397,28.7277586 59.2498819,28.7277586 C60.7783598,28.7277586 62.1730958,29.0743103 63.1996077,29.7174138 C64.9920954,30.8208621 66.1037156,33.0277586 66.1037156,35.432931 C66.1037156,35.9587931 66.0377132,36.5036207 65.9387095,37.0967241 C65.6903319,38.4294828 65.2578421,39.3363793 64.4449698,40.2087931 C63.249978,41.4605172 61.7249739,42.0381034 59.8647468,42.0881034 L59.7153729,42.0881034 Z" id="Fill-19" fill="#97A3C3"></path>
                <path d="M75.0621593,28.8598276 C75.2132701,28.8598276 75.2619035,28.9753448 75.2792726,29.2546552 L75.327906,30.6391379 C75.345275,30.852931 75.3626441,31.0167241 75.3626441,31.165 C75.3626441,31.3477586 75.2966417,31.4787931 75.1959011,31.4787931 C75.0812652,31.4787931 75.0152628,31.3632759 74.9978937,31.1494828 C74.9318912,30.4236207 74.5966683,29.8822414 74.1016499,29.6994828 C73.9036425,29.6339655 73.670897,29.5839655 73.4051503,29.5684483 C72.8910259,29.5512069 71.8940415,29.5356897 71.2149109,29.5356897 L70.4003017,29.5512069 C70.0355513,29.5684483 70.0025501,29.6012069 70.0025501,29.8305172 L69.9382845,34.5581034 C69.9382845,34.6908621 69.9869179,34.7736207 70.0685525,34.7736207 L72.9570284,34.7408621 C73.2366703,34.7408621 73.4537837,34.6908621 73.5527873,34.6081034 C73.6031576,34.5581034 73.651791,34.4443103 73.7212673,34.2460345 C73.7699007,34.1132759 73.801165,33.9839655 73.8185341,33.8667241 C73.8359031,33.6856897 73.8845365,33.602931 73.9852771,33.602931 C74.1016499,33.602931 74.1659154,33.7184483 74.1659154,33.9339655 C74.1016499,34.8563793 74.1016499,34.9546552 74.1016499,35.0374138 C74.1016499,35.465 74.1520201,36.0925862 74.2006535,36.4201724 C74.2336548,36.6339655 74.266656,36.8322414 74.266656,36.8822414 C74.266656,37.0132759 74.2006535,37.0960345 74.0860177,37.0960345 C73.9852771,37.0960345 73.9192747,36.965 73.8359031,36.5684483 C73.6222636,35.6477586 73.4364146,35.4822414 72.4932743,35.465 C72.4932743,35.465 71.548397,35.4477586 71.3312837,35.4477586 L70.2509277,35.415 C70.153661,35.415 70.0859216,35.415 70.0216561,35.4477586 C69.9382845,35.4822414 69.9191786,35.5977586 69.9191786,35.9753448 L69.9191786,39.4356897 C69.9191786,40.4391379 69.9695489,40.8356897 70.134555,41.115 C70.2682968,41.3460345 70.6156781,41.4943103 71.1645407,41.5287931 C71.4302874,41.5425862 71.548397,41.6098276 71.548397,41.7253448 C71.548397,41.8236207 71.4962898,41.8736207 71.3139146,41.8736207 L67.416296,41.8736207 C67.3641888,41.8736207 67.3155554,41.8236207 67.3155554,41.7581034 C67.3155554,41.6581034 67.3641888,41.6098276 67.5309319,41.5925862 C67.9443157,41.5425862 68.2256945,41.4460345 68.3924376,41.2460345 C68.4931782,41.1322414 68.62692,40.9184483 68.6425521,40.702931 C68.6581843,40.5563793 68.6755534,40.2908621 68.6755534,39.9132759 L68.6911855,38.7425862 L68.6911855,37.327069 L68.7589249,31.6943103 C68.7589249,31.1167241 68.7415558,30.5391379 68.7085546,30.177069 C68.6581843,29.5356897 68.3768054,29.2046552 67.8296798,29.1891379 C67.4979306,29.1891379 67.3641888,29.1236207 67.3641888,29.0081034 C67.3641888,28.9098276 67.4979306,28.8425862 67.6976749,28.8425862 L74.749516,28.8598276 L75.0621593,28.8598276 Z" id="Fill-21" fill="#97A3C3"></path>
                <path d="M88.3027726,31.1665517 C88.2854035,31.1165517 88.2541392,31.1010345 88.221138,31.1010345 C88.1863998,31.1010345 88.1360296,31.1337931 88.1047652,31.1837931 L86.4946527,35.0855172 C86.4442824,35.2182759 86.4112812,35.3510345 86.4112812,35.432069 C86.4112812,35.5303448 86.4790206,35.582069 86.6440267,35.5975862 L89.615874,35.582069 C89.8312505,35.582069 89.9128851,35.5148276 89.9128851,35.3665517 C89.9128851,35.3337931 89.9128851,35.3010345 89.8972529,35.2682759 L88.4035132,31.3958621 L88.3027726,31.1665517 Z M88.1221343,29.2717241 L88.2541392,28.8941379 C88.3027726,28.7613793 88.370512,28.7131034 88.5025169,28.7131034 C88.6171527,28.7131034 88.6848921,28.7768966 88.7335255,28.9096552 L88.9506388,29.5027586 C89.7131408,31.5786207 90.5607513,33.7682759 91.4882595,36.0924138 C92.3358699,38.2493103 92.8499943,39.5010345 92.9819992,39.8475862 L93.2147447,40.4734483 C93.2147447,40.4734483 93.4787545,41.082069 93.6628666,41.2303448 C93.7792394,41.3303448 93.9268764,41.4113793 94.2099922,41.4613793 C94.5087402,41.5113793 94.5921117,41.5441379 94.5921117,41.6906897 C94.5921117,41.7906897 94.5278461,41.8562069 94.4271056,41.8562069 L91.0088732,41.8562069 C90.826498,41.8562069 90.7587586,41.807931 90.7587586,41.707931 C90.7587586,41.5924138 90.8594992,41.5286207 91.1078769,41.5113793 C91.5386297,41.4613793 91.8200086,41.132069 91.8200086,40.6717241 C91.8200086,40.5406897 91.7713752,40.357931 91.6567394,39.9631034 L90.3280058,36.42 C90.2776355,36.2717241 90.2272652,36.2389655 90.1282615,36.2389655 L89.9458863,36.2389655 C89.2493867,36.2389655 88.5546241,36.2062069 87.8546507,36.2062069 L86.1785357,36.2234483 C86.0969011,36.2234483 86.0465308,36.2389655 86.0135296,36.257931 C85.9805284,36.2717241 85.9475271,36.3234483 85.9145259,36.4044828 L84.5197898,39.8958621 C84.405154,40.1924138 84.3217825,40.5406897 84.3217825,40.7372414 C84.3217825,40.9182759 84.4225231,41.1493103 84.5371589,41.2803448 C84.6517947,41.3958621 84.6882698,41.4113793 85.0842845,41.4941379 C85.3674003,41.5613793 85.4507718,41.6113793 85.4507718,41.7268966 C85.4507718,41.7906897 85.3674003,41.8734483 85.2840288,41.8734483 L84.9210153,41.8562069 C84.9210153,41.8562069 84.1237751,41.8234483 83.8423962,41.8234483 C83.7069175,41.8234483 82.3139183,41.8906897 82.3139183,41.8906897 C82.1645444,41.8906897 82.0811729,41.8406897 82.0811729,41.7268966 C82.0811729,41.5768966 82.1645444,41.5113793 82.4302911,41.4113793 C82.9114142,41.2303448 83.1424228,40.9510345 83.4429077,40.2424138 L87.2762607,31.2665517 L88.1221343,29.2717241 Z" id="Fill-23" fill="#97A3C3"></path>
                <path d="M107.101661,32.697931 C107.086029,32.5996552 107.054765,32.5324138 107.002657,32.5324138 C106.969656,32.5324138 106.921023,32.5668966 106.905391,32.6151724 L106.637907,33.16 C106.075149,34.3117241 105.510654,35.6462069 104.880157,37.1789655 C103.966544,39.4186207 103.351679,40.8858621 103.01993,41.5444828 L102.837555,41.9065517 C102.804554,41.972069 102.736815,42.0375862 102.686444,42.0375862 C102.587441,42.0375862 102.538807,41.972069 102.505806,41.8910345 L102.257428,41.3634483 C101.791937,40.3910345 101.145808,38.9255172 100.332936,36.9324138 C99.5860658,35.1031034 99.0042021,33.7513793 98.5387111,32.8634483 L98.3094394,32.4168966 C98.2573322,32.3531034 98.2086988,32.3031034 98.1913297,32.3031034 C98.1426963,32.3031034 98.1079582,32.3358621 98.092326,32.3686207 L98.0419558,32.6824138 L97.4618289,39.7651724 L97.4444599,40.4565517 C97.4444599,40.7858621 97.4618289,40.9186207 97.5608326,41.0824138 C97.7102066,41.3134483 97.8752127,41.3789655 98.7210863,41.5117241 C98.8878293,41.5289655 98.9555687,41.5755172 98.9555687,41.6910345 C98.9555687,41.8082759 98.8548281,41.8737931 98.6724529,41.8737931 L98.0089545,41.8565517 C97.628572,41.8410345 97.0953416,41.8410345 96.7635924,41.8410345 C96.4162111,41.8410345 96.1348322,41.8410345 95.9177189,41.8565517 L95.6346031,41.8737931 C95.486966,41.8737931 95.4539648,41.8410345 95.4539648,41.7410345 C95.4539648,41.6427586 95.5355994,41.5927586 95.7509758,41.5444828 C96.2494681,41.4272414 96.4804766,41.197931 96.5655851,40.7048276 L96.6645888,40.0617241 C96.69759,39.8806897 96.9980748,36.8996552 96.9980748,36.8996552 L97.4618289,31.71 C97.5782017,30.4910345 97.609466,29.9151724 97.609466,29.4858621 L97.609466,29.3375862 C97.609466,28.8427586 97.6772053,28.6444828 97.8595805,28.6444828 C97.9915855,28.6444828 98.0766939,28.7617241 98.1913297,29.0582759 L99.153576,31.4462069 C99.452324,32.1703448 102.787185,39.5824138 102.787185,39.5824138 C102.802817,39.6496552 102.854924,39.6996552 102.886188,39.6996552 C102.938296,39.6996552 102.96956,39.6496552 103.004298,39.5824138 L103.466315,38.4962069 C103.83454,37.6393103 104.447668,36.2565517 105.293541,34.3617241 C106.288789,32.1548276 107.018289,30.4255172 107.499413,29.1893103 L107.617522,28.8927586 C107.683525,28.7289655 107.749527,28.6634483 107.848531,28.6634483 C107.966641,28.6634483 108.046538,28.7772414 108.065644,28.9755172 L108.197649,31.2168966 C108.197649,31.2168966 108.296653,32.797931 108.312285,32.9789655 L108.696141,39.5668966 C108.762144,40.8513793 109.043523,41.3289655 109.790393,41.4462069 C110.071771,41.4789655 110.205513,41.5617241 110.205513,41.6910345 C110.205513,41.8237931 110.10651,41.8737931 109.858132,41.8737931 L109.790393,41.8737931 C109.790393,41.8737931 108.347023,41.8565517 108.23065,41.8565517 C108.098645,41.8565517 107.070397,41.8910345 107.070397,41.8910345 C106.969656,41.8910345 106.504165,41.9065517 106.486796,41.9065517 C106.37216,41.9065517 106.306158,41.8410345 106.306158,41.7410345 C106.306158,41.6427586 106.37216,41.5927586 106.538903,41.5289655 C107.150294,41.3134483 107.499413,40.8858621 107.499413,40.3565517 C107.499413,40.1927586 107.485517,39.9134483 107.468148,39.5186207 L107.400409,38.2324138 L107.101661,32.697931 Z" id="Fill-25" fill="#97A3C3"></path>
                <path d="M114.220547,29.6015517 C113.970432,29.617069 113.90443,29.6498276 113.90443,29.7981034 L113.890534,30.2774138 L113.890534,34.1308621 L113.890534,34.542931 C113.890534,34.7067241 113.90443,34.7239655 114.039908,34.7239655 L116.544528,34.7239655 C117.473773,34.7239655 117.689149,34.6084483 117.78989,34.0325862 C117.838523,33.7687931 117.888894,33.6860345 118.007003,33.6860345 C118.088638,33.6860345 118.139008,33.7515517 118.139008,33.867069 L118.088638,34.4274138 L118.088638,35.3325862 L118.187642,36.5032759 L118.187642,36.7498276 C118.187642,36.8325862 118.15464,36.8825862 118.073006,36.8825862 C117.954896,36.8825862 117.906263,36.7998276 117.855892,36.4205172 C117.755152,35.7946552 117.456404,35.5308621 116.808538,35.5153448 C116.808538,35.5153448 116.179777,35.4981034 115.200162,35.4825862 C114.917046,35.4825862 114.071173,35.5308621 114.071173,35.5308621 L113.956537,35.5308621 C113.923536,35.5481034 113.90443,35.5981034 113.90443,35.6463793 L113.970432,39.617069 C113.987801,40.9343103 114.121543,41.1653448 114.866676,41.1981034 C115.681285,41.2463793 115.747288,41.2463793 115.832396,41.2463793 C116.759904,41.2463793 117.855892,41.1481034 118.139008,41.0325862 C118.420387,40.917069 118.802507,40.6222414 118.984882,40.3739655 C119.101255,40.2084483 119.200258,40.0118966 119.299262,39.6825862 C119.332263,39.5498276 119.367001,39.517069 119.448636,39.517069 C119.54764,39.517069 119.599747,39.5498276 119.599747,39.6653448 C119.599747,39.8136207 119.499006,40.2584483 119.400002,40.6377586 L119.200258,41.3463793 C119.101255,41.8084483 119.035252,41.8739655 118.719135,41.8739655 L118.422124,41.8739655 C118.140745,41.8739655 117.225395,41.8412069 115.716023,41.8412069 C113.676895,41.8412069 112.198787,41.8739655 111.766298,41.8894828 L111.451917,41.9067241 C111.368546,41.9067241 111.319913,41.8567241 111.319913,41.7912069 C111.319913,41.6912069 111.370283,41.642931 111.702032,41.5756897 C111.900039,41.5274138 112.216156,41.3946552 112.36553,41.2808621 C112.547906,41.1481034 112.613908,40.9515517 112.631277,40.4567241 L112.646909,39.6825862 L112.646909,34.1963793 C112.646909,34.1963793 112.613908,30.8687931 112.596539,30.6722414 C112.563538,30.0791379 112.530537,29.6843103 112.36553,29.4532759 C112.266527,29.3205172 112.099784,29.2394828 111.851406,29.2222414 L111.451917,29.1894828 C111.352914,29.1722414 111.286911,29.1239655 111.286911,29.0256897 C111.286911,28.9256897 111.385915,28.8601724 111.552658,28.8601724 C111.552658,28.8601724 114.986523,28.9256897 115.069894,28.9256897 C118.920616,28.842931 118.953617,28.842931 118.986619,28.842931 C119.116887,28.842931 119.201995,28.9756897 119.201995,29.1239655 L119.201995,29.255 C119.184626,29.3705172 119.184626,29.4860345 119.184626,29.617069 C119.184626,29.9636207 119.219364,30.342931 119.252365,30.6394828 C119.267998,30.7377586 119.28363,30.8205172 119.28363,30.8860345 C119.28363,31.0687931 119.219364,31.1481034 119.118624,31.1481034 C119.036989,31.1481034 118.986619,31.1015517 118.937985,30.9687931 L118.837245,30.6567241 C118.571498,29.7998276 118.158114,29.567069 116.945753,29.567069 L114.87015,29.567069 L114.220547,29.6015517 Z" id="Fill-27" fill="#97A3C3"></path>
                <path d="M123.212165,34.8387931 C123.212165,35.087069 123.363276,35.1525862 123.927771,35.1525862 C126.151011,35.1525862 127.379004,34.1646552 127.379004,32.3853448 C127.379004,30.6387931 126.11801,29.5025862 124.158779,29.5025862 C123.361539,29.5025862 123.246903,29.6336207 123.246903,30.4905172 L123.212165,34.8387931 Z M122.4514,41.8077586 C122.4514,41.8077586 120.872552,41.8732759 120.657176,41.8732759 C120.573804,41.8732759 120.525171,41.8232759 120.525171,41.7405172 C120.525171,41.6594828 120.573804,41.5922414 120.709283,41.5612069 L121.122667,41.4456897 C121.487417,41.3456897 121.720162,41.0663793 121.801797,40.6543103 C121.885169,40.2267241 121.919907,39.4353448 121.935539,38.0681034 L122.001541,29.9146552 C121.96854,29.5681034 121.768796,29.2715517 121.53605,29.2387931 L121.056664,29.1577586 C120.938554,29.1405172 120.80655,29.1077586 120.78918,29.0905172 C120.740547,29.075 120.709283,29.0077586 120.709283,28.9422414 C120.709283,28.8094828 120.823919,28.7612069 120.990662,28.7612069 C121.074033,28.7612069 121.388413,28.7767241 121.388413,28.7767241 C121.388413,28.7767241 123.314643,28.8422414 123.41191,28.8422414 C124.923018,28.8267241 125.603886,28.8267241 125.619518,28.8267241 C127.379004,28.8267241 128.657368,30.1439655 128.657368,31.9232759 C128.657368,33.0939655 128.242247,34.0491379 127.478008,34.6422414 L126.614765,35.3181034 C126.614765,35.3181034 127.742018,37.5905172 128.391621,38.6784483 C128.822374,39.4025862 129.569244,40.4732759 129.569244,40.4732759 L129.885361,40.8681034 C130.100737,41.1318966 130.53149,41.3284483 131.062983,41.4456897 L131.425997,41.5284483 C131.577108,41.5612069 131.610109,41.5922414 131.610109,41.675 C131.610109,41.7905172 131.577108,41.8077586 131.375627,41.8232759 L131.179356,41.8405172 C131.179356,41.8405172 129.402501,41.8905172 129.185387,41.8905172 C128.737265,41.8905172 128.405516,41.5284483 128.172771,41.0991379 L127.80802,40.4732759 C127.526641,39.9939655 127.12889,39.237069 126.630398,38.2008621 C126.182276,37.2767241 125.867896,36.6025862 125.668151,36.1577586 L125.567411,35.9439655 C125.487513,35.762931 125.286032,35.6301724 124.954283,35.6301724 C124.457527,35.6301724 123.708921,35.662931 123.41191,35.6956897 C123.212165,35.712931 123.177427,35.7956897 123.177427,36.0422414 L123.161795,39.287069 C123.161795,40.0267241 123.177427,40.4232759 123.229534,40.7043103 C123.297274,41.0491379 123.642918,41.3784483 123.976404,41.4456897 L124.488792,41.5439655 C124.705905,41.5922414 124.756275,41.6094828 124.756275,41.725 C124.756275,41.8232759 124.705905,41.8732759 124.589532,41.8732759 L124.240414,41.8560345 C124.240414,41.8560345 123.031527,41.8077586 122.581668,41.8077586 L122.4514,41.8077586 Z" id="Fill-29" fill="#97A3C3"></path>
                <path d="M135.109281,39.815 C135.12665,40.7701724 135.177021,41.0339655 135.439294,41.2477586 C135.590404,41.3632759 135.871783,41.4615517 136.236534,41.5287931 C136.438015,41.5615517 136.537019,41.6253448 136.537019,41.7253448 C136.537019,41.8236207 136.469279,41.8908621 136.372012,41.8908621 L136.088897,41.8736207 C135.673776,41.8563793 135.02591,41.8236207 134.197405,41.8236207 C133.598172,41.8236207 133.151787,41.8563793 132.85304,41.8736207 L132.620294,41.8908621 C132.52129,41.8908621 132.455288,41.8236207 132.455288,41.7253448 C132.455288,41.6115517 132.52129,41.5443103 132.85304,41.4615517 C133.186526,41.3632759 133.448799,41.165 133.584277,40.8856897 C133.766652,40.5063793 133.766652,40.3098276 133.782285,37.5908621 L133.797917,30.9512069 C133.797917,30.6391379 133.782285,30.3598276 133.749283,30.1115517 C133.698913,29.6494828 133.4818,29.3374138 133.186526,29.2546552 C133.051047,29.2218966 132.653295,29.1563793 132.653295,29.1563793 C132.536922,29.1408621 132.503921,29.0908621 132.503921,29.0253448 C132.503921,28.8925862 132.569924,28.8425862 132.769668,28.8425862 C133.101417,28.8425862 133.58254,28.877069 133.96466,28.877069 L134.595157,28.877069 C135.359396,28.877069 135.82315,28.877069 136.337274,28.8425862 C136.469279,28.8425862 136.50228,28.877069 136.50228,28.9753448 C136.50228,29.0908621 136.403277,29.1736207 136.139267,29.2218966 C135.790149,29.3046552 135.524402,29.452931 135.375028,29.6494828 C135.276024,29.7667241 135.223917,29.915 135.192653,30.0615517 C135.109281,30.4908621 135.060648,31.727069 135.060648,33.0943103 L135.060648,37.4908621 L135.109281,39.815 Z" id="Fill-31" fill="#97A3C3"></path>
                <path d="M148.500832,41.2967241 C147.206836,41.8398276 145.845102,42.1363793 144.75085,42.1363793 C140.634381,42.1363793 137.978651,39.5501724 137.978651,35.5484483 C137.978651,33.5863793 138.544883,32.0553448 139.788508,30.7381034 C140.667383,29.782931 141.34825,29.3708621 142.343498,29.0243103 C143.039997,28.7777586 143.771235,28.7277586 144.516368,28.7277586 C145.612356,28.7277586 146.524232,28.8432759 148.019709,29.4381034 C148.318457,29.5518966 148.549465,29.6346552 148.716208,29.6846552 C148.948954,29.732931 148.997587,29.8001724 148.997587,30.145 C148.997587,30.7381034 149.030588,31.3139655 149.080959,31.9725862 L149.080959,32.0398276 C149.080959,32.2208621 149.014956,32.2863793 148.914216,32.2863793 C148.815212,32.2863793 148.716208,32.2036207 148.549465,31.8260345 C148.334089,31.3312069 147.571587,30.507069 147.057462,30.1777586 C146.176851,29.6018966 145.412612,29.3708621 144.366994,29.3708621 C143.121632,29.3708621 142.161122,29.6674138 141.299617,30.3087931 C139.887512,31.3312069 139.274384,32.7139655 139.274384,34.8725862 C139.274384,38.3984483 141.862374,41.4277586 144.898487,41.4277586 C145.961474,41.4277586 147.173835,41.0484483 147.918968,40.507069 C148.41746,40.145 149.06359,39.2708621 149.247702,38.7432759 C149.362338,38.3984483 149.412708,38.3156897 149.579451,38.3156897 C149.695824,38.3156897 149.761826,38.4622414 149.761826,38.6605172 C149.761826,38.7605172 149.709719,39.0225862 149.645453,39.2881034 C149.54645,39.6174138 149.464815,39.995 149.464815,39.995 L149.362338,40.4743103 C149.280703,40.8518966 149.098328,41.0484483 148.500832,41.2967241" id="Fill-33" fill="#97A3C3"></path>
                <path d="M156.895302,31.1665517 C156.87967,31.1165517 156.846668,31.1010345 156.81193,31.1010345 C156.780666,31.1010345 156.730296,31.1337931 156.697294,31.1837931 L155.087182,35.0855172 C155.036812,35.2182759 155.00381,35.3510345 155.00381,35.432069 C155.00381,35.5303448 155.069813,35.582069 155.236556,35.5975862 L158.206666,35.582069 C158.42378,35.582069 158.507151,35.5148276 158.507151,35.3665517 C158.507151,35.3337931 158.507151,35.3010345 158.488045,35.2682759 L156.997779,31.3958621 L156.895302,31.1665517 Z M156.714664,29.2717241 L156.844932,28.8941379 C156.895302,28.7613793 156.961304,28.7131034 157.093309,28.7131034 C157.213156,28.7131034 157.277421,28.7768966 157.326055,28.9096552 L157.543168,29.5027586 C158.30567,31.5786207 159.153281,33.7682759 160.080789,36.0924138 C160.926662,38.2493103 161.440787,39.5010345 161.576265,39.8475862 L161.807274,40.4734483 C161.807274,40.4734483 162.073021,41.082069 162.255396,41.2303448 C162.370032,41.3303448 162.521143,41.4113793 162.802521,41.4613793 C163.101269,41.5113793 163.182904,41.5441379 163.182904,41.6906897 C163.182904,41.7906897 163.118638,41.8562069 163.017898,41.8562069 L159.601402,41.8562069 C159.41729,41.8562069 159.353025,41.807931 159.353025,41.707931 C159.353025,41.5924138 159.452028,41.5286207 159.698669,41.5113793 C160.131159,41.4613793 160.414275,41.132069 160.414275,40.6717241 C160.414275,40.5406897 160.363904,40.357931 160.247532,39.9631034 L158.918798,36.42 C158.870165,36.2717241 158.819794,36.2389655 158.720791,36.2389655 L158.538416,36.2389655 C157.841916,36.2389655 157.145416,36.2062069 156.44718,36.2062069 L154.771065,36.2234483 C154.68943,36.2234483 154.640797,36.2389655 154.606059,36.257931 C154.573058,36.2717241 154.541793,36.3234483 154.505318,36.4044828 L153.110582,39.8958621 C152.995946,40.1924138 152.914312,40.5406897 152.914312,40.7372414 C152.914312,40.9182759 153.013315,41.1493103 153.129688,41.2803448 C153.246061,41.3958621 153.279062,41.4113793 153.675077,41.4941379 C153.95993,41.5613793 154.041564,41.6113793 154.041564,41.7268966 C154.041564,41.7906897 153.95993,41.8734483 153.876558,41.8734483 L153.511808,41.8562069 C153.511808,41.8562069 152.714567,41.8234483 152.433189,41.8234483 C152.299447,41.8234483 150.906448,41.8906897 150.906448,41.8906897 C150.755337,41.8906897 150.673702,41.8406897 150.673702,41.7268966 C150.673702,41.5768966 150.755337,41.5113793 151.021083,41.4113793 C151.503943,41.2303448 151.734952,40.9510345 152.0337,40.2424138 L155.867053,31.2665517 L156.714664,29.2717241 Z" id="Fill-35" fill="#97A3C3"></path>
                <path d="M33.6952949,40.5862069 L33.8863546,40.5862069 C34.1052049,40.5862069 34.2927908,40.5068966 34.2927908,40.3017241 C34.2927908,40.1586207 34.1851026,40.0137931 33.8863546,40.0137931 C33.8029831,40.0137931 33.7421914,40.0206897 33.6952949,40.0258621 L33.6952949,40.5862069 Z M33.6952949,41.5 L33.4295482,41.5 L33.4295482,39.8482759 C33.5702376,39.8310345 33.7005056,39.8103448 33.9002499,39.8103448 C34.1521014,39.8103448 34.3188444,39.862069 34.4178481,39.9344828 C34.5168518,40.0068966 34.568959,40.1189655 34.568959,40.2775862 C34.568959,40.4931034 34.4247957,40.6241379 34.2441574,40.6775862 L34.2441574,40.6913793 C34.3900576,40.7189655 34.4890613,40.8482759 34.5237994,41.0931034 C34.5620113,41.3482759 34.6019602,41.4482759 34.6297507,41.5 L34.3518456,41.5 C34.3101599,41.4465517 34.2719479,41.2982759 34.2389467,41.0810345 C34.1989978,40.8689655 34.0930465,40.7913793 33.879407,40.7913793 L33.6952949,40.7913793 L33.6952949,41.5 Z M33.9732,39.387931 C33.3166492,39.387931 32.781682,39.9482759 32.781682,40.6396552 C32.781682,41.3431034 33.3166492,41.8948276 33.9801476,41.8948276 C34.643646,41.9034483 35.1734025,41.3431034 35.1734025,40.6431034 C35.1734025,39.9482759 34.643646,39.387931 33.9801476,39.387931 L33.9732,39.387931 Z M33.9801476,39.1586207 C34.7947568,39.1586207 35.4460968,39.8137931 35.4460968,40.6396552 C35.4460968,41.4758621 34.7947568,42.1258621 33.9732,42.1258621 C33.1568538,42.1258621 32.4950924,41.4758621 32.4950924,40.6396552 C32.4950924,39.8137931 33.1568538,39.1586207 33.9732,39.1586207 L33.9801476,39.1586207 Z" id="Fill-37" fill="#97A3C3"></path>
                <polygon id="Fill-39" fill="#97A3C3" points="4.38673152 22.9010345 4.9269095 24.557931 6.67944834 24.557931 5.2638694 25.5803448 5.80404737 27.2355172 4.38673152 26.2148276 2.96941567 27.2355172 3.50959365 25.5803448 2.09054088 24.557931 3.84307973 24.557931"></polygon>
                <polygon id="Fill-41" fill="#97A3C3" points="36.7501664 22.9010345 37.2920813 24.557931 39.0446201 24.557931 37.6255673 25.5803448 38.1674822 27.2355172 36.7501664 26.2148276 35.3328505 27.2355172 35.8730285 25.5803448 34.4539757 24.557931 36.2082515 24.557931"></polygon>
                <path d="M8.19298883,25.7146552 C6.77740988,26.5939655 6.00101259,27.7318966 5.60152406,28.6905172 C5.45041317,29.0474138 5.35140949,29.3801724 5.28193323,29.6681034 L5.26456416,29.7422414 L5.20377242,29.7008621 C4.73480762,29.3853448 4.12689028,28.9215517 3.53807892,28.2991379 C2.37087762,27.0732759 1.26273116,25.2732759 1.25752044,22.762931 C1.26446807,21.762931 1.46421233,20.8887931 1.81333058,20.1284483 L0.97440465,19.0163793 C0.37169803,20.062931 0,21.3094828 0,22.7474138 L0,22.7698276 L0,22.7715517 C0,25.7560345 1.38952535,27.9163793 2.75299709,29.2939655 C4.11820575,30.6732759 5.47820368,31.3560345 5.51815253,31.375 L6.61240375,31.8974138 C6.5498751,31.6991379 6.43350236,31.275 6.43350236,30.7267241 C6.43350236,30.2715517 6.51340006,29.7318966 6.76004081,29.1732759 C7.09005308,28.4353448 7.64933704,27.562931 8.76095731,26.8405172 C9.03712548,26.6732759 9.28897695,26.5698276 9.42271876,26.5215517 C9.11181246,26.3232759 8.38231166,25.8336207 8.19298883,25.7146552" id="Fill-43" fill="#97A3C3"></path>
                <path d="M38.4565035,29.2925862 C39.8112907,27.9167241 41.2042899,25.7581034 41.2042899,22.7736207 L41.2042899,22.765 L41.2042899,22.7477586 C41.2042899,21.3081034 40.8360657,20.0632759 40.2316221,19.0184483 L39.39617,20.1287931 C39.7400775,20.8891379 39.9432956,21.7632759 39.9450325,22.765 C39.9432956,25.2736207 38.8368861,27.0736207 37.666211,28.2994828 C37.0756627,28.9236207 36.4694823,29.3856897 36.0057282,29.6994828 L35.9431995,29.7425862 L35.9223567,29.6684483 C35.8546173,29.3787931 35.7556136,29.0460345 35.6079765,28.6908621 C35.2067511,27.7305172 34.4303538,26.5925862 33.0113011,25.715 C32.8237151,25.8339655 32.0924774,26.3236207 31.783308,26.5218966 C31.9187867,26.5701724 32.1689013,26.6718966 32.4468064,26.8425862 C33.5619005,27.5615517 34.1055523,28.4391379 34.4425122,29.1718966 C34.6891529,29.7012069 34.762103,30.2339655 34.762103,30.6925862 C34.762103,31.2494828 34.6526779,31.6977586 34.593623,31.9012069 L35.6878743,31.377069 C35.72956,31.3563793 37.0912949,30.6753448 38.4565035,29.2925862" id="Fill-45" fill="#97A3C3"></path>
                <g id="Group-49" transform="translate(1.736907, 0.153966)">
                    <mask id="mask-2" fill="white">
                        <use xlink:href="#path-1"></use>
                    </mask>
                    <g id="Clip-48"></g>
                    <path d="M26.2608132,17.1941379 C26.5057171,17.0631034 26.8635198,16.8837931 27.3203263,16.7062069 C28.237413,16.3562069 29.5539883,15.9941379 31.122415,15.9941379 L31.1397841,15.9941379 C32.4511486,15.9941379 34.0942624,16.4596552 35.4403651,17.3924138 L37.3804898,17.3924138 C37.1234276,17.1251724 36.8420487,16.8768966 36.5519853,16.6510345 C34.8880287,15.3631034 32.8506372,14.7493103 31.1241519,14.7458621 C28.8783316,14.7493103 27.1153713,15.3889655 26.11665,15.8648276 L26.0558582,15.8941379 L26.0436999,15.8251724 C25.5851565,13.3286207 24.4874315,11.082069 23.212542,8.78896552 C21.8021738,6.2562069 20.1729553,3.65275862 18.8650646,0.57 C17.5606476,3.65275862 15.9279554,6.2562069 14.5210609,8.78896552 C13.2479084,11.082069 12.1467095,13.3286207 11.6881661,15.8251724 L11.6777447,15.8941379 L11.616953,15.8648276 C10.6182316,15.3889655 8.85527135,14.7493103 6.61118791,14.7458621 C4.88122885,14.7493103 2.84383731,15.3631034 1.18161762,16.6510345 C0.893291108,16.8768966 0.613649131,17.1251724 0.353113129,17.3924138 L2.29150099,17.3924138 C3.63934057,16.4596552 5.28071739,15.9941379 6.59208194,15.9941379 L6.60250338,15.9941379 L6.61118791,15.9941379 C8.17961465,15.9941379 9.4927161,16.3562069 10.4098028,16.7062069 C10.87182,16.8837931 11.2296228,17.0631034 11.4693159,17.1941379 C11.5908994,17.257931 11.6812185,17.3131034 11.7385364,17.3458621 C11.7680639,17.3665517 11.7889067,17.3803448 11.8010651,17.3872414 C11.8097496,17.3906897 11.8149603,17.3941379 11.8149603,17.3941379 L11.8201711,17.3958621 L11.8201711,17.3993103 L12.6851506,17.9837931 L12.7963126,16.9458621 C13.0829022,14.3234483 14.2014701,11.9475862 15.6205229,9.39413793 C16.6175073,7.60275862 17.7551812,5.73206897 18.819905,3.63724138 L18.8650646,3.54586207 L18.913698,3.63724138 C19.9766848,5.73206897 21.1178325,7.60275862 22.1096063,9.39413793 C23.5303959,11.9475862 24.6489638,14.3234483 24.9320796,16.9458621 L25.0484524,17.9837931 L25.9082212,17.4027586 L25.9134319,17.3993103 L25.9221164,17.3941379 C25.9221164,17.3941379 25.9238533,17.3906897 25.929064,17.3872414 C25.9429593,17.3803448 25.9655391,17.3665517 25.9933296,17.3458621 C26.0523844,17.3131034 26.1444405,17.257931 26.2608132,17.1941379" id="Fill-47" fill="#97A3C3" mask="url(#mask-2)"></path>
                </g>
                <path d="M7.87582967,35.1831034 C7.87582967,35.3227586 7.87930348,35.4434483 7.87930348,35.5348276 C7.87930348,37.4193103 8.62269954,39.1193103 9.76732105,40.3589655 C10.9119426,41.5951724 12.4751586,42.3848276 14.1373783,42.3882759 L14.1408521,42.3882759 C14.8981434,42.3882759 15.6658561,42.2193103 16.4040415,41.8624138 L16.450938,41.84 L16.4717808,41.8882759 C17.0432231,43.0934483 18.4032211,45.5831034 20.6021449,47.4296552 C22.8080164,45.577931 24.1575929,43.0934483 24.7342459,41.8882759 L24.7550888,41.84 L24.8037222,41.8624138 C25.5401706,42.2193103 26.3096203,42.3882759 27.0634378,42.3882759 L27.0651747,42.3882759 L27.0686485,42.3882759 C28.734342,42.3848276 30.2923473,41.5951724 31.4369688,40.3589655 C32.5833272,39.1193103 33.3249864,37.4193103 33.3267233,35.5348276 C33.3267233,35.4434483 33.3284602,35.3227586 33.3284602,35.1831034 C33.3284602,34.5003448 33.2607209,33.2727586 32.4495854,31.7951724 L32.4495854,31.8227586 C32.4461116,33.6141379 31.0704815,34.8141379 30.6501501,35.0606897 C30.2193972,35.3072414 29.8042766,35.3986207 29.3978404,35.3986207 L29.3908928,35.3986207 C28.79166,35.3986207 28.2097962,35.1882759 27.7720957,34.9658621 C27.4577156,34.802069 27.2214963,34.6296552 27.1016498,34.5434483 L26.036926,35.2986207 C26.2054059,35.4331034 26.6743707,35.7951724 27.134651,36.0417241 C27.6956718,36.3365517 28.4790168,36.6503448 29.3978404,36.6503448 L29.4030511,36.6503448 C30.0022839,36.6503448 30.6570977,36.5037931 31.2875949,36.14 C31.5203404,36.002069 31.7530859,35.8348276 31.9754099,35.6365517 L32.0692029,35.5572414 L32.0657291,35.6796552 C32.0275171,37.1710345 31.4230736,38.5262069 30.5111976,39.5124138 C29.5680572,40.5331034 28.3209582,41.1382759 27.0755962,41.1382759 L27.0755962,41.14 L27.0686485,41.14 C26.3183048,41.1365517 25.5592766,40.9244828 24.8124067,40.4262069 L24.1506453,39.9141379 L23.8657926,40.752069 L23.8657926,40.7537931 C23.8501604,40.7796552 23.8380021,40.8193103 23.8171592,40.8693103 C23.7719996,40.9658621 23.7077341,41.1158621 23.6174149,41.302069 C23.4437243,41.6727586 23.1797145,42.1951724 22.8253855,42.7882759 C22.2938921,43.6813793 21.5661281,44.7331034 20.6490414,45.6744828 C20.6473045,45.6796552 20.6438307,45.6831034 20.6420938,45.6848276 L20.6021449,45.7227586 L20.5674068,45.6848276 C20.563933,45.6831034 20.5604592,45.6796552 20.5552485,45.6744828 C19.6398986,44.7331034 18.9103978,43.6813793 18.3806413,42.7882759 C18.0280492,42.1951724 17.7623025,41.6727586 17.585138,41.302069 C17.4982927,41.1158621 17.4340271,40.9658621 17.3923414,40.8693103 C17.3697616,40.8193103 17.3506556,40.7796552 17.3419711,40.7537931 L17.3419711,40.752069 L17.3402342,40.752069 L17.0553815,39.9141379 L16.3884093,40.427931 C15.6467502,40.9244828 14.887722,41.1365517 14.1373783,41.14 C14.1321675,41.14 14.1286937,41.1382759 14.1286937,41.1382759 C12.8815947,41.1382759 11.6362326,40.5331034 10.6948292,39.5124138 C9.78642702,38.5262069 9.17850968,37.1710345 9.14029773,35.6796552 L9.13682392,35.5572414 L9.22540616,35.6365517 C9.45294094,35.8348276 9.68394953,36.002069 9.91843193,36.14 C10.5471921,36.5037931 11.202006,36.6503448 11.8029757,36.6503448 L11.8064495,36.6503448 L11.8116602,36.6503448 C12.72701,36.6503448 13.5103549,36.3382759 14.0731127,36.0417241 C14.5281823,35.7951724 15.0006209,35.4331034 15.1708377,35.2986207 L14.1009032,34.5434483 C13.9845305,34.6296552 13.7483112,34.802069 13.4339311,34.9606897 C12.9944937,35.1882759 12.410893,35.3986207 11.8186078,35.3986207 L11.8116602,35.3986207 C11.4017502,35.3986207 10.9866295,35.3072414 10.5541398,35.0606897 C10.1390191,34.8141379 8.75817826,33.6124138 8.75817826,31.8227586 L8.75817826,31.7951724 C7.94704284,33.2727586 7.87756657,34.5003448 7.87582967,35.1831034" id="Fill-50" fill="#97A3C3"></path>
                <polygon id="Fill-52" fill="#97A3C3" points="19.7338653 16.9768966 21.4950887 16.9768966 20.6023186 4.60275862"></polygon>
                <path d="M16.4585804,27.9901724 C16.557584,28.8074138 16.7382223,29.7039655 17.0560763,30.5694828 L17.0560763,27.9901724 L16.4585804,27.9901724 Z" id="Fill-54" fill="#97A3C3"></path>
                <path d="M17.7121059,27.9901724 L17.7121059,31.9677586 C17.8979549,32.2763793 18.1081206,32.5763793 18.342603,32.8574138 L18.342603,27.9901724 L17.7121059,27.9901724 Z" id="Fill-56" fill="#97A3C3"></path>
                <path d="M19.0045382,27.9901724 L19.0045382,33.5315517 C19.1990717,33.7056897 19.4092374,33.8677586 19.6332984,34.0177586 L19.6332984,27.9901724 L19.0045382,27.9901724 Z" id="Fill-58" fill="#97A3C3"></path>
                <path d="M20.2954072,27.9901724 L20.2954072,34.4022414 C20.3909371,34.4539655 20.4934146,34.4987931 20.5993659,34.547069 C20.708791,34.497069 20.8147423,34.4436207 20.9224305,34.3884483 L20.9224305,27.9901724 L20.2954072,27.9901724 Z" id="Fill-60" fill="#97A3C3"></path>
                <path d="M21.5845394,27.9901724 L21.5845394,34.0022414 C21.8068634,33.8505172 22.0170291,33.6884483 22.2115627,33.5160345 L22.2115627,27.9901724 L21.5845394,27.9901724 Z" id="Fill-62" fill="#97A3C3"></path>
                <path d="M22.8734978,27.9901724 L22.8734978,32.8332759 C23.1079802,32.5505172 23.3181459,32.247069 23.5005211,31.9384483 L23.5005211,27.9901724 L22.8734978,27.9901724 Z" id="Fill-64" fill="#97A3C3"></path>
                <path d="M24.7427568,27.9901724 L24.1591561,27.9901724 L24.1591561,30.5246552 C24.4700624,29.6694828 24.6472269,28.7918966 24.7427568,27.9901724" id="Fill-66" fill="#97A3C3"></path>
                <path d="M17.1793966,36.4356897 C17.3548242,36.4856897 17.7577866,36.5408621 17.7577866,36.5408621 L18.7756139,34.1374138 C18.0113749,33.5184483 17.4416695,32.7701724 17.0074429,31.977069 C16.7885926,32.4701724 15.498071,35.3805172 15.4841757,35.4632759 C15.4668066,35.5494828 15.51544,35.6856897 15.6404973,35.7563793 C15.7655546,35.827069 16.0260906,35.9822414 16.0260906,35.9822414 C16.0260906,35.9822414 15.6926045,36.6098276 15.3764875,36.7477586 C15.0638443,36.8874138 14.4837175,37.1098276 13.9591716,37.0787931 C13.4380996,37.0425862 13.1011397,37.0322414 13.0177682,37.4598276 C12.8753419,38.1718966 13.5770522,38.5339655 13.5770522,38.5339655 C13.5770522,38.5339655 13.2974102,37.7563793 13.8045869,37.7563793 L17.0039691,37.7563793 C17.1985026,37.7563793 17.4069314,37.9977586 17.2141348,38.4339655 C17.6344662,38.2563793 17.7942616,37.9115517 17.7056794,37.477069 C17.6170971,37.0425862 17.1290263,37.1115517 16.9032285,37.0960345 C16.6722199,37.0787931 16.2727313,36.9546552 16.2727313,36.9546552 L16.706958,36.2598276 C16.706958,36.2598276 17.0039691,36.3805172 17.1793966,36.4356897" id="Fill-68" fill="#97A3C3"></path>
                <path d="M22.927863,21.5144828 C22.927863,21.5144828 23.0876584,22.3334483 23.4176707,22.3334483 C23.7528937,22.3334483 25.3004775,20.9351724 25.868446,20.3696552 C26.4364145,19.8075862 28.2306391,18.1817241 30.3652974,18.1817241 C32.4982188,18.1817241 40.126713,18.2006897 40.126713,18.2006897 C40.126713,18.2006897 39.8644401,18.9989655 39.2183108,19.1196552 C38.5687077,19.242069 34.6502462,19.6455172 34.6502462,19.6455172 L39.1488345,19.6455172 C39.1488345,19.6455172 38.6920281,20.4558621 38.0250559,20.58 C37.3615575,20.6972414 34.4418174,20.9972414 34.4418174,20.9972414 L37.9017355,20.9972414 C37.9017355,20.9972414 37.5717232,21.8455172 36.7310604,22.0006897 C35.8921345,22.1610345 33.146085,22.3851724 33.146085,22.3851724 L36.4514184,22.3851724 C36.4514184,22.3851724 35.9789798,23.1851724 35.2460052,23.3403448 C34.5112937,23.4972414 31.6071857,23.7903448 31.6071857,23.7903448 L34.7023534,23.7903448 C34.7023534,23.7903448 34.2681267,24.5386207 33.4587282,24.6765517 C32.6562773,24.8162069 30.2037651,25.1455172 30.2037651,25.1455172 L32.8456002,25.1455172 C32.8456002,25.1455172 32.2012078,25.9972414 31.2893318,26.1558621 C30.3809296,26.3075862 28.5971264,26.5696552 28.5971264,26.5696552 L30.4886178,26.5696552 C30.4886178,26.5696552 29.6635871,27.2644828 29.0191947,27.4575862 C28.3713285,27.6489655 26.6726338,27.9437931 26.6726338,27.9437931 L28.0552115,27.9437931 L25.5349599,29.4351724 L25.5349599,29.68 L28.4216988,32.4748276 C28.4216988,32.4748276 27.9874722,33.2403448 27.2145487,33.88 C26.4468359,34.5231034 25.9552913,34.7662069 25.9552913,34.7662069 L24.4737099,31.4058621 C24.5449231,31.242069 24.6161363,31.0817241 24.676928,30.9144828 C25.3386895,29.2024138 25.477642,27.4213793 25.477642,26.1868966 C25.477642,25.2489655 25.3942705,24.6282759 25.3925336,24.6196552 L25.36648,24.4024138 L20.6733581,23.3317241 L20.6056188,23.3127586 L20.5326687,23.3317241 L15.8447575,24.4024138 L15.8134932,24.6196552 C15.8100194,24.6282759 15.7266479,25.2541379 15.7266479,26.2110345 C15.7266479,27.4437931 15.8656004,29.2248276 16.525625,30.93 C16.5916274,31.1024138 16.6663144,31.2748276 16.7410014,31.4437931 L15.2733152,34.7662069 C15.2733152,34.7662069 14.7852445,34.5231034 14.012321,33.88 C13.2446082,33.2403448 12.8069077,32.4748276 12.8069077,32.4748276 L15.6936467,29.68 L15.6936467,29.4351724 L13.1768689,27.9437931 L14.5559728,27.9437931 C14.5559728,27.9437931 12.8590149,27.6489655 12.2128857,27.4575862 C11.5632826,27.2644828 10.7434626,26.5696552 10.7434626,26.5696552 L12.6314802,26.5696552 C12.6314802,26.5696552 10.847677,26.3075862 9.9375379,26.1558621 C9.02913571,25.9972414 8.37953261,25.1455172 8.37953261,25.1455172 L11.0231046,25.1455172 C11.0231046,25.1455172 8.57232925,24.8162069 7.76640455,24.6765517 C6.96395366,24.5386207 6.52799008,23.7903448 6.52799008,23.7903448 L9.62315779,23.7903448 C9.62315779,23.7903448 6.71731291,23.4972414 5.98433829,23.3403448 C5.24788985,23.1851724 4.77892505,22.3851724 4.77892505,22.3851724 L8.08078466,22.3851724 C8.08078466,22.3851724 5.338209,22.1610345 4.49928307,22.0006897 C3.65688333,21.8455172 3.32339725,20.9972414 3.32339725,20.9972414 L6.78678918,20.9972414 C6.78678918,20.9972414 3.86531213,20.6972414 3.20355069,20.58 C2.53831543,20.4558621 2.08150897,19.6455172 2.08150897,19.6455172 L6.57836037,19.6455172 C6.57836037,19.6455172 2.6616358,19.242069 2.0120327,19.1196552 C1.36416651,18.9989655 1.10710432,18.2006897 1.10710432,18.2006897 C1.10710432,18.2006897 8.73038776,18.1817241 10.8650461,18.1817241 C12.9979675,18.1817241 14.7921921,19.8075862 15.3618975,20.3696552 C15.929866,20.9351724 17.4791867,22.3334483 17.8126728,22.3334483 C18.1409482,22.3334483 18.6012284,21.7317241 18.6012284,21.7317241 C18.8635013,21.2213793 19.1553017,20.3748276 19.1553017,20.3748276 C19.1553017,20.3748276 18.7592869,20.2317241 18.5074355,20.0731034 C18.2590578,19.9196552 18.125316,19.6541379 18.125316,19.6541379 L19.1049314,19.6541379 C19.3498352,19.6541379 20.1036527,19.8403448 20.0359134,20.2162069 C19.9699109,20.5972414 19.4054162,22.3748276 19.4054162,22.3748276 C19.4054162,22.3748276 19.9977014,22.4937931 20.5899866,22.4937931 C21.1822718,22.4937931 22.238311,22.3748276 22.238311,22.3748276 C22.238311,22.3748276 21.7502403,19.2748276 21.6963962,18.9248276 C21.642552,18.5696552 21.104111,18.4541379 20.6438307,18.4541379 C20.1800766,18.4541379 19.8135893,18.5575862 19.7215333,18.5817241 C19.6294772,18.6093103 19.6016867,18.7024138 19.7857988,18.8058621 C19.9699109,18.9127586 20.1800766,18.8472414 20.1800766,18.8472414 C20.1800766,18.8472414 20.1696552,19.0696552 19.9977014,19.1989655 C19.8257477,19.3265517 19.4175746,19.3558621 19.1414064,19.3558621 C18.8635013,19.3558621 18.3650091,19.3265517 18.1913185,19.3696552 C18.0245754,19.4075862 17.9290456,19.4972414 17.8925705,19.5765517 C17.8491478,19.6541379 18.0089433,19.98 18.0089433,19.98 C18.0089433,19.98 17.7310382,20.0989655 17.5469261,19.6455172 C17.3645509,19.1834483 17.4913451,18.7731034 17.6910893,18.6386207 C18.1531065,18.3196552 19.1414064,18.517931 19.1414064,18.517931 C19.1414064,18.517931 19.3672043,17.9437931 19.9838062,17.6955172 C20.6021449,17.4472414 21.2222206,17.5903448 21.7884522,17.6575862 C22.3564207,17.7196552 22.8948618,17.6955172 22.8948618,17.6955172 L22.4189493,18.492069 C22.4189493,18.492069 22.8080164,20.892069 22.927863,21.5144828" id="Fill-70" fill="#97A3C3"></path>
                <path d="M22.018766,34.4372414 C21.6314358,34.707931 21.1989461,34.9493103 20.7212967,35.1475862 L20.5997133,35.2010345 L20.474656,35.1475862 C20.0056912,34.9544828 19.5853598,34.7182759 19.2032403,34.4544828 L18.5258467,36.1906897 C18.5258467,36.1906897 19.1928189,36.4441379 20.5823442,36.4493103 C20.5823442,36.4510345 20.5823442,36.4510345 20.5875549,36.4510345 L20.6136085,36.4510345 L20.6448728,36.4510345 L20.6448728,36.4493103 C22.037872,36.4441379 22.6996335,36.1906897 22.6996335,36.1906897 L22.018766,34.4372414 Z" id="Fill-72" fill="#97A3C3"></path>
                <path d="M27.2666559,37.0763793 C26.7403732,37.1108621 26.165457,36.8867241 25.8510769,36.747069 C25.5349599,36.6091379 25.2049477,35.9815517 25.2049477,35.9815517 C25.2049477,35.9815517 25.4654837,35.8263793 25.588804,35.7539655 C25.7086506,35.685 25.7607578,35.5487931 25.7468625,35.4608621 C25.7277566,35.3798276 24.3764432,32.3246552 24.2044894,31.9418966 C23.7737365,32.7401724 23.2022942,33.4936207 22.4467398,34.1160345 L23.4697779,36.5384483 C23.4697779,36.5384483 23.8744771,36.4867241 24.0464309,36.435 C24.2235954,36.3815517 24.5206064,36.2591379 24.5206064,36.2591379 L24.9600438,36.9539655 C24.9600438,36.9539655 24.5553446,37.0763793 24.3312836,37.0936207 C24.1020119,37.1091379 23.6122042,37.0401724 23.523622,37.4763793 C23.4367766,37.9125862 23.5930982,38.2556897 24.0134297,38.4332759 C23.820633,37.9953448 24.0325356,37.7539655 24.2235954,37.7539655 L27.4247144,37.7539655 C27.9336281,37.7539655 27.6539861,38.5332759 27.6539861,38.5332759 C27.6539861,38.5332759 28.3522226,38.172931 28.21327,37.4574138 C28.1298985,37.0315517 27.7929386,37.0401724 27.2666559,37.0763793" id="Fill-74" fill="#97A3C3"></path>
                <path d="M24.1355342,25.5875862 L24.2640653,25.9755172 L23.934053,25.7375862 L23.6075146,25.9755172 L23.7343088,25.5875862 L23.4042965,25.3531034 L23.8124696,25.3531034 L23.934053,24.972069 L24.0608472,25.3531034 L24.4655465,25.3531034 L24.1355342,25.5875862 Z M24.2640653,27.0962069 L23.934053,26.8565517 L23.6075146,27.0962069 L23.7343088,26.7117241 L23.4042965,26.4737931 L23.8124696,26.4737931 L23.934053,26.0910345 L24.0608472,26.4737931 L24.4655465,26.4737931 L24.1355342,26.7117241 L24.2640653,27.0962069 Z M23.1472343,25.697931 L22.8189589,25.4634483 L22.4958943,25.697931 L22.6174778,25.3186207 L22.2909393,25.0806897 L22.6956386,25.0806897 L22.8189589,24.6962069 L22.9440162,25.0806897 L23.3504524,25.0806897 L23.022177,25.3186207 L23.1472343,25.697931 Z M22.9388055,27.0962069 L22.6105301,26.8565517 L22.2839917,27.0962069 L22.4073121,26.7117241 L22.0790367,26.4737931 L22.483736,26.4737931 L22.6105301,26.0910345 L22.7355874,26.4737931 L23.1402867,26.4737931 L22.8137482,26.7117241 L22.9388055,27.0962069 Z M21.7073387,25.1875862 L21.3773264,25.4237931 L21.5041206,25.0444828 L21.1758452,24.8065517 L21.5805445,24.8065517 L21.7073387,24.4255172 L21.830659,24.8065517 L22.2353583,24.8065517 L21.9105567,25.0444828 L22.0338771,25.4237931 L21.7073387,25.1875862 Z M21.6135457,27.0962069 L21.2835334,26.8565517 L20.956995,27.0962069 L21.0837892,26.7117241 L20.7555138,26.4737931 L21.1602131,26.4737931 L21.2835334,26.0910345 L21.4120645,26.4737931 L21.8167638,26.4737931 L21.4884884,26.7117241 L21.6135457,27.0962069 Z M20.2726537,25.1531034 L20.4011848,24.7686207 L20.0729095,24.5324138 L20.4793456,24.5324138 L20.602666,24.1513793 L20.7294602,24.5324138 L21.1341595,24.5324138 L20.8058841,24.7686207 L20.9292045,25.1531034 L20.602666,24.9134483 L20.2726537,25.1531034 Z M20.2379156,27.0962069 L19.9079033,26.8565517 L19.5813649,27.0962069 L19.7064222,26.7117241 L19.3764099,26.4737931 L19.7811092,26.4737931 L19.9079033,26.0910345 L20.0329606,26.4737931 L20.4376599,26.4737931 L20.1111214,26.7117241 L20.2379156,27.0962069 Z M18.9578154,24.8065517 L19.3659885,24.8065517 L19.4875719,24.4255172 L19.6126292,24.8065517 L20.0173285,24.8065517 L19.6873162,25.0444828 L19.8175842,25.4255172 L19.4875719,25.1893103 L19.1592966,25.4255172 L19.2843538,25.0444828 L18.9578154,24.8065517 Z M18.909182,27.0962069 L18.5861174,26.8565517 L18.2526313,27.0962069 L18.3811624,26.7117241 L18.0494132,26.4737931 L18.4575863,26.4737931 L18.5861174,26.0910345 L18.7094377,26.4737931 L19.1106632,26.4737931 L18.7858616,26.7117241 L18.909182,27.0962069 Z M17.8427213,25.0806897 L18.2474205,25.0806897 L18.3724778,24.697931 L18.4975351,25.0806897 L18.9004975,25.0806897 L18.5756959,25.3186207 L18.6990163,25.6996552 L18.3724778,25.4634483 L18.0442025,25.6996552 L18.1675228,25.3186207 L17.8427213,25.0806897 Z M17.4606018,25.5875862 L17.5856591,25.9755172 L17.2556468,25.7375862 L16.9273715,25.9755172 L17.0559026,25.5875862 L16.7276272,25.3531034 L17.1305896,25.3531034 L17.2556468,24.972069 L17.382441,25.3531034 L17.7888772,25.3531034 L17.4606018,25.5875862 Z M17.5856591,27.0962069 L17.2556468,26.8565517 L16.9273715,27.0962069 L17.0559026,26.7117241 L16.7276272,26.4737931 L17.1305896,26.4737931 L17.2556468,26.0910345 L17.382441,26.4737931 L17.7888772,26.4737931 L17.4606018,26.7117241 L17.5856591,27.0962069 Z M24.790348,24.9134483 L20.602666,23.9548276 L16.4132471,24.9134483 C16.4097733,24.9703448 16.4045626,25.0341379 16.3976149,25.1082759 C16.3767721,25.372069 16.3559292,25.7531034 16.3559292,26.21 C16.3559292,26.547931 16.3663506,26.9306897 16.3993518,27.3393103 L24.8042433,27.3393103 C24.8337707,26.9203448 24.8494029,26.5306897 24.8494029,26.1893103 C24.8494029,25.61 24.8129278,25.1617241 24.790348,24.9134483 L24.790348,24.9134483 Z" id="Fill-76" fill="#97A3C3"></path>
                <g id="Group-80" transform="translate(159.795415, 28.464310)">
                    <mask id="mask-4" fill="white">
                        <use xlink:href="#path-3"></use>
                    </mask>
                    <g id="Clip-79"></g>
                    <path d="M2.46484428,0.0436206897 C3.28987495,0.0436206897 3.94295186,0.707413793 3.94295186,1.535 C3.94295186,2.37810345 3.28987495,3.035 2.46137046,3.035 C1.63633979,3.035 0.96936762,2.37810345 0.96936762,1.535 C0.96936762,0.707413793 1.63633979,0.0436206897 2.46137046,0.0436206897 L2.46484428,0.0436206897 Z M2.46137046,0.274655172 C1.7961352,0.274655172 1.25943104,0.840172414 1.25943104,1.535 C1.25943104,2.24362069 1.79787211,2.80224138 2.46484428,2.80224138 C3.13529026,2.80913793 3.66852061,2.24362069 3.66852061,1.54362069 C3.66852061,0.840172414 3.13529026,0.274655172 2.46484428,0.274655172 L2.46137046,0.274655172 Z M2.18172849,2.40568966 L1.91077104,2.40568966 L1.91077104,0.741896552 C2.05319739,0.719482759 2.18693921,0.698793103 2.38842038,0.698793103 C2.64374566,0.698793103 2.80527799,0.752241379 2.90601857,0.82637931 C3.00675916,0.898793103 3.06234017,1.01086207 3.06234017,1.1712069 C3.06234017,1.39017241 2.9129662,1.52293103 2.730591,1.57637931 L2.730591,1.58844828 C2.87996497,1.61431034 2.98070556,1.74706897 3.01544369,1.99362069 C3.05191873,2.25224138 3.0953414,2.35224138 3.121395,2.40568966 L2.84175303,2.40568966 C2.80006727,2.35224138 2.76011841,2.1987931 2.72711718,1.97982759 C2.68716833,1.76775862 2.57774321,1.68844828 2.36584059,1.68844828 L2.18172849,1.68844828 L2.18172849,2.40568966 Z M2.18172849,1.48327586 L2.36931441,1.48327586 C2.59337537,1.48327586 2.78096129,1.40396552 2.78096129,1.19534483 C2.78096129,1.0487931 2.67327308,0.905689655 2.36931441,0.905689655 C2.28594289,0.905689655 2.22341425,0.910862069 2.18172849,0.919482759 L2.18172849,1.48327586 Z" id="Fill-78" fill="#97A3C3" mask="url(#mask-4)"></path>
                </g>
            </g>
        </g>
    </g>
</svg>