<?xml version="1.0" encoding="UTF-8"?>
<svg width="63px" height="30px" viewBox="0 0 63 30" version="1.1" xmlns="http://www.w3.org/2000/svg" xmlns:xlink="http://www.w3.org/1999/xlink">
    <!-- Generator: Sketch 54.1 (76490) - https://sketchapp.com -->
    <title>fih</title>
    <desc>Created with Sketch.</desc>
    <g id="Page-1" stroke="none" stroke-width="1" fill="none" fill-rule="evenodd">
        <g id="Client-Logos" transform="translate(-1394.000000, -352.000000)" fill="#97A3C3">
            <g id="fih" transform="translate(1394.000000, 352.000000)">
                <g id="Group-4">
                    <polyline id="Fill-1" points="-2.52242671e-13 4.40536496e-13 -2.52242671e-13 29.9219889 7.99781369 29.9219889 7.99781369 17.205086 20.3719008 17.205086 20.3719008 11.2207237 7.99781369 11.2207237 7.99781369 5.98436235 20.3719008 5.98436235 20.3719008 4.40536496e-13 -2.52242671e-13 4.40536496e-13"></polyline>
                    <path d="M21.8809206,4.40536496e-13 L21.8809206,29.9219889 L33.1985242,29.9219889 L33.1985242,29.8003922 C28.9733939,29.1739879 26.8606947,25.4336285 27.9169996,20.9453568 L33.1985242,4.40536496e-13 L21.8809206,4.40536496e-13" id="Fill-2"></path>
                    <path d="M37.7256728,4.40536496e-13 L33.953168,20.9453568 C33.349578,24.2367915 33.5004532,25.7329706 35.4620985,25.4336285 C37.4239224,25.1344636 37.5747976,22.8902834 39.2347819,23.1895369 C40.8946768,23.4887905 41.649142,24.6856275 41.4983562,26.1816296 C41.3473917,27.6778087 40.1400329,29.9219889 34.7076333,29.9219889 L44.5163064,29.9219889 L44.5163064,17.9531756 L55.0796234,17.9531756 L55.0796234,29.9219889 L62.6246329,29.9219889 L62.6246329,4.40536496e-13 L55.0796234,4.40536496e-13 L55.0796234,11.2207237 L44.5163064,11.2207237 L44.5163064,4.40536496e-13 L37.7256728,4.40536496e-13 L37.7256728,4.40536496e-13 Z" id="Fill-3"></path>
                </g>
            </g>
        </g>
    </g>
</svg>