<svg xmlns="http://www.w3.org/2000/svg" width="63" height="30" viewBox="0 0 63 30">
    <g fill="none" fill-rule="evenodd">
        <path fill="#BF0201" d="M0 0v29.922h8.035V17.205h12.432v-5.984H8.035V5.984h12.432V0H0M21.983 0v29.922h11.37V29.8c-4.245-.626-6.367-4.366-5.306-8.855L33.353 0h-11.37"/>
        <path fill="#02408F" d="M37.901 0l-3.79 20.945c-.606 3.292-.455 4.788 1.516 4.489 1.971-.3 2.123-2.544 3.79-2.244 1.668.299 2.426 1.496 2.274 2.992-.151 1.496-1.364 3.74-6.822 3.74h9.854V17.953h10.613v11.969h7.58V0h-7.58v11.22H44.723V0h-6.822z"/>
    </g>
</svg>
