<?xml version="1.0" encoding="UTF-8"?>
<svg width="119px" height="53px" viewBox="0 0 119 53" version="1.1" xmlns="http://www.w3.org/2000/svg" xmlns:xlink="http://www.w3.org/1999/xlink">
    <!-- Generator: Sketch 54.1 (76490) - https://sketchapp.com -->
    <title>gp</title>
    <desc>Created with Sketch.</desc>
    <defs>
        <path d="M0.439980575,27.0459657 L21.8886449,27.0459657 C22.9365139,27.0459657 23.5988168,27.1506833 24.2253616,27.4876006 L24.2253616,27.4876006 C24.9451884,27.8791532 25.281004,28.402741 25.6836717,29.2146815 L25.6836717,29.2146815 C25.682117,29.2146815 27.1171067,32.0997262 27.1171067,32.0997262 L27.1171067,32.0997262 C27.1171067,32.0997262 28.5552057,29.2146815 28.553651,29.2146815 L28.553651,29.2146815 C28.9532094,28.402741 29.2921343,27.8791532 30.0104065,27.4876006 L30.0104065,27.4876006 C30.638506,27.1506833 31.2992542,27.0459657 32.3471231,27.0459657 L32.3471231,27.0459657 L53.7957875,27.0459657 L27.1171067,0.479576071 L0.439980575,27.0459657 Z M13.3704344,19.2058075 C13.3704344,15.3616107 16.4642908,13.0593421 20.9698162,13.0593421 L20.9698162,13.0593421 C23.3251893,13.0593421 24.7617336,13.4660711 26.2915601,14.0898236 L26.2915601,14.0898236 L26.2915601,16.8124801 L25.8951112,16.8124801 C24.7897183,15.973222 23.5179723,15.2508226 21.4082421,15.2508226 L21.4082421,15.2508226 C18.7465928,15.2508226 17.0690697,16.7062449 17.0690697,19.0601135 L17.0690697,19.0601135 C17.0690697,21.1347353 18.1184934,23.0621455 21.5186259,22.9437691 L21.5186259,22.9437691 C21.9492783,22.9225221 22.378376,22.8572633 22.795036,22.7479928 L22.795036,22.7479928 L22.795036,20.5990064 L20.0043465,20.5990064 L20.0043465,18.4135964 L26.3428652,18.4135964 L26.3428652,24.2747445 C25.088221,24.6875441 23.2396807,25.1838143 20.8547683,25.1838143 L20.8547683,25.1838143 C15.6418536,25.1838143 13.3704344,22.5567694 13.3704344,19.2058075 L13.3704344,19.2058075 Z M28.0234978,13.3112713 L34.1148189,13.3112713 C35.5498086,13.3112713 36.8091169,13.4584829 37.7792508,14.0002825 L37.7792508,14.0002825 C39.0152386,14.687776 39.6402287,15.5331047 39.6402287,16.9779035 L39.6402287,16.9779035 C39.6402287,18.6275845 38.9903634,19.705113 37.7590397,20.3941242 L37.7590397,20.3941242 C36.7142801,20.9784178 35.4129948,21.1408059 34.030865,21.1408059 L34.030865,21.1408059 L31.5744364,21.1408059 L31.5744364,24.9334028 L28.0234978,24.9334028 L28.0234978,13.3112713 Z M31.5744364,15.4981988 L31.5744364,18.9538783 L33.3157023,18.9538783 C33.9158171,18.9538783 34.5843388,18.8749607 35.0383117,18.6670433 L35.0383117,18.6670433 C35.5280428,18.4424317 35.9928986,18.0190085 35.9928986,17.1736798 L35.9928986,17.1736798 C35.9928986,16.3268335 35.5280428,15.9565279 35.0383117,15.7319163 L35.0383117,15.7319163 C34.5843388,15.5239988 33.9158171,15.4981988 33.3157023,15.4981988 L33.3157023,15.4981988 L31.5744364,15.4981988 Z" id="path-1"></path>
        <path d="M103.804322,0.54483484 C102.784437,0.561528944 101.932461,0.742128793 101.397643,1.3188342 L101.397643,1.3188342 C100.895475,1.85759845 100.705801,2.5086685 100.705801,3.50272649 L100.705801,3.50272649 L100.705801,4.01720842 L99.43561,4.01720842 L99.43561,5.9188186 L100.705801,5.9188186 L100.705801,12.7998246 L103.44674,12.7998246 L103.44674,5.9188186 L105.771019,5.9188186 L105.771019,4.01720842 L103.359677,4.01720842 L103.359677,3.76831451 C103.359677,3.20526792 103.429639,2.91843286 103.60532,2.69382128 L103.60532,2.69382128 C103.749907,2.51322144 104.02198,2.40698623 104.373343,2.40698623 L104.373343,2.40698623 C104.852191,2.41305681 105.132037,2.54812729 105.463188,2.71355068 L105.463188,2.71355068 L105.772574,2.71355068 L105.771019,2.71355068 L105.771019,0.75426996 C105.365242,0.651070046 104.676509,0.543317194 103.913151,0.543317194 L103.913151,0.543317194 C103.877393,0.543317194 103.841635,0.54483484 103.804322,0.54483484 L103.804322,0.54483484 Z M106.904397,2.78032709 L109.645336,2.78032709 L109.645336,0.632858296 L106.904397,0.632858296 L106.904397,2.78032709 Z M95.6716772,2.78032709 L98.4126163,2.78032709 L98.4126163,0.632858296 L95.6716772,0.632858296 L95.6716772,2.78032709 Z M50.0240812,2.78032709 L52.7634656,2.78032709 L52.7634656,0.632858296 L50.0240812,0.632858296 L50.0240812,2.78032709 Z M6.853125,0.921210997 C2.84665877,0.943975684 0.570575516,3.65297343 0.570575516,6.9659942 L0.570575516,6.9659942 C0.570575516,10.7904616 3.0565435,13.0016715 6.7613976,13.0441656 L6.7613976,13.0441656 C8.88045599,13.0684479 10.5191116,12.5949424 11.2575949,12.189731 L11.2575949,12.189731 L11.2560402,12.189731 L11.2560402,6.33465354 L6.571724,6.33465354 L6.571724,8.52461643 L8.30521637,8.52461643 L8.30521637,10.6811911 C8.01759656,10.7859087 7.57917068,10.8420616 7.20915168,10.8466145 L7.20915168,10.8466145 C4.57704174,10.8602733 3.62400961,9.08918066 3.64111133,6.97813536 L3.64111133,6.97813536 C3.66132245,4.88226652 4.87398976,3.19616204 7.20448758,3.11117388 L7.20448758,3.11117388 C8.74519694,3.05502098 9.82260521,3.48147945 10.8906853,4.41938455 L10.8906853,4.41938455 L11.2171726,4.41938455 L11.2171726,1.74529266 C10.167749,1.22322251 8.94575346,0.921210997 6.9464071,0.921210997 L6.9464071,0.921210997 C6.91686777,0.921210997 6.88421903,0.921210997 6.853125,0.921210997 L6.853125,0.921210997 Z M67.525358,1.16555197 L67.525358,6.82788843 L64.0583733,6.82788843 L64.0583733,9.01481602 L67.525358,9.01481602 L67.525358,12.8013423 L70.4326502,12.8013423 L70.4326502,9.01481602 L72.0821886,9.01481602 C75.5056417,9.01481602 76.9079826,7.11168819 76.8349117,4.83977244 L76.8349117,4.83977244 C76.744739,2.06399828 74.8340106,1.16555197 72.3091751,1.16555197 L72.3091751,1.16555197 L67.525358,1.16555197 Z M70.4342049,3.3570325 L71.5364883,3.3570325 C72.9046258,3.3570325 73.815681,3.72885572 73.815681,4.97332527 L73.815681,4.97332527 C73.815681,6.55471218 72.632553,6.82788843 71.2131104,6.82788843 L71.2131104,6.82788843 L70.4342049,6.82788843 L70.4342049,3.3570325 Z M12.4049647,8.52158113 C12.4049647,11.512861 14.6981497,13.042648 17.6893957,13.042648 L17.6893957,13.042648 C19.3607,13.042648 20.3323886,12.6510953 21.241889,12.1593781 L21.241889,12.1593781 L21.241889,10.055921 L20.9371675,10.055921 C20.0416593,10.7221675 19.0730802,11.1380025 17.9241557,11.1258613 L17.9241557,11.1258613 C16.014982,11.1030966 15.274944,10.1484974 15.201873,9.10587476 L15.201873,9.10587476 L21.3911404,9.10587476 L21.3911404,8.53068701 C21.3911404,7.47592318 21.2092403,6.30126534 20.5935784,5.41344255 L20.5935784,5.41344255 C19.9421584,4.47553745 18.8025621,3.77742038 17.1778988,3.7516204 L17.1778988,3.7516204 C17.1374766,3.7516204 17.0970544,3.75010276 17.0566321,3.75010276 L17.0566321,3.75010276 C13.9005877,3.75010276 12.4049647,5.80195987 12.4049647,8.52158113 L12.4049647,8.52158113 Z M15.5843296,6.276983 C15.9543486,5.77160696 16.3896651,5.58038358 17.0768432,5.57279536 L17.0768432,5.57279536 C18.1107199,5.56217184 18.6750766,6.32554767 18.7061706,7.4501232 L18.7061706,7.4501232 L15.2096465,7.4501232 C15.2127559,7.0358059 15.3417962,6.60782979 15.5843296,6.276983 L15.5843296,6.276983 Z M110.767831,8.43811062 C110.767831,11.5902609 112.874451,13.0441656 115.817502,13.0441656 L115.817502,13.0441656 C116.915121,13.0441656 117.801301,12.8058952 118.712356,12.3642603 L118.712356,12.3642603 L118.712356,9.96941522 L118.323681,9.96941522 C117.661378,10.6144147 117.02395,11.028732 115.896791,11.028732 L115.896791,11.028732 C114.483568,11.028732 113.594278,10.1955444 113.594278,8.43659297 L113.594278,8.43659297 C113.594278,6.73379439 114.483568,5.76553637 115.85326,5.76553637 L115.85326,5.76553637 C116.899574,5.76553637 117.552549,6.13280665 118.323681,6.85065311 L118.323681,6.85065311 L118.712356,6.85065311 L118.712356,4.45429041 C117.935005,4.0763966 116.97109,3.7516204 115.733548,3.7516204 L115.733548,3.7516204 C112.77806,3.7516204 110.767831,5.36487788 110.767831,8.43811062 L110.767831,8.43811062 Z M91.2983014,3.7516204 C88.3397041,3.7516204 86.3325842,5.36487788 86.3325842,8.43811062 L86.3325842,8.43811062 C86.3325842,11.5902609 88.4360956,13.0441656 91.3822553,13.0441656 L91.3822553,13.0441656 C92.4798747,13.0441656 93.3660546,12.8058952 94.2740004,12.3642603 L94.2740004,12.3642603 L94.2740004,9.96941522 L93.8868797,9.96941522 C93.2261315,10.6144147 92.5840397,11.028732 91.4615451,11.028732 L91.4615451,11.028732 C90.0467665,11.028732 89.1574772,10.1955444 89.1574772,8.43659297 L89.1574772,8.43659297 C89.1574772,6.73379439 90.0498759,5.76553637 91.4180134,5.76553637 L91.4180134,5.76553637 C92.4612182,5.76553637 93.1173023,6.13280665 93.8868797,6.85065311 L93.8868797,6.85065311 L94.2740004,6.85065311 L94.2740004,4.45429041 C93.3551717,3.99292608 92.3383968,3.7516204 91.3060749,3.7516204 L91.3060749,3.7516204 C91.3029655,3.7516204 91.3014108,3.7516204 91.2983014,3.7516204 L91.2983014,3.7516204 Z M77.7210916,4.18414945 L77.7210916,6.27394771 L77.9713986,6.27394771 C78.7083272,5.88087745 79.4950062,5.59556004 80.4511478,5.58493652 L80.4511478,5.58493652 C81.1041225,5.57734829 81.6311663,5.63957177 81.971646,5.81713633 L81.971646,5.81713633 C82.4893617,6.08879493 82.5484403,6.47731225 82.5484403,6.97965301 L82.5484403,6.97965301 L82.5484403,7.02670003 C81.7462143,7.07678234 80.9688634,7.14811169 80.225716,7.24524102 L80.225716,7.24524102 C77.7552951,7.57001722 76.7556219,8.60505165 76.7556219,10.2850855 L76.7556219,10.2850855 C76.7556219,11.9560136 77.9993832,12.9789068 79.5960618,13.042648 L79.5960618,13.042648 C80.8522608,13.0942479 81.7228937,12.7770599 82.5328933,12.0318959 L82.5328933,12.0318959 L82.5328933,12.7998246 L85.228746,12.7998246 L85.228746,6.81726491 C85.228746,5.75946579 84.8836023,4.98698408 84.1964241,4.49223155 L84.1964241,4.49223155 C83.509246,4.00051431 82.5111275,3.7516204 80.9626446,3.7516204 L80.9626446,3.7516204 C80.4060614,3.7516204 78.7503041,3.90793792 77.7210916,4.18414945 L77.7210916,4.18414945 Z M79.5136627,10.1667092 C79.485678,9.30013343 80.2117237,8.97232193 81.3326636,8.81752206 L81.3326636,8.81752206 C81.7648707,8.75985152 82.164429,8.71887509 82.5328933,8.68852217 L82.5328933,8.68852217 L82.5328933,10.5172854 C82.1970778,10.810191 81.5223372,11.0939908 80.9610899,11.1395201 L80.9610899,11.1395201 C80.8646984,11.148626 80.772971,11.1516613 80.684353,11.1516613 L80.684353,11.1516613 C79.9427603,11.1516613 79.5354285,10.8633086 79.5136627,10.1667092 L79.5136627,10.1667092 Z M54.882524,4.18414945 L54.882524,6.27394771 L55.1328309,6.27394771 C55.8635407,5.88087745 56.7590489,5.59556004 57.712081,5.58493652 L57.712081,5.58493652 C58.3666104,5.57734829 59.0102569,5.63957177 59.3522913,5.81713633 L59.3522913,5.81713633 C59.8668975,6.08879493 59.9259762,6.47731225 59.9259762,6.97965301 L59.9259762,6.97965301 L59.9259762,7.02670003 C59.1501801,7.07374705 58.3743839,7.1450764 57.6016972,7.24524102 L57.6016972,7.24524102 C55.1390497,7.57001722 54.1347125,8.60505165 54.1347125,10.2850855 L54.1347125,10.2850855 C54.1347125,11.9560136 55.3800285,12.9789068 56.9798165,13.042648 L56.9798165,13.042648 C58.228242,13.0942479 59.1004296,12.7770599 59.9135386,12.0318959 L59.9135386,12.0318959 L59.9135386,12.7998246 L62.6047272,12.7998246 L62.6047272,6.81726491 C62.6047272,5.75946579 62.2673569,4.98698408 61.5770694,4.49223155 L61.5770694,4.49223155 C60.8883365,4.00051431 59.7751701,3.7516204 58.2266873,3.7516204 L58.2266873,3.7516204 C57.6669947,3.7516204 55.9055177,3.90793792 54.882524,4.18414945 L54.882524,4.18414945 Z M56.8958626,10.1667092 C56.867878,9.30013343 57.5908143,8.97232193 58.7117542,8.81752206 L58.7117542,8.81752206 C59.1424066,8.75985152 59.5419649,8.71887509 59.9135386,8.68852217 L59.9135386,8.68852217 L59.9135386,10.5172854 C59.5792777,10.810191 58.9029825,11.0939908 58.3432899,11.1395201 L58.3432899,11.1395201 C58.2468984,11.148626 58.155171,11.1516613 58.0681077,11.1516613 L58.0681077,11.1516613 C57.3249603,11.1516613 56.9176285,10.8633086 56.8958626,10.1667092 L56.8958626,10.1667092 Z M39.3028584,8.29393426 C39.268655,11.0044497 40.7689421,12.7193894 43.130534,12.6662718 L43.130534,12.6662718 C44.1379807,12.6435071 44.8142759,12.3005192 45.4470395,11.7678255 L45.4470395,11.7678255 L45.4470395,11.9347665 C45.4470395,12.2959662 45.4097266,12.6086013 45.3397651,12.866601 L45.3397651,12.866601 C45.0739111,13.8303061 44.1799576,14.1383882 43.0434707,14.1141059 L43.0434707,14.1141059 C42.109095,14.0958941 41.2058133,13.8014709 40.5372916,13.5298123 L40.5372916,13.5298123 L40.2030307,13.5298123 L40.2030307,15.7440575 C41.254009,16.0066102 42.6221465,16.1204336 43.4414743,16.1204336 L43.4414743,16.1204336 C45.0879034,16.1204336 47.0654839,15.8153868 47.8443895,13.8819061 L47.8443895,13.8819061 C48.0713759,13.3173418 48.1848691,12.6252954 48.1848691,11.799696 L48.1848691,11.799696 L48.1848691,4.01720842 L45.5309934,4.01720842 L45.4843523,4.43911395 C44.8795734,3.98837315 44.0540268,3.75313805 43.0994399,3.75313805 L43.0994399,3.75313805 C41.2477902,3.75313805 39.3401713,5.2131133 39.3028584,8.29393426 L39.3028584,8.29393426 Z M42.8009372,10.1879562 C42.3034327,9.79033302 42.1308608,9.12712181 42.1308608,8.23929902 L42.1308608,8.23929902 C42.1308608,6.74593555 42.880227,5.79437164 44.1068866,5.8095481 L44.1068866,5.8095481 C44.6619151,5.81865397 45.1298803,5.99925382 45.4485942,6.18895955 L45.4485942,6.18895955 L45.4485942,10.034674 C45.0241606,10.3624855 44.5188826,10.5066618 44.0011669,10.5233559 L44.0011669,10.5233559 C43.974737,10.5248736 43.9483071,10.5248736 43.9218771,10.5248736 L43.9218771,10.5248736 C43.4896701,10.5248736 43.0932211,10.420156 42.8009372,10.1879562 L42.8009372,10.1879562 Z M22.4483375,8.41079299 C22.4483375,11.4491199 24.317089,13.0669303 27.1062238,13.0669303 L27.1062238,13.0669303 C29.8922492,13.0669303 31.7594459,11.4491199 31.7594459,8.41079299 L31.7594459,8.41079299 C31.7594459,5.37094847 29.8922492,3.75313805 27.1062238,3.75313805 L27.1062238,3.75313805 C24.317089,3.75313805 22.4483375,5.37094847 22.4483375,8.41079299 L22.4483375,8.41079299 Z M25.2778946,8.41079299 C25.2778946,6.71861793 25.7956103,5.72152464 27.1062238,5.72152464 L27.1062238,5.72152464 C28.418392,5.72152464 28.9361076,6.71861793 28.9361076,8.41079299 L28.9361076,8.41079299 C28.9361076,10.1014504 28.418392,11.097026 27.1062238,11.097026 L27.1062238,11.097026 C25.7956103,11.097026 25.2778946,10.1014504 25.2778946,8.41079299 L25.2778946,8.41079299 Z M38.1539339,3.99596138 C37.7357191,3.99596138 37.3221685,4.08398483 36.9412666,4.25244352 L36.9412666,4.25244352 C36.5308253,4.4375963 35.9120541,4.98698408 35.6446454,5.30872499 L35.6446454,5.30872499 L35.6446454,4.01720842 L32.905261,4.01720842 L32.905261,12.8013423 L35.6446454,12.8013423 L35.6446454,7.03428826 C36.1063918,6.72620616 36.6272169,6.53042985 37.3641454,6.53042985 L37.3641454,6.53042985 C37.773032,6.52891221 38.1788091,6.58961804 38.5659298,6.71861793 L38.5659298,6.71861793 L38.8053539,6.71861793 L38.8053539,4.02783194 C38.6871966,4.01113783 38.4742024,3.99596138 38.1632621,3.99596138 L38.1632621,3.99596138 C38.1617074,3.99596138 38.1570433,3.99596138 38.1539339,3.99596138 L38.1539339,3.99596138 Z M106.904397,12.7998246 L109.645336,12.7998246 L109.645336,4.01720842 L106.904397,4.01720842 L106.904397,12.7998246 Z M95.6716772,12.7998246 L98.4126163,12.7998246 L98.4126163,4.01720842 L95.6716772,4.01720842 L95.6716772,12.7998246 Z M50.0240812,12.7998246 L52.7634656,12.7998246 L52.7634656,4.01720842 L50.0240812,4.01720842 L50.0240812,12.7998246 Z" id="path-3"></path>
    </defs>
    <g id="Page-1" stroke="none" stroke-width="1" fill="none" fill-rule="evenodd">
        <g id="Client-Logos" transform="translate(-676.000000, -260.000000)">
            <g id="gp" transform="translate(676.000000, 260.000000)">
                <g id="Group-3" transform="translate(32.149784, 0.000000)">
                    <mask id="mask-2" fill="white">
                        <use xlink:href="#path-1"></use>
                    </mask>
                    <use id="Clip-2" fill="#97A3C3" xlink:href="#path-1"></use>
                </g>
                <g id="Group-6" transform="translate(0.000000, 36.708058)">
                    <mask id="mask-4" fill="white">
                        <use xlink:href="#path-3"></use>
                    </mask>
                    <use id="Clip-5" fill="#97A3C3" xlink:href="#path-3"></use>
                </g>
            </g>
        </g>
    </g>
</svg>