<svg xmlns="http://www.w3.org/2000/svg" xmlns:xlink="http://www.w3.org/1999/xlink" width="119" height="53" viewBox="0 0 119 53">
    <defs>
        <path id="a" d="M.44 27.046h21.449c1.048 0 1.71.105 2.336.442.72.391 1.056.915 1.459 1.727-.002 0 1.433 2.885 1.433 2.885l1.437-2.885c.4-.812.738-1.336 1.456-1.727.629-.337 1.29-.442 2.337-.442h21.449L27.117.48.44 27.046zm12.93-7.84c0-3.844 3.094-6.147 7.6-6.147 2.355 0 3.792.407 5.322 1.03v2.723h-.397c-1.105-.839-2.377-1.561-4.487-1.561-2.661 0-4.339 1.455-4.339 3.81 0 2.074 1.05 4.001 4.45 3.883.43-.021.86-.087 1.276-.196v-2.149h-2.79v-2.185h6.338v5.86c-1.255.414-3.103.91-5.488.91-5.213 0-7.485-2.627-7.485-5.978zm14.653-5.895h6.092c1.435 0 2.694.147 3.664.69 1.236.687 1.861 1.532 1.861 2.977 0 1.65-.65 2.727-1.881 3.416-1.045.584-2.346.747-3.728.747h-2.457v3.792h-3.55V13.311zm3.551 2.187v3.456h1.742c.6 0 1.268-.079 1.722-.287.49-.225.955-.648.955-1.493 0-.847-.465-1.217-.955-1.442-.454-.208-1.122-.234-1.722-.234h-1.742z"/>
        <path id="b" d="M103.804.545c-1.02.017-1.872.197-2.406.774-.503.539-.692 1.19-.692 2.184v.514h-1.27V5.92h1.27v6.88h2.74V5.92h2.325V4.017h-2.411v-.249c0-.563.07-.85.245-1.074.145-.18.417-.287.768-.287.48.006.759.141 1.09.307h.31-.002V.754a8.03 8.03 0 0 0-1.858-.21h-.109zm3.1 2.235h2.741V.633h-2.74V2.78zm-11.232 0h2.74V.633h-2.74V2.78zm-45.648 0h2.74V.633h-2.74V2.78zM6.854.921C2.846.944.57 3.653.57 6.966c0 3.824 2.486 6.036 6.19 6.078 2.12.024 3.758-.45 4.497-.854h-.002V6.335H6.572v2.19h1.733v2.156c-.287.105-.726.161-1.096.166-2.632.013-3.585-1.758-3.568-3.869.02-2.096 1.233-3.782 3.563-3.867 1.541-.056 2.619.37 3.687 1.308h.326V1.745c-1.05-.522-2.271-.824-4.27-.824h-.094zm60.671.245v5.662h-3.467v2.187h3.467V12.8h2.908V9.015h1.65c3.423 0 4.825-1.903 4.752-4.175-.09-2.776-2.001-3.674-4.526-3.674h-4.784zm2.91 2.191h1.101c1.369 0 2.28.372 2.28 1.616 0 1.582-1.183 1.855-2.603 1.855h-.779V3.357zm-58.03 5.165c0 2.99 2.293 4.52 5.284 4.52 1.672 0 2.643-.39 3.553-.883v-2.103h-.305c-.895.666-1.864 1.082-3.013 1.07-1.909-.023-2.65-.978-2.722-2.02h6.19V8.53c0-1.055-.183-2.23-.798-3.118-.652-.937-1.791-1.636-3.416-1.661l-.121-.002c-3.156 0-4.652 2.052-4.652 4.772zm3.18-2.245c.37-.505.805-.697 1.492-.704 1.034-.01 1.598.753 1.63 1.877H15.21c.003-.414.132-.842.374-1.173zm95.183 2.161c0 3.152 2.106 4.606 5.05 4.606 1.097 0 1.983-.238 2.894-.68V9.97h-.388c-.663.645-1.3 1.06-2.427 1.06-1.413 0-2.303-.833-2.303-2.592 0-1.703.89-2.671 2.26-2.671 1.046 0 1.699.367 2.47 1.085h.388V4.454a6.633 6.633 0 0 0-2.978-.702c-2.956 0-4.966 1.613-4.966 4.686zm-19.47-4.686c-2.958 0-4.965 1.613-4.965 4.686 0 3.152 2.103 4.606 5.05 4.606 1.097 0 1.983-.238 2.891-.68V9.97h-.387c-.66.645-1.303 1.06-2.425 1.06-1.415 0-2.305-.833-2.305-2.592 0-1.703.893-2.671 2.261-2.671 1.043 0 1.7.367 2.469 1.085h.387V4.454a6.616 6.616 0 0 0-2.968-.702h-.008zm-13.577.432v2.09h.25c.737-.393 1.524-.678 2.48-.69.653-.007 1.18.056 1.52.233.518.272.577.66.577 1.163v.047c-.802.05-1.58.121-2.322.218-2.47.325-3.47 1.36-3.47 3.04 0 1.671 1.243 2.694 2.84 2.758 1.256.051 2.127-.266 2.937-1.011v.768h2.696V6.817c0-1.058-.345-1.83-1.033-2.325-.687-.491-1.685-.74-3.233-.74-.557 0-2.213.156-3.242.432zm1.793 5.983c-.028-.867.698-1.195 1.819-1.35.432-.057.831-.098 1.2-.128v1.828c-.336.293-1.01.577-1.572.623-.096.009-.188.012-.277.012-.741 0-1.149-.289-1.17-.985zM54.883 4.184v2.09h.25c.73-.393 1.626-.678 2.58-.69.654-.007 1.297.056 1.64.233.514.272.573.66.573 1.163v.047c-.776.047-1.552.118-2.324.218-2.463.325-3.467 1.36-3.467 3.04 0 1.671 1.245 2.694 2.845 2.758 1.248.051 2.12-.266 2.934-1.011v.768h2.69V6.817c0-1.058-.337-1.83-1.027-2.325-.689-.491-1.802-.74-3.35-.74-.56 0-2.321.156-3.344.432zm2.013 5.983c-.028-.867.695-1.195 1.816-1.35.43-.057.83-.098 1.202-.128v1.828c-.335.293-1.011.577-1.57.623-.097.009-.189.012-.276.012-.743 0-1.15-.289-1.172-.985zM39.303 8.294c-.034 2.71 1.466 4.425 3.828 4.372 1.007-.022 1.683-.365 2.316-.898v.167c0 .361-.037.674-.107.932-.266.963-1.16 1.271-2.297 1.247-.934-.018-1.837-.313-2.506-.584h-.334v2.214c1.051.263 2.42.376 3.238.376 1.647 0 3.624-.305 4.403-2.238.227-.565.34-1.257.34-2.082V4.017h-2.653l-.047.422c-.604-.45-1.43-.686-2.385-.686-1.851 0-3.759 1.46-3.796 4.54zm3.498 1.894c-.498-.398-.67-1.06-.67-1.949 0-1.493.75-2.445 1.976-2.43.555.01 1.023.19 1.342.38v3.846c-.425.327-.93.472-1.448.488-.026.002-.053.002-.08.002-.431 0-.828-.105-1.12-.337zM22.448 8.411c0 3.038 1.87 4.656 4.658 4.656 2.786 0 4.653-1.618 4.653-4.656 0-3.04-1.867-4.658-4.653-4.658-2.789 0-4.658 1.618-4.658 4.658zm2.83 0c0-1.692.518-2.69 1.828-2.69 1.312 0 1.83.998 1.83 2.69 0 1.69-.518 2.686-1.83 2.686-1.31 0-1.828-.996-1.828-2.686zm12.876-4.415a3 3 0 0 0-1.213.256c-.41.186-1.029.735-1.296 1.057V4.017h-2.74v8.784h2.74V7.034c.461-.308.982-.504 1.72-.504.408-.001.814.06 1.2.189h.24V4.028a4.995 4.995 0 0 0-.642-.032h-.01zm68.75 8.804h2.741V4.017h-2.74V12.8zm-11.232 0h2.74V4.017h-2.74V12.8zm-45.648 0h2.74V4.017h-2.74V12.8z"/>
    </defs>
    <g fill="none" fill-rule="evenodd">
        <use fill="#1567A3" transform="translate(32.15)" xlink:href="#a"/>
        <use fill="#000" transform="translate(0 36.708)" xlink:href="#b"/>
    </g>
</svg>
