<?xml version="1.0" encoding="UTF-8"?>
<svg width="80px" height="54px" viewBox="0 0 80 54" version="1.1" xmlns="http://www.w3.org/2000/svg" xmlns:xlink="http://www.w3.org/1999/xlink">
    <!-- Generator: Sketch 54.1 (76490) - https://sketchapp.com -->
    <title>hilton</title>
    <desc>Created with Sketch.</desc>
    <g id="Page-1" stroke="none" stroke-width="1" fill="none" fill-rule="evenodd">
        <g id="Client-Logos" transform="translate(-425.000000, -340.000000)" fill="#97A3C3">
            <g id="hilton" transform="translate(425.000000, 340.000000)">
                <path d="M47.6279366,19.4663062 C47.6279366,20.4572929 47.3799057,21.6023704 46.6512514,22.6087131 L48.7016022,22.6087131 L48.7016022,6.81656916 L42.1389708,6.81656916 L42.1389708,13.2704133 C45.6899933,14.3656188 47.6279366,16.6287623 47.6279366,19.4663062 L47.6279366,19.4663062 Z M36.2741744,12.7038989 C37.7473633,12.7038989 39.1349534,13.0507119 40.1893321,13.3285413 C37.956565,12.9389782 34.4873863,13.5017576 32.6926581,14.9051563 L32.6926581,22.6087131 L39.2706584,22.6087131 L39.2706584,13.8410788 C40.6933344,14.1072976 41.7710804,14.6816981 42.4258311,15.1136403 L42.4258311,22.6087131 L43.8485071,22.6087131 C42.4997347,24.1122141 39.9955692,25.0413148 37.8133383,24.7019589 L37.8133383,25.0184428 C44.0735776,25.5079002 46.7172264,22.5621944 46.7172264,19.242848 C46.7172264,15.3333405 43.0384043,13.0507119 39.2669033,12.5842779 L39.2669033,6.81656916 L32.6889146,6.81656916 L32.6889146,12.6461409 C28.4325936,13.4942762 24.2694281,16.012006 24.2694281,20.1835927 C24.2694281,26.5912998 33.2780972,30.5664514 41.1234446,30.5664514 C53.0392555,30.5664514 62.2066017,24.8369589 62.2066017,16.7944857 C62.2066017,7.0553833 48.9729307,0.115631692 38.5691382,0.115631692 C26.6533389,0.115631692 17.8814008,7.64556745 17.8814008,15.6880407 C17.8814008,19.8596274 20.230249,23.3371927 23.1995874,25.7776805 L23.4205076,25.6273362 C21.0754028,23.6844 18.9549849,20.6653722 18.9549849,16.5170274 C19.5750914,7.70329079 30.4832815,2.7488197 40.1930872,2.7488197 C47.0541928,2.7488197 59.3888371,4.3221045 59.3888371,15.7381208 C59.3888371,21.6949567 52.9966479,29.4483854 39.5496133,29.4483854 C32.677231,29.4483854 27.3318871,25.7818201 27.3318871,20.5112698 C27.3318871,15.9538433 30.921332,12.7038989 36.2741744,12.7038989 L36.2741744,12.7038989 Z M10.1016447,53.5259332 L10.1016447,52.6545675 L12.4003635,52.6545675 L12.4003635,44.8509315 L6.22533945,44.8509315 L6.22533945,52.6545675 L8.58587134,52.6545675 L8.58587134,53.5259332 L0.116255443,53.5259332 L0.116255443,52.6545675 L2.27928096,52.6545675 L2.27928096,36.7660792 L0.116255443,36.7660792 L0.116255443,35.8830809 L8.58587134,35.8830809 L8.58587134,36.7660792 L6.22533945,36.7660792 L6.22533945,43.8059332 L12.4003635,43.8059332 L12.4003635,36.7660792 L10.1016447,36.7660792 L10.1016447,35.8830809 L18.513191,35.8830809 L18.513191,36.7660792 L16.3267981,36.7660792 L16.3267981,52.6545675 L18.513191,52.6545675 L18.513191,53.5259332 L10.1016447,53.5259332 Z M22.2149619,35.886839 L26.0524378,35.886839 L26.0524378,37.9879824 L22.2149619,37.9879824 L22.2149619,35.886839 Z M20.3271246,53.5259332 L20.3271246,52.6774278 L22.3857411,52.6774278 L22.3857411,41.7047897 L20.3271246,41.7047897 L20.3271246,40.825931 L26.2115334,40.825931 L26.2115334,52.6736698 L28.157417,52.6736698 L28.157417,53.5217704 L20.3271246,53.5217704 L20.3271246,53.5259332 Z M29.285304,53.5259332 L29.285304,52.6545675 L31.4211723,52.6545675 L31.4211723,34.4373148 L29.285304,34.4373148 L29.285304,33.6045931 L35.2665884,33.6045931 L35.2665884,52.6504278 L37.2705067,52.6504278 L37.2705067,53.5217704 L29.285304,53.5217704 L29.285304,53.5259332 Z M43.2672299,53.5259332 C41.5034255,53.5259332 40.0498605,52.7276698 40.0498605,50.8001242 L40.0498605,41.6856874 L37.9682719,41.6856874 L37.9682719,40.8296891 L40.0498605,40.8296891 L40.0498605,35.9291949 L43.6471062,35.9291949 L43.6471062,40.8296891 L46.6161655,40.8296891 L46.6161655,41.6856874 L43.6471062,41.6856874 L43.6471062,52.6815675 L46.6587499,52.6815675 L46.6587499,53.5296681 L43.2672299,53.5296681 L43.2672299,53.5259332 Z M54.8456558,53.8843683 C50.794793,53.8843683 47.434197,51.355006 47.434197,47.1294193 C47.434197,43.0580158 50.8570246,40.5057238 54.7408515,40.5057238 C58.8150816,40.5057238 61.8811329,43.3320514 61.8811329,47.4533961 C61.8771337,51.393627 58.691072,53.8843683 54.8456558,53.8843683 L54.8456558,53.8843683 Z M51.6787994,47.079582 C51.6787994,48.2013829 51.6320415,50.7266056 52.2099473,51.7483272 C52.7640789,52.6969465 53.6401217,53.1517259 54.7371081,53.1517259 C57.7064465,53.1517259 57.7565526,49.9208608 57.7335921,47.7619593 L57.7335921,46.9562377 C57.7023892,44.6465756 58.0049905,41.3309872 54.7216461,41.3309872 C51.5819354,41.3309872 51.6787994,44.8355525 51.6787994,47.079582 L51.6787994,47.079582 Z M72.3702919,53.5259332 L72.3702919,52.6774278 L74.0718995,52.6774278 L74.0718995,44.9588968 C74.0718995,43.5555096 74.0718995,41.8320887 72.2153815,41.8320887 C70.7538762,41.8320887 69.3700295,43.2548094 69.0213562,44.5809546 C68.8777226,45.205597 68.9011132,45.8763764 68.9011132,46.5010188 L68.9011132,52.6774278 L70.8586805,52.6774278 L70.8586805,53.5259332 L63.0208548,53.5259332 L63.0208548,52.6774278 L65.079076,52.6774278 L65.079076,41.7047897 L63.0208548,41.7047897 L63.0208548,40.825931 L68.9048683,40.825931 L68.9048683,42.7804882 C69.6764091,41.8551456 70.207278,41.3579872 71.3355371,40.906931 C72.0679696,40.6061615 72.870539,40.4326099 73.6534962,40.4326099 C74.2272401,40.4326099 74.8281063,40.5289889 75.3784596,40.6755867 C77.4676048,41.2769872 77.9716,42.6301323 77.9716,44.5809546 L77.9716,52.6774278 L79.9834586,52.6774278 L79.9834586,53.5259332 L72.3702919,53.5259332 Z" id="path2379"></path>
            </g>
        </g>
    </g>
</svg>