<svg xmlns="http://www.w3.org/2000/svg" width="80" height="54" viewBox="0 0 80 54">
    <path fill="#204592" fill-rule="evenodd" d="M47.568 19.466c0 .991-.247 2.136-.975 3.143h2.048V6.817h-6.555v6.453c3.547 1.096 5.482 3.359 5.482 6.196zm-11.34-6.762c1.472 0 2.858.347 3.911.625-2.23-.39-5.695.173-7.487 1.576v7.704h6.57V13.84a8.64 8.64 0 0 1 3.15 1.273v7.495h1.422c-1.347 1.503-3.848 2.432-6.028 2.093v.316c6.253.49 8.893-2.456 8.893-5.775 0-3.91-3.674-6.192-7.441-6.659V6.817h-6.57v5.83c-4.25.847-8.409 3.365-8.409 7.537 0 6.407 8.998 10.382 16.833 10.382 11.901 0 21.057-5.729 21.057-13.772C62.129 7.055 48.912.116 38.52.116c-11.9 0-20.662 7.53-20.662 15.572 0 4.172 2.346 7.65 5.312 10.09l.22-.15c-2.342-1.944-4.46-4.963-4.46-9.111.62-8.814 11.514-13.768 21.212-13.768 6.852 0 19.172 1.573 19.172 12.99 0 5.956-6.385 13.71-19.815 13.71-6.864 0-12.202-3.667-12.202-8.938 0-4.557 3.585-7.807 8.93-7.807zM10.09 53.526v-.871h2.296V44.85H6.218v7.804h2.357v.87H.116v-.87h2.16V36.766H.116v-.883h8.46v.883H6.217v7.04h6.167v-7.04h-2.296v-.883h8.401v.883h-2.184v15.889h2.184v.87H10.09zm12.098-17.64h3.833v2.102h-3.833v-2.101zm-1.885 17.64v-.849h2.056V41.705h-2.056v-.88h5.877v11.849h1.943v.848h-7.82v.004zm8.947 0v-.871h2.133V34.437h-2.133v-.832h5.974V52.65h2.001v.872h-7.975v.004zm13.964 0c-1.761 0-3.213-.798-3.213-2.726v-9.114h-2.08v-.856H40v-4.9h3.593v4.9h2.965v.856h-2.965v10.996H46.6v.848h-3.387v-.004zm11.564.358c-4.046 0-7.402-2.529-7.402-6.755 0-4.071 3.419-6.623 7.298-6.623 4.069 0 7.13 2.826 7.13 6.947-.003 3.94-3.185 6.431-7.026 6.431zm-3.163-6.804c0 1.121-.046 3.647.53 4.668.554.949 1.43 1.404 2.525 1.404 2.965 0 3.015-3.231 2.993-5.39v-.806c-.032-2.31.27-5.625-3.009-5.625-3.135 0-3.039 3.505-3.039 5.749zm20.666 6.446v-.849h1.7V44.96c0-1.403 0-3.127-1.855-3.127-1.46 0-2.842 1.423-3.19 2.749-.143.625-.12 1.295-.12 1.92v6.176h1.955v.849h-7.828v-.849h2.056V41.705h-2.056v-.88h5.877v1.955c.77-.925 1.3-1.422 2.427-1.873a6.165 6.165 0 0 1 2.316-.474c.573 0 1.173.096 1.722.243 2.087.601 2.59 1.954 2.59 3.905v8.096h2.01v.849H72.28z"/>
</svg>
