<?xml version="1.0" encoding="UTF-8"?>
<svg width="113px" height="44px" viewBox="0 0 113 44" version="1.1" xmlns="http://www.w3.org/2000/svg" xmlns:xlink="http://www.w3.org/1999/xlink">
    <!-- Generator: Sketch 54.1 (76490) - https://sketchapp.com -->
    <title>marriott</title>
    <desc>Created with Sketch.</desc>
    <g id="Page-1" stroke="none" stroke-width="1" fill="none" fill-rule="evenodd">
        <g id="Client-Logos" transform="translate(-1349.000000, -255.000000)" fill="#97A3C3">
            <g id="marriott" transform="translate(1349.000000, 254.000000)">
                <path d="M104.248381,40.1784819 C102.836034,39.4463529 102.616343,37.377678 102.647719,32.3461974 L102.67911,24.6354092 L99.9799642,24.6322925 L100.607675,23.2054124 L102.67911,23.2054124 L102.67911,19.5540872 L107.63799,17.7284159 L107.63799,23.0839034 L109.929129,23.0870185 L109.332793,24.6696846 L107.63799,24.666568 L107.63799,38.0101101 C107.732147,39.0849539 108.108776,39.7173859 108.610939,40.1784819 L104.248381,40.1784819" id="path13762"></path>
                <path d="M55.3813954,7.20747701 C55.7580259,8.23869698 56.6368033,9.30419555 56.0091065,10.5005356 C55.7266349,11.715571 54.5653699,12.700052 53.341353,12.8963309 C52.0545541,13.0115938 50.8618981,12.7966339 49.8889635,12.0271128 C49.2298613,8.51909425 50.673598,5.27277615 53.4668854,3.33807529 L55.3813954,7.20747701" id="path13766"></path>
                <g id="g13772-Clipped" transform="translate(50.789420, 9.534838)">
                    <g id="g13772" transform="translate(5.041046, 5.290487) scale(-1, 1) rotate(-180.000000) translate(-5.041046, -5.290487) translate(0.041046, 0.790487)">
                        <path d="M9.47837513,1.42856237 C8.85066817,-0.693071797 2.5422132,0.699542702 0.564936266,4.18263668 C3.16992016,3.89601357 6.08875754,6.18276758 6.15152823,8.79041486 L9.47837513,1.42856237" id="path13774"></path>
                    </g>
                </g>
                <g id="g13780-Clipped" transform="translate(55.455901, 0.126792)">
                    <g id="g13780" transform="translate(4.654475, 9.416397) scale(-1, 1) rotate(-180.000000) translate(-4.654475, -9.416397) translate(0.154475, 0.916397)">
                        <path d="M7.30344951,0.420588272 C7.58591765,0.548322487 8.15085391,0.834945606 8.30778065,1.44869294 L1.52854546,16.0851648 C1.05776524,16.1412432 0.743911757,16.1817443 0.147590143,15.7736179 L7.30344951,0.420588272" id="path13782"></path>
                    </g>
                </g>
                <path d="M65.9582569,14.4447216 C68.8457031,10.0986295 66.4290287,2.96732945 60.1833517,1.96726825 L65.9582569,14.4447216" id="path13784"></path>
                <path d="M65.3305458,23.8004665 C66.2407285,23.0402938 67.8413759,23.0247136 68.8770926,23.5107224 C69.3164892,23.7288132 69.7244948,24.0185431 70.0069681,24.3986358 L67.9983008,27.4891838 C67.7472186,27.2897882 67.5589042,27.1994397 67.2450558,27.0374362 C66.2407285,26.6106172 65.2050118,26.8598542 64.6086918,27.3988352 L64.6086918,36.4181098 C64.5773007,37.9789639 64.859774,39.402729 65.6757852,40.141104 L61.1249112,40.141104 C60.1519606,39.4183076 59.9322695,38.2624763 59.8381122,37.2499358 L59.8067212,25.2553904 C59.8381122,24.2833586 59.58703,23.8565397 59.2104011,23.3113411 L63.9182129,23.3300237 C64.2948291,23.601071 64.3262201,24.0715154 64.5145346,24.4329128 L65.3305458,23.8004665" id="path13790"></path>
                <path d="M71.0740599,26.7663889 C71.0426848,25.6261362 71.2937654,24.2615609 70.540522,23.2770657 L74.90308,23.2770657 C75.2169284,23.4951565 75.3738534,23.8565397 75.4680106,24.1992418 C75.7190912,24.5045661 75.6877161,24.9407335 75.7818733,25.3021167 L75.8446395,38.0817776 C76.0015645,38.8419503 76.3154128,39.6083547 76.8803562,40.2065256 L72.2039355,40.2158724 C70.6660543,38.7453684 71.1682187,36.3277612 71.0426848,33.8322674 L71.0740599,26.7663889" id="path13792"></path>
                <path d="M78.0102317,26.8910145 C78.4810035,25.5918608 79.9561169,24.9407335 81.0232246,24.2335172 C82.655263,23.6384631 84.4756142,22.1554955 86.2959527,23.3674158 C87.8338322,24.3612437 89.1834132,25.4828154 90.1563478,27.0187409 C90.3760533,27.6137951 90.5015873,28.2836177 90.6585266,28.9160639 C90.6585266,29.7665868 90.8468267,30.399033 90.81545,31.2495543 C90.8782177,32.1717305 90.8782177,33.0035565 90.81545,33.9070516 C90.7526838,35.4429772 90.0308155,36.8168851 88.8067827,37.882382 C86.9864299,39.4930776 84.6953053,41.3187473 82.2158663,40.0694349 C79.9875079,39.0382149 77.3825206,36.9975838 77.539444,34.1936648 C77.4452868,32.2059917 77.3511296,30.4893816 77.6336012,28.5546665 C77.7277584,27.9938878 77.696369,27.3801384 78.0102317,26.8910145 Z M82.5611058,35.9289859 C82.7807953,36.7265507 83.1888169,37.7016833 84.1617515,37.8107287 C84.7266964,37.8294256 85.134702,37.3589812 85.4799414,36.9602075 C86.4842671,34.9725343 86.3273437,32.8041625 86.3273437,30.5423397 C86.0134953,28.8631075 86.4215009,26.5670076 84.6011481,25.5357876 C83.9420603,25.3021167 83.4712742,25.7351674 83.0632686,26.1339569 C82.3414003,27.1994397 82.2786325,28.4207083 82.2158663,29.7759352 C81.9961608,31.944307 82.2472414,33.7419172 82.5611058,35.9289859 L82.5611058,35.9289859 Z" id="path13794" fill-rule="nonzero"></path>
                <path d="M94.0481341,40.1784819 C92.6358028,39.4463529 92.4160973,37.377678 92.4474883,32.3461974 L92.4788635,24.6354092 L89.8111243,24.6322925 L90.4074444,23.2054124 L92.4788635,23.2054124 L92.4788635,19.5540872 L97.4691342,17.7284159 L97.4691342,23.0839034 L99.7288836,23.0870185 L99.132562,24.6696846 L97.4691342,24.666568 L97.4691342,38.0101101 C97.5632914,39.0849539 97.9399219,39.7173859 98.4420847,40.1784819 L94.0481341,40.1784819" id="path13796"></path>
                <path d="M48.6021646,25.2553904 C48.5707735,24.2833586 48.3824591,23.8565397 48.0058429,23.3113411 L52.7136419,23.3300237 C53.0902565,23.601071 53.1216476,24.0715154 53.309962,24.4329128 L54.1259732,23.8004665 C55.0361576,23.0402938 56.6368033,23.0247136 57.6725216,23.5107224 C58.1119167,23.7288132 58.5199223,24.0185431 58.8023955,24.3986358 L56.7937283,27.4891838 C56.5426461,27.2897882 56.354346,27.1994397 56.0404832,27.0374362 C55.0361576,26.6106172 54.0004393,26.8598542 53.4041192,27.3988352 L53.4041192,36.4181098 C53.3727282,37.9789639 53.6552014,39.402729 54.4712127,40.141104 L49.9203386,40.141104 C48.9787791,39.4183076 48.6963218,38.343478 48.6335397,37.2499358 L48.6021646,25.2553904" id="path13798"></path>
                <path d="M12.9170278,30.0002435 L11.2222089,33.5020287 C10.0295672,35.5675885 8.39753046,38.1004586 5.88670038,38.7297882 C4.91376418,39.0662586 4.03497086,38.7609486 3.09341137,38.6955128 L0.0490274165,43.6335424 C0.300109628,43.876546 0.613972344,44.0790424 0.92782073,44.1974362 C6.26332927,46.2224872 8.42892151,44.0447812 13.6702728,32.2340353 L18.6605435,42.7549759 L25.282851,42.7549759 L22.1443098,35.654822 L23.9332859,31.9848 L28.8293978,42.592974 L35.1692336,42.633467 L24.0588183,18.4325155 L18.9430152,20.9529237 L22.9603354,29.9846634 L21.2027487,33.5331891 L13.8585873,17.8063026 L8.49168769,20.5292198 L12.9170278,30.0002435" id="path13800"></path>
                <path d="M33.2861146,34.2684348 C33.4116486,32.5144326 34.3845991,30.8694616 36.0166359,29.9846634 C37.6486742,28.9877172 39.5317932,28.5920586 41.2265961,27.7228405 C41.5090694,27.4891838 41.8543088,27.1994397 41.8856983,26.8193596 C41.917075,26.3489168 41.6659928,25.9875194 41.2579872,25.8255159 C38.6843909,25.2834341 36.5815665,26.8723177 34.7298369,28.4456353 C34.9495281,27.2897882 35.1378425,26.0249115 35.7027875,24.9407335 C35.9538697,24.6509894 36.1421841,24.2522141 36.4874236,24.0372384 C38.3077604,23.1493392 40.5675099,22.8969872 42.5761771,23.0402938 C44.2395906,23.1493392 45.7774861,24.3238674 46.3424151,25.8255159 C46.6248868,26.5296155 46.5934973,27.3271803 46.6562635,28.0499625 L46.6876545,37.8481066 C46.6876545,38.6955128 47.0956601,39.4930776 47.597823,40.1784819 L42.8900255,40.1784819 C42.3250949,39.6737763 42.0426233,39.0382149 41.8856983,38.2437795 C40.5675099,39.402729 37.8055976,41.1193533 36.1735593,39.9790864 C34.4787563,39.2220287 32.9094841,36.6704618 33.2861146,34.2684348 Z M41.6346177,30.8601132 C41.6032266,30.1809422 41.1324548,30.1092889 40.7872154,30.1092889 C39.6573415,30.2712908 38.6843909,31.2090471 38.1194603,32.1717305 C37.6486742,33.0284851 37.5231403,33.7512657 37.4917492,34.5021057 C37.4917492,35.3121198 37.428983,35.9134057 37.7742209,36.5271552 C37.962521,36.9259305 38.3391515,37.1066292 38.7471571,37.2125595 C39.4690254,37.3589812 40.1281132,37.1595872 40.6930582,36.7795072 C42.0426233,36.0380313 41.7915411,34.5550622 41.8229321,33.2372132 L41.6346177,30.8601132 L41.6346177,30.8601132 Z" id="path13802" fill-rule="nonzero"></path>
                <path d="M109.207261,38.711093 C109.207261,37.7079151 110.023273,36.9695543 110.996227,36.9695543 C111.969165,36.9695543 112.785179,37.7079151 112.785179,38.711093 C112.785179,39.7205026 111.969165,40.4588776 110.996227,40.4588776 C110.023273,40.4588776 109.207261,39.7205026 109.207261,38.711093 Z M110.996227,40.1691335 C111.812242,40.1691335 112.439951,39.5522674 112.439951,38.711093 C112.439951,37.8854987 111.812242,37.2592842 110.996227,37.2592842 C110.211594,37.2592842 109.552503,37.8854987 109.552503,38.711093 C109.552503,39.5522674 110.211594,40.1691335 110.996227,40.1691335 Z M110.619601,39.7205026 L110.337136,39.7205026 L110.337136,37.7079151 L111.090372,37.7079151 C111.561174,37.7079151 111.812242,37.8854987 111.812242,38.2811573 C111.812242,38.6425547 111.592539,38.7983264 111.278692,38.8357185 L111.87502,39.7205026 L111.529776,39.7205026 L110.996227,38.848182 L110.619601,38.848182 L110.619601,39.7205026 Z M110.996227,38.5895983 C111.247311,38.5895983 111.498379,38.5709014 111.498379,38.2624763 C111.498379,38.0132251 111.278692,37.9665004 111.05899,37.9665004 L110.619601,37.9665004 L110.619601,38.5895983 L110.996227,38.5895983 L110.996227,38.5895983 Z" id="path13842" fill-rule="nonzero"></path>
            </g>
        </g>
    </g>
</svg>