<svg xmlns="http://www.w3.org/2000/svg" width="113" height="44" viewBox="0 0 113 44">
    <g fill="#C6003D" fill-rule="evenodd">
        <path d="M104.355 39.178c-1.413-.732-1.633-2.8-1.602-7.832l.031-7.71-2.701-.004.628-1.427h2.073v-3.65l4.964-1.827v5.356l2.294.003-.597 1.583-1.697-.003V37.01c.095 1.075.472 1.707.974 2.168h-4.367M55.438 6.207c.377 1.032 1.257 2.097.629 3.294-.283 1.215-1.446 2.2-2.67 2.395-1.29.116-2.483-.1-3.457-.869-.66-3.508.786-6.754 3.582-8.689l1.916 3.87"/>
        <path d="M60.37 16.897c-.628 2.121-6.943.729-8.922-2.754 2.608.286 5.53-2 5.592-4.608l3.33 7.362M62.978 16.623c.283-.128.849-.415 1.006-1.029L57.198.958c-.472-.056-.786-.097-1.383.312l7.163 15.353M66.026 13.445c2.89-4.346.471-11.478-5.78-12.478l5.78 12.478M65.398 22.8c.91-.76 2.513-.775 3.55-.29.44.219.848.509 1.13.889l-2.01 3.09c-.251-.2-.44-.29-.754-.452-1.005-.426-2.042-.177-2.639.362v9.02c-.031 1.56.251 2.984 1.068 3.722h-4.555c-.974-.723-1.194-1.879-1.289-2.891l-.03-11.995c.03-.972-.22-1.398-.598-1.944l4.713.019c.377.271.408.742.597 1.103l.817-.633M71.147 25.766c-.031-1.14.22-2.504-.534-3.489h4.367c.314.218.471.58.565.922.252.306.22.742.315 1.103l.062 12.78c.158.76.472 1.526 1.037 2.125l-4.681.009c-1.54-1.47-1.037-3.888-1.162-6.384l.031-7.066"/>
        <path fill-rule="nonzero" d="M78.09 25.891c.471-1.3 1.948-1.95 3.016-2.657 1.634-.596 3.456-2.079 5.278-.867 1.54.994 2.89 2.116 3.865 3.652.22.595.345 1.265.503 1.897 0 .85.188 1.483.157 2.334.062.922.062 1.754 0 2.657-.063 1.536-.786 2.91-2.011 3.975-1.822 1.611-4.116 3.437-6.598 2.187-2.23-1.03-4.838-3.071-4.681-5.875-.094-1.988-.189-3.705.094-5.64.094-.56.063-1.174.377-1.663zm4.556 9.038c.22.798.628 1.773 1.602 1.882.566.018.974-.452 1.32-.85 1.005-1.988.848-4.157.848-6.419-.314-1.679.094-3.975-1.728-5.006-.66-.234-1.131.2-1.54.598-.722 1.065-.785 2.287-.848 3.642-.22 2.168.032 3.966.346 6.153z"/>
        <path d="M94.145 39.178c-1.414-.732-1.634-2.8-1.603-7.832l.032-7.71-2.67-.004.596-1.427h2.074v-3.65l4.995-1.827v5.356l2.262.003-.597 1.583-1.665-.003V37.01c.094 1.075.471 1.707.974 2.168h-4.398M48.652 24.255c-.031-.972-.22-1.398-.597-1.944l4.713.019c.377.271.408.742.597 1.103l.816-.633c.912-.76 2.514-.775 3.55-.29.44.219.849.509 1.132.889l-2.011 3.09c-.251-.2-.44-.29-.754-.452-1.005-.426-2.042-.177-2.64.362v9.02c-.03 1.56.252 2.984 1.07 3.722h-4.556c-.943-.723-1.226-1.798-1.289-2.891l-.031-11.995M12.93 29l-1.696 3.502C10.04 34.568 8.406 37.1 5.893 37.73c-.974.336-1.854.03-2.796-.034L.049 42.634c.251.243.566.445.88.563 5.34 2.025 7.509-.152 12.755-11.963l4.996 10.521h6.629l-3.142-7.1 1.79-3.67 4.902 10.608 6.346.04-11.122-24.2-5.12 2.52 4.02 9.032-1.759 3.548-7.351-15.727L8.5 19.53 12.93 29"/>
        <path fill-rule="nonzero" d="M33.32 33.268c.126-1.754 1.1-3.399 2.734-4.283 1.633-.997 3.518-1.393 5.215-2.262.283-.234.628-.524.66-.904a.96.96 0 0 0-.629-.993c-2.576-.543-4.68 1.046-6.535 2.62.22-1.156.409-2.421.974-3.505.252-.29.44-.689.786-.904 1.822-.888 4.084-1.14 6.095-.997 1.665.11 3.204 1.284 3.77 2.786.283.704.251 1.501.314 2.224l.032 9.798c0 .848.408 1.645.91 2.33h-4.712c-.565-.504-.848-1.14-1.005-1.934-1.32 1.159-4.085 2.875-5.718 1.735-1.697-.757-3.268-3.309-2.89-5.71zm8.357-3.408c-.031-.68-.502-.75-.848-.75-1.131.161-2.105 1.099-2.67 2.062-.472.856-.597 1.58-.629 2.33 0 .81-.063 1.411.283 2.025.188.399.565.58.974.686.723.146 1.382-.053 1.948-.433 1.35-.742 1.1-2.225 1.13-3.543l-.188-2.377zM109.32 37.711c0-1.003.816-1.741 1.79-1.741.974 0 1.79.738 1.79 1.741 0 1.01-.816 1.748-1.79 1.748-.974 0-1.79-.738-1.79-1.748zm1.79 1.458c.817 0 1.445-.617 1.445-1.458 0-.826-.628-1.452-1.445-1.452-.785 0-1.445.626-1.445 1.452 0 .841.66 1.458 1.445 1.458zm-.377-.448h-.283v-2.013h.754c.472 0 .723.177.723.573 0 .362-.22.517-.534.555l.597.885h-.346l-.534-.873h-.377v.873zm.377-1.131c.251 0 .503-.02.503-.328 0-.249-.22-.295-.44-.295h-.44v.623h.377z"/>
    </g>
</svg>
