<svg xmlns="http://www.w3.org/2000/svg" xmlns:xlink="http://www.w3.org/1999/xlink" width="188" height="45" viewBox="0 0 188 45">
    <defs>
        <path id="a" d="M.765.5h16.45v10.205H.765z"/>
        <path id="c" d="M0 .53h30.49v17.894H0z"/>
    </defs>
    <g fill="none" fill-rule="evenodd">
        <path fill="#245498" d="M30.744 26.118a17.079 17.079 0 0 1-2.615 2.54c-1.904-10.936-9.936-20.499-15.616-23.29l-.122.085c5.712 4.687 12.527 13.796 15.176 23.633a22.137 22.137 0 0 1-4.352 2.493C17.825 25.429 12.8 13.572 11.18 6.046l-.165.048c.037 7.306 5.22 19.709 11.544 25.759-1.45.574-2.958.99-4.498 1.241C12.001 30.691 7.687 23 7.687 15.12c0-5.143 1.569-8.326 1.872-8.975l-.13-.053c-.365.556-2.664 3.737-2.664 9.29 0 8.906 4.392 15.714 10.222 17.856a19.965 19.965 0 0 1-6.246-.292l-.044.135c.623.23 2.739 1.12 5.967 1.12 7.301 0 12.236-4.538 14.222-7.989l-.142-.094zm.64-1.155c.434-9.099-7.408-19.343-18.098-20.61l.016-.123c10.54 0 18.62 9.762 18.62 17.46-.01 1.603-.135 2.598-.363 3.319l-.176-.046zM176.226 44.4c4.082 0 11.653-.32 11.653-10.144 0-9.826-7.57-10.144-11.653-10.144-4.082-.002-11.65.318-11.65 10.144 0 9.824 7.568 10.144 11.65 10.144zm0-15.51c2.748 0 4.492 1.514 4.492 5.366 0 3.851-1.744 5.364-4.492 5.364-2.745-.002-4.49-1.515-4.49-5.364 0-3.852 1.747-5.367 4.49-5.367zM160.06 42.25c-1.646 1.38-4.226 2.15-8.332 2.15-4.082 0-11.653-.32-11.653-10.142 0-9.826 7.571-10.146 11.653-10.146 4.057 0 10.314.585 11.198 8.1h-7.592c-.19-1.354-1.003-3.32-3.606-3.32-2.747 0-4.489 1.515-4.489 5.366s1.696 5.364 4.155 5.364c2.127 0 3.39-.984 3.94-3.268h7.592c-.428 2.495-1.193 4.514-2.866 5.895zm-28.82 1.485h6.736v-18.96h-6.735v18.96zm-19.123-8.048c-3.295-.558-4.655-2.683-4.655-5.337 0-4.913 4.323-6.24 9.861-6.24 7.592 0 10.72 2.205 10.96 6.215h-7.833c0-.771-.405-1.252-1.025-1.515-.598-.29-1.36-.4-2.102-.4-2.006 0-2.7.559-2.7 1.357 0 .53.216.876.885.982l8.047 1.327c3.39.556 5.492 2.312 5.492 5.524 0 4.62-3.39 6.797-10.96 6.797-5.18 0-10.84-.796-10.865-6.371h8.118c.026.635.24 1.06.72 1.352.5.267 1.24.399 2.29.399 2.102 0 2.675-.637 2.675-1.54 0-.556-.31-1.114-1.218-1.273l-7.69-1.277zm-26.96 8.048h6.735v-5.897h7.212c4.776 0 6.495-2.813 6.495-6.451 0-4.224-1.77-6.614-6.543-6.614H85.157v18.962zm6.735-14.5h4.346c1.696 0 2.34.584 2.34 2.02 0 1.38-.646 1.962-2.34 1.962h-4.346v-3.983zm-27.674-4.46h18.123v4.62H70.95v2.55h10.58v4.62H70.95v2.55h11.39v4.62H64.218v-18.96zm-22.66 18.96h6.733v-5.897h7.211c4.776 0 6.495-2.813 6.495-6.451 0-4.224-1.767-6.614-6.543-6.614H41.557v18.962zm6.733-14.5h4.345c1.696 0 2.342.584 2.342 2.02 0 1.38-.646 1.962-2.342 1.962h-4.345v-3.983z"/>
        <g transform="translate(2.725)">
            <mask id="b" fill="#fff">
                <use xlink:href="#a"/>
            </mask>
            <path fill="#0996D3" d="M15.453 3.055c0 2.783-5.538 6.186-10.17 6.186-2.045 0-3.151-.778-3.151-2.062 0-2.822 5.603-6.165 9.947-6.165 2.831 0 3.374 1.392 3.374 2.04M13.174.499C7.461.498.765 4.475.765 8.111c0 1.406 1.335 2.594 4.092 2.594 6.405 0 12.358-4.245 12.358-7.548 0-1.737-1.73-2.659-4.04-2.659" mask="url(#b)"/>
        </g>
        <path fill="#D7783D" d="M1.688 10.688c-.157.273-.78 1.51-.78 2.778C.908 15.816 3.253 18 7.562 18c8.29 0 17.868-6.187 17.868-11.93 0-2.58-2.408-3.98-4.077-4.27l-.032.102c.519.165 2.422 1.061 2.422 3.36 0 4.574-8.455 10.812-16.879 10.812-3.224 0-5.258-1.614-5.258-3.966 0-.746.155-1.233.195-1.375l-.113-.045z"/>
        <g transform="translate(0 6.3)">
            <mask id="d" fill="#fff">
                <use xlink:href="#c"/>
            </mask>
            <path fill="#2F9B5C" d="M28.89.53c.23.173 1.6 1.302 1.6 3.44 0 7.288-11.543 14.454-21.75 14.454-6.085 0-8.859-2.974-8.737-5.612h.11c.238 1.37 2.215 3.823 7.54 3.823 10.218 0 21.626-7.415 21.626-13.91 0-1.115-.304-1.81-.479-2.118l.09-.077z" mask="url(#d)"/>
        </g>
        <path fill="#CC2031" d="M32.404 12.6c.045.157.292.858.292 1.959 0 8.155-11.527 15.141-21.552 15.141-5.159 0-7.852-2.53-8.42-3.557l.092-.066c1.426 1.259 4.237 2.215 7.518 2.215 8.854 0 22.066-6.795 21.946-15.66l.124-.032z"/>
    </g>
</svg>
