<?xml version="1.0" encoding="UTF-8"?>
<svg width="188px" height="45px" viewBox="0 0 188 45" version="1.1" xmlns="http://www.w3.org/2000/svg" xmlns:xlink="http://www.w3.org/1999/xlink">
    <!-- Generator: Sketch 54.1 (76490) - https://sketchapp.com -->
    <title>pepsico</title>
    <desc>Created with Sketch.</desc>
    <defs>
        <polygon id="path-1" points="0.013125845 0.4992 16.418849 0.4992 16.418849 10.704928 0.013125845 10.704928"></polygon>
        <polygon id="path-3" points="0 0.530464941 30.4083911 0.530464941 30.4083911 18.4236508 0 18.4236508"></polygon>
    </defs>
    <g id="Page-1" stroke="none" stroke-width="1" fill="none" fill-rule="evenodd">
        <g id="Client-Logos" transform="translate(-629.000000, -347.000000)">
            <g id="pepsico" transform="translate(629.000000, 347.000000)">
                <g id="Group-3" transform="translate(6.340580, 3.600000)" fill="#97A3C3">
                    <path d="M24.3218856,22.5183957 C23.544722,23.4566962 22.6696317,24.3072269 21.713283,25.0574494 C19.8151704,14.1217557 11.8039268,4.5590318 6.13875866,1.76711766 L6.01791285,1.85279766 C11.7143342,6.54012059 18.5108691,15.6493674 21.1528085,25.4858494 C19.8047526,26.4805733 18.3483523,27.314386 16.8127771,27.9789284 C11.4372223,21.8287762 6.42420479,9.9715001 4.80945478,2.44628839 L4.64485446,2.49435278 C4.68235833,9.8001401 9.85164192,22.2028425 16.1585429,28.2526864 C14.7125603,28.8273694 13.2082384,29.2432308 11.6726632,29.4940016 C5.6282893,27.090782 1.32576185,19.4004796 1.32576185,11.5200094 C1.32576185,6.37711961 2.8905067,3.19442107 3.19262122,2.54450693 L3.06344122,2.49226302 C2.69882025,3.04813815 0.406917003,6.22874693 0.406917003,11.7812289 C0.406917003,20.6877694 4.78653575,27.4961947 10.6017193,29.6381947 C8.52233804,29.8701577 6.4200377,29.7698494 4.37190962,29.3456289 L4.3281551,29.481463 C4.94905252,29.7113362 7.05968706,30.6015723 10.2787693,30.6015723 C17.560771,30.6015723 22.4821123,26.062622 24.4635669,22.6124347 L24.3218856,22.5183957 Z M24.9594514,21.3627606 C25.3928295,12.2639625 17.5711888,2.01997815 6.90967157,0.753585951 L6.92633996,0.630290341 C17.4378417,0.630290341 25.4970069,10.3915411 25.4970069,18.0902025 C25.4865891,19.6930455 25.3615762,20.6877694 25.1344695,21.4087352 L24.9594514,21.3627606 Z M169.418113,40.799582 C173.489366,40.799582 181.040146,40.4798494 181.040146,30.655906 C181.040146,20.8298728 173.489366,20.5122299 169.418113,20.5122299 C165.346859,20.5101401 157.798163,20.8298728 157.798163,30.655906 C157.798163,40.4798494 165.346859,40.799582 169.418113,40.799582 Z M169.418113,25.2894123 C172.157979,25.2894123 173.897742,26.8044855 173.897742,30.655906 C173.897742,34.5073264 172.157979,36.0203099 169.418113,36.0203099 C166.68033,36.0182201 164.940567,34.5052367 164.940567,30.655906 C164.940567,26.8044855 166.682414,25.2894123 169.418113,25.2894123 Z M153.293532,38.649223 C151.651696,40.0305518 149.078513,40.799582 144.984341,40.799582 C140.913087,40.799582 133.362308,40.4798494 133.362308,30.6579957 C133.362308,20.8319625 140.913087,20.5122299 144.984341,20.5122299 C149.030592,20.5122299 155.270819,21.0973616 156.15216,28.6121245 L148.580545,28.6121245 C148.390942,27.2579625 147.580442,25.291502 144.984341,25.291502 C142.244475,25.291502 140.506795,26.8065752 140.506795,30.6579957 C140.506795,34.5094162 142.198637,36.0223996 144.650973,36.0223996 C146.772025,36.0223996 148.032572,35.0381245 148.580545,32.7540211 L156.15216,32.7540211 C155.725033,35.2491899 154.962454,37.2678942 153.293532,38.649223 Z M124.550982,40.1350396 L131.268342,40.1350396 L131.268342,21.1746825 L124.550982,21.1746825 L124.550982,40.1350396 Z M105.478179,32.0873889 C102.192424,31.529424 100.836034,29.404142 100.836034,26.7501518 C100.836034,21.8371352 105.146895,20.5101401 110.670382,20.5101401 C118.241997,20.5101401 121.361069,22.7148328 121.600677,26.7250747 L113.789454,26.7250747 C113.789454,25.9539547 113.385246,25.4733108 112.766432,25.2100016 C112.170537,24.9195255 111.410042,24.8108581 110.670382,24.8108581 C108.670176,24.8108581 107.978438,25.368823 107.978438,26.1671099 C107.978438,26.6979079 108.193043,27.0427177 108.859779,27.1492952 L116.885607,28.4762903 C120.267206,29.0321655 122.363256,30.7875606 122.363256,33.9995157 C122.363256,38.6199664 118.981657,40.7974923 111.432961,40.7974923 C106.265761,40.7974923 100.621428,40.0012952 100.596426,34.425826 L108.693095,34.425826 C108.718097,35.0611118 108.932703,35.4853323 109.409835,35.7778981 C109.909887,36.0453869 110.647463,36.1770416 111.695488,36.1770416 C113.791538,36.1770416 114.36243,35.539666 114.36243,34.6368913 C114.36243,34.0810162 114.054065,33.5230513 113.147721,33.3642299 L105.478179,32.0873889 Z M78.5899873,40.1350396 L85.3073474,40.1350396 L85.3073474,34.2377479 L92.4997564,34.2377479 C97.2627481,34.2377479 98.9775084,31.4249362 98.9775084,27.7866708 C98.9775084,23.5632738 97.2127429,21.1725928 92.4518348,21.1725928 L78.5899873,21.1725928 L78.5899873,40.1350396 Z M85.3073474,25.634222 L89.641128,25.634222 C91.3329693,25.634222 91.9747023,26.2193538 91.9747023,27.6550162 C91.9747023,29.0342552 91.3308858,29.6172972 89.641128,29.6172972 L85.3073474,29.6172972 L85.3073474,25.634222 Z M57.7065817,21.1746825 L75.7813641,21.1746825 L75.7813641,25.7951333 L64.4218582,25.7951333 L64.4218582,28.3446357 L74.9729473,28.3446357 L74.9729473,32.9650864 L64.4218582,32.9650864 L64.4218582,35.5145889 L75.7813641,35.5145889 L75.7813641,40.1350396 L57.7065817,40.1350396 L57.7065817,21.1746825 Z M35.1063321,40.1350396 L41.8216086,40.1350396 L41.8216086,34.2377479 L49.0140177,34.2377479 C53.7770094,34.2377479 55.4917697,31.4249362 55.4917697,27.7866708 C55.4917697,23.5632738 53.7290878,21.1725928 48.9660961,21.1725928 L35.1063321,21.1725928 L35.1063321,40.1350396 Z M41.8216086,25.634222 L46.1553893,25.634222 C47.8472306,25.634222 48.4910471,26.2193538 48.4910471,27.6550162 C48.4910471,29.0342552 47.8472306,29.6172972 46.1553893,29.6172972 L41.8216086,29.6172972 L41.8216086,25.634222 Z" id="Fill-1"></path>
                </g>
                <g id="Group-6" transform="translate(3.467391, 0.000000)">
                    <mask id="mask-2" fill="white">
                        <use xlink:href="#path-1"></use>
                    </mask>
                    <g id="Clip-5"></g>
                    <path d="M14.6621681,3.054688 C14.6621681,5.837728 9.13840621,9.240608 4.51986186,9.240608 C2.47935972,9.240608 1.37632748,8.462688 1.37632748,7.179328 C1.37632748,4.356768 6.96459414,1.014208 11.2971672,1.014208 C14.1203277,1.014208 14.6621681,2.405728 14.6621681,3.054688 M12.3894486,0.498368 C6.69152378,0.498368 0.013125845,4.475328 0.013125845,8.111168 C0.013125845,9.517248 1.34407508,10.704928 4.09413012,10.704928 C10.4822564,10.704928 16.418849,6.459648 16.418849,3.156608 C16.418849,1.419808 14.6944205,0.498368 12.3894486,0.498368" id="Fill-4" fill="#97A3C3" mask="url(#mask-2)"></path>
                </g>
                <path d="M1.6832202,10.6881768 C1.52690188,10.9614962 0.905797101,12.1988491 0.905797101,13.4658645 C0.905797101,15.8155637 3.24431912,18 7.54203071,18 C15.8102276,18 25.3623188,11.8132357 25.3623188,6.06929113 C25.3623188,3.49076641 22.9612695,2.09026942 21.2959584,1.8 L21.2646947,1.90170024 C21.7815873,2.06696312 23.6803338,2.96319644 23.6803338,5.26204551 C23.6803338,9.83643735 15.2474816,16.0740518 6.84589314,16.0740518 C3.6299043,16.0740518 1.60193467,14.4595606 1.60193467,12.1077426 C1.60193467,11.3619409 1.75616875,10.8746273 1.79576939,10.7326707 L1.6832202,10.6881768 Z" id="Fill-7" fill="#97A3C3"></path>
                <g id="Group-11" transform="translate(0.000000, 6.300000)">
                    <mask id="mask-4" fill="white">
                        <use xlink:href="#path-3"></use>
                    </mask>
                    <g id="Clip-10"></g>
                    <path d="M28.8138417,0.530464941 C29.0419334,0.702714353 30.4083911,1.83167435 30.4083911,3.96922729 C30.4083911,11.2576602 18.897084,18.4236508 8.71666057,18.4236508 C2.64816563,18.4236508 -0.118231022,15.4497544 0.00313887669,12.8120555 L0.111953269,12.8120555 C0.350507897,14.1817496 2.32172246,16.6347473 7.63270182,16.6347473 C17.8235881,16.6347473 29.2009698,9.21972141 29.2009698,2.72405082 C29.2009698,1.60961788 28.8975451,0.914394353 28.7238606,0.607250824 L28.8138417,0.530464941 Z" id="Fill-9" fill="#97A3C3" mask="url(#mask-4)"></path>
                </g>
                <path d="M32.3175868,12.6 C32.363008,12.7566317 32.6086957,13.4583415 32.6086957,14.5589399 C32.6086957,22.7142281 21.112993,29.7 11.1141267,29.7 C5.96913908,29.7 3.28309219,27.1709209 2.7173913,26.1434172 L2.80823378,26.0765877 C4.2307444,27.3359062 7.03447359,28.2924035 10.3068674,28.2924035 C19.1371691,28.2924035 32.3134576,21.4966781 32.1937107,12.6313263 L32.3175868,12.6 Z" id="Fill-12" fill="#97A3C3"></path>
            </g>
        </g>
    </g>
</svg>