<?xml version="1.0" encoding="UTF-8"?>
<svg width="83px" height="50px" viewBox="0 0 83 50" version="1.1" xmlns="http://www.w3.org/2000/svg" xmlns:xlink="http://www.w3.org/1999/xlink">
    <!-- Generator: Sketch 54.1 (76490) - https://sketchapp.com -->
    <title>rebbull</title>
    <desc>Created with Sketch.</desc>
    <g id="Page-1" stroke="none" stroke-width="1" fill="none" fill-rule="evenodd">
        <g id="Client-Logos" transform="translate(-874.000000, -342.000000)">
            <g id="rebbull" transform="translate(915.500000, 367.000000) scale(1, -1) translate(-915.500000, -367.000000) translate(874.000000, 342.000000)">
                <path d="M62.8894438,5.17113743 L62.8894438,11.7135555 L59.2672216,11.7135555 L59.2672216,4.47546548 C59.2672216,2.02732057 61.8156977,0.0400029403 64.9611945,0.0400029403 C68.1044635,0.0400029403 70.6551673,2.02732057 70.6551673,4.47546548 L70.6529397,11.7135555 L67.0596774,11.7135555 L67.0574497,5.17113743 C67.0574497,4.08110368 66.1262758,3.19711289 64.9745606,3.19711289 C63.8228454,3.19711289 62.8894438,4.08110368 62.8894438,5.17113743" id="path3623" fill="#97A3C3"></path>
                <polygon id="path3625" fill="#97A3C3" points="82.4728329 0.446993642 78.826106 0.446993642 78.826106 19.4893514 82.4728329 19.4893514"></polygon>
                <polygon id="path3627" fill="#97A3C3" points="76.3065905 0.446993642 72.6576366 0.446993642 72.6576366 19.4893514 76.3065905 19.4893514"></polygon>
                <path d="M5.92075532,15.4945545 L3.93811218,15.4945545 L3.93811218,0.44677151 L0.0552503963,0.44677151 L0.0552503963,18.6162162 L6.72717871,18.6162162 C9.7635187,18.6162162 12.225115,16.2123816 12.225115,13.2502371 C12.225115,10.7267646 10.4407361,8.61094707 8.03705979,8.03712849 L13.3968793,0.44677151 L8.82343398,0.44677151 L4.94725526,6.39543131 L4.94725526,10.7400577 L5.84724158,10.7422732 C7.28187325,10.7422732 8.44249917,11.8057208 8.44249917,13.1195216 C8.44249917,14.431107 7.35315929,15.4945545 5.92075532,15.4945545" id="path3631" fill="#97A3C3"></path>
                <path d="M16.8143761,7.42675294 C16.8143761,8.65193315 17.8123807,9.64226869 19.042065,9.64226869 C20.273977,9.64226869 21.2719816,8.65193315 21.2719816,7.42675294 L16.8143761,7.42675294 Z M24.8630161,5.3397371 C24.8875207,5.58787486 24.8986592,5.84265918 24.8964315,6.10187452 C24.9521237,10.029984 22.3390446,12.1834653 19.0108774,12.1834653 C15.6804824,12.1834653 12.9827511,9.46502743 12.9827511,6.1129521 C12.9827511,2.76087676 15.6827101,0.040223413 19.0108774,0.040223413 C21.5548981,0.040223413 23.5353135,1.18342954 24.5578228,2.97578179 L21.5972242,4.33389295 C21.2185171,3.52301418 20.3363523,2.95362663 19.3093877,2.95584215 C17.8903498,2.95805766 16.8411083,3.99270352 16.8277422,5.21566822 C16.8277422,5.30207333 16.8277422,5.3397371 16.8277422,5.3397371 L24.8630161,5.3397371 Z" id="path3635" fill="#97A3C3" fill-rule="nonzero"></path>
                <path d="M33.1123708,3.23056757 C31.6331853,3.23056757 30.4346887,4.53550635 30.4346887,6.1461863 C30.4346887,7.75465074 31.6331853,9.05958952 33.1123708,9.05958952 C34.5915562,9.05958952 35.7900529,7.75465074 35.7900529,6.1461863 C35.7900529,4.53550635 34.5915562,3.23056757 33.1123708,3.23056757 L33.1123708,3.23056757 Z M39.3833151,0.445664263 L39.3788597,19.4880222 L35.7432714,19.4880222 L35.7432714,10.4775196 C34.7764544,11.4301914 33.4866225,12.008441 32.0764954,12.008441 C29.06466,12.008441 26.623113,9.3520376 26.623113,6.07307428 C26.623113,2.79632648 29.06466,0.139923089 32.0764954,0.139923089 C33.4999887,0.139923089 34.7875928,0.740327859 35.7588652,1.71293927 L35.7588652,0.445664263 L39.3833151,0.445664263 Z" id="path3639" fill="#97A3C3" fill-rule="nonzero"></path>
                <path d="M51.7503311,3.60188719 L48.2617703,3.60188719 L48.2617703,15.4947758 L50.6944065,15.4947758 C51.7636972,15.4947758 52.6302682,14.5221643 52.6302682,13.4587168 C52.6302682,12.3952692 51.7636972,11.5334336 50.6944065,11.5334336 L49.4268516,11.5334336 L49.4268516,8.26776337 L51.7503311,8.26776337 C53.046846,8.26776337 54.0248015,7.22868648 54.0248015,5.93925631 C53.97802,4.60773134 53.1582305,3.6882923 51.7503311,3.60188719 M54.8044926,10.3370551 C55.8024972,11.2631407 56.412884,12.5038295 56.412884,13.8663717 C56.412884,15.1026295 55.9339309,16.2369735 55.0985475,17.1276109 C54.2275212,18.0802826 52.6881881,18.6164375 50.6075267,18.6164375 L44.3722254,18.6164375 L44.3722254,0.446992753 L52.4253208,0.446992753 C55.51067,0.497949615 57.9967708,2.81316358 57.9967708,5.65788581 C57.9967708,7.72496201 57.2638612,9.2004955 54.8044926,10.3370551" id="path3643" fill="#97A3C3" fill-rule="nonzero"></path>
                <path d="M29.2763993,36.8677734 C29.2763993,29.6528645 35.156453,23.8049423 42.4110043,23.8049423 C49.6655555,23.8049423 55.5456092,29.6528645 55.5456092,36.8677734 C55.5456092,44.0826823 49.6655555,49.9306046 42.4110043,49.9306046 C35.156453,49.9306046 29.2763993,44.0826823 29.2763993,36.8677734" id="path3647" fill="#97A3C3"></path>
                <path d="M53.1668025,31.8277639 C53.1481653,31.8555671 53.129528,31.8856871 53.1085611,31.9134902 C53.0852646,31.9482441 53.061968,31.982998 53.0340121,32.0270196 C52.9221886,32.1938383 52.824343,32.3374878 52.7754202,32.4649187 C53.0013969,32.4440664 53.2413516,32.4208971 53.4906248,32.4093125 L53.1668025,31.8277639 Z M76.8617417,28.1183647 L76.8594121,28.1229986 C76.8454341,28.1577525 76.8244672,28.204091 76.8128189,28.2272603 C76.798841,28.2967681 76.7895224,28.3801774 76.7778741,28.4635868 L76.7778741,28.4774883 C76.7499182,28.6836948 76.724292,28.8945351 76.635765,29.1030585 C76.4959856,29.4227943 76.1838116,29.6614377 75.8343631,29.7309455 C75.8087368,29.872278 75.7481658,29.9765397 75.7108913,30.032146 C75.4919035,30.344931 75.1634219,30.5627221 74.918808,30.724907 C74.8512479,30.7689286 74.7743692,30.8199009 74.7464134,30.8430702 L74.6788533,30.8940426 C74.518107,31.0214735 74.3247455,31.0886644 74.117406,31.0886644 C73.7772761,31.0886644 73.4138497,30.8778241 73.1925323,30.597476 C73.1529281,30.6971038 73.0900274,30.9287965 73.0550825,31.0585444 C73.0061597,31.2392646 72.9595666,31.4084003 72.9106438,31.5404651 L72.9036548,31.5590005 C72.8966659,31.575219 72.8920066,31.5914374 72.8826879,31.6169236 C72.7918313,31.8555671 72.5821622,32.4208971 71.9461659,32.5251588 C71.7737713,32.5529619 71.6037063,32.5599127 71.4522787,32.5668635 C71.144764,32.580765 71.0259515,32.6271036 70.9863473,32.6525897 C70.9933363,32.6803929 71.0096439,32.7220975 71.0375997,32.7916053 C71.0935115,32.928304 71.1331157,33.0487842 71.1657309,33.1738982 C71.2961917,33.6094804 71.3870483,34.2443182 71.2822137,34.8003805 C71.4313117,34.7795282 71.5943877,34.7633097 71.762123,34.7633097 C72.2816365,34.7633097 72.8291058,34.8745222 73.2996965,35.0784117 L73.3253227,35.0899963 C74.2571854,35.5394801 75.1773999,36.5705123 75.1284771,37.8610403 L75.1261474,37.8957942 C75.0189832,39.0125528 74.3946352,40.0667543 73.2228178,41.1093712 C73.5256732,41.1904636 73.8518251,41.2924084 74.1476916,41.4962979 C74.9956866,42.0616279 75.3614427,43.0741248 75.1517736,44.2766096 L75.135466,44.357702 C75.0003459,44.9740045 74.5437332,45.0226599 74.4062835,45.0226599 C74.2245702,45.0226599 74.049846,44.9508352 73.9100666,44.8234042 C73.8821107,44.7979181 73.8518251,44.7701149 73.8215396,44.7423118 C73.7516499,44.675121 73.6724416,44.5986624 73.6048815,44.5615916 C73.4231683,44.4550129 73.1599171,44.3994067 72.8803583,44.3414835 C72.6706892,44.2974619 72.4307345,44.2488065 72.2000985,44.1677141 C71.1494233,43.8085905 70.4854711,43.2455773 70.2268792,42.4925763 C70.0707922,42.0361418 70.1406819,41.4847133 70.4155814,40.9819402 L70.4365483,40.9448694 C70.7580409,40.4397795 71.2099944,40.0088311 71.6106953,39.6265383 C72.1768019,39.0890113 72.712623,38.5769706 72.8221168,37.965302 C72.8384244,37.8540896 72.8733693,37.6478831 72.5006242,37.367535 C72.3515262,37.2841257 72.1465164,37.2401041 71.91821,37.2401041 C71.5850691,37.2401041 71.2099944,37.3327811 70.9164576,37.4903321 L70.90015,37.4995998 C70.438878,37.7266586 69.9752763,38.0371268 69.5186635,38.3383272 C68.7894809,38.8248817 68.0346722,39.3253378 67.1587212,39.6103198 C66.7533609,39.7864062 66.3247041,39.8721325 65.94497,39.9485911 C65.4627311,40.045902 65.008448,40.138579 64.6869553,40.3888071 L64.6426919,40.421244 C64.5029125,40.5116042 64.3584737,40.6158659 64.2186943,40.7154937 C63.7970265,41.0190111 63.3194468,41.3642331 62.7416919,41.5148333 C62.5180449,41.588975 62.3083758,41.619095 62.1359812,41.6422643 C61.9169934,41.6747012 61.7888623,41.6955536 61.6980057,41.7604275 C61.6024898,41.8276184 61.5093035,41.8948092 61.4137876,41.964317 L61.3998096,41.9735847 C61.003768,42.2608836 60.596078,42.5597671 60.1627619,42.7752413 C59.4312496,43.1366818 58.6834298,43.3174021 57.861061,43.4958054 C57.8191271,43.5050731 57.704974,43.6417718 57.6327546,43.7321319 C57.5092828,43.8804152 57.3578551,44.0657693 57.1458563,44.2117357 C56.5308269,44.6936564 55.8319299,45.1361893 54.8930782,45.1361893 C54.8092106,45.1361893 54.7230133,45.1338724 54.6484643,45.1269216 C54.0846873,45.0898508 53.604778,44.7260933 53.2902743,44.4550129 C52.6006959,43.854929 51.8505465,43.3127682 51.1236935,42.7914598 C50.000799,41.9828524 48.8383002,41.1441251 47.8225699,40.043585 C46.7579167,38.9476788 46.3735233,37.587643 46.0310638,36.3851582 C45.982141,36.2137057 45.9332182,36.0399362 45.8796361,35.8592159 C45.7887795,35.5278954 45.7025822,35.1896242 45.6210442,34.8606206 C45.2040356,33.1924336 44.8103236,31.6192406 43.2424646,30.6067437 C42.9908617,30.4445589 42.8557416,30.1618938 42.8860271,29.872278 C42.9186423,29.5780284 43.1189928,29.3208496 43.3985516,29.2165879 C43.5220234,29.1702493 43.7386815,29.1215939 43.9996031,29.1215939 C44.0089217,28.9501413 44.0718224,28.7879565 44.1859756,28.6582086 C44.2954695,28.5330946 44.5028089,28.3778605 44.8662354,28.361642 L44.8941913,28.361642 C45.9728224,28.361642 46.7416091,28.9779444 47.4032316,29.6174161 C47.6408566,29.4135266 47.9320637,29.1957355 48.330435,29.1146431 L48.4375993,29.0937908 L48.5540821,29.1076923 C48.9477941,29.1609816 49.2925833,29.2050032 49.6373725,29.1887847 C49.9518762,29.0891569 50.2780281,28.9686767 50.5995208,28.8481966 C50.8464644,28.7555195 51.1027266,28.6582086 51.3636482,28.5724823 L51.4894497,28.5330946 L51.6036028,28.5377284 C52.3094888,28.5632146 52.7055305,29.181834 52.8546285,29.4158435 L52.8825844,29.4598651 L52.9035513,29.5085206 C52.9291775,29.5664438 52.9478148,29.6197331 52.9617927,29.6753393 C52.9617927,29.6730224 52.9617927,29.6707054 52.9641224,29.6683885 L53.0060562,29.5224222 C53.0969128,29.1957355 53.1947584,28.8597812 53.4090868,28.6072362 C53.6071077,28.3778605 53.8796775,28.2550634 54.1941812,28.2550634 L54.1941812,28.2550634 C54.310664,28.2550634 54.4154986,28.2712819 54.4923772,28.2828665 C54.5040255,28.2851834 54.5180035,28.2875004 54.5273221,28.2875004 C54.5389704,28.2759157 54.5506187,28.2643311 54.5599373,28.2527465 C54.6834091,28.1206817 54.8697816,27.921426 55.1749667,27.8287489 C55.4615145,27.7360719 55.7503919,27.6596133 56.0369397,27.5854717 C56.3793992,27.4951115 56.7381664,27.4024345 57.059659,27.2773205 L57.0946039,27.2657358 C57.3508661,27.1846434 57.6280953,27.103551 57.921632,27.1105017 C58.3805744,27.1105017 58.6647926,27.2865882 58.9000879,27.478893 C59.2891406,27.7916781 59.4452276,28.1322663 59.5337545,28.4635868 C59.591996,28.4728545 59.6572263,28.489073 59.7457533,28.5168761 C60.2256626,28.6744271 60.6939236,29.5525422 60.6985829,29.5618099 C60.7311981,29.6243669 60.7708023,29.684607 60.8034175,29.7332625 C60.92223,29.9139827 60.9804714,30.1016538 60.9781417,30.2939587 C60.9734824,30.755027 60.6123856,31.1118337 60.1487839,31.1257352 L60.0719053,31.1280522 C60.0346307,31.1280522 59.1307239,31.132686 58.872132,31.1280522 L58.8488354,31.1280522 C58.7346823,31.1211014 58.6321774,31.100249 58.5389911,31.0678121 C58.5320021,31.0770798 58.5273428,31.0840306 58.5226835,31.0909813 C58.4527938,31.1743907 58.3782448,31.3690125 58.2803992,31.417668 C58.2873882,31.4223018 58.3083551,31.4292526 58.315344,31.4338865 L58.566947,31.4084003 C58.7276933,31.3921818 58.8930989,31.3829141 59.0585046,31.3829141 C59.6339298,31.3829141 60.1557729,31.4779081 60.6589788,31.5682682 C61.1062729,31.6470437 61.553567,31.6030221 62.0031907,31.6030221 C62.0474542,31.6030221 62.0940473,31.6030221 62.1406405,31.6007052 L62.1662667,31.6007052 C62.3596282,31.6007052 62.5529897,31.5844867 62.7626588,31.5659513 C62.972328,31.5450989 63.2122826,31.5242466 63.4568966,31.5242466 C63.5454235,31.5242466 63.6269615,31.5265635 63.7108292,31.5311974 C63.9461245,31.542782 64.1674419,31.5844867 64.370122,31.6493606 C64.3910889,31.5358312 64.4167152,31.3991326 64.4493304,31.2299969 L64.4819456,31.0886644 C64.5984284,30.5858914 64.7754823,29.8259395 65.6817188,29.2397571 L65.8168389,29.1517139 C66.2385068,28.8783166 66.4924394,28.7114979 67.1214467,28.6188208 C67.2845227,28.5933347 67.5850484,28.6002854 67.7760802,28.646624 C68.5681636,28.8157596 69.4511035,28.6095531 70.1593191,28.0975124 L70.2222199,28.0581247 C70.2804613,28.0256877 70.3596696,27.9584968 70.4365483,27.8936229 C70.5996243,27.7569242 70.8023044,27.5854717 71.0748743,27.4858438 C71.2542578,27.4140191 71.4452897,27.3769483 71.6502995,27.3769483 L71.6619478,27.3769483 C72.0510005,27.3769483 72.2629992,27.4951115 72.4190862,27.5808378 C72.4190862,27.5831547 72.4214159,27.5831547 72.4214159,27.5831547 C72.4470421,27.5484008 72.4726683,27.51133 72.4982946,27.4765761 C72.6101181,27.3213421 72.7475678,27.1290372 72.9479183,26.946 C73.329982,26.5822425 73.8075617,26.5405378 74.1337136,26.5405378 C74.2851413,26.5405378 74.4342393,26.5498056 74.5623705,26.5590733 C74.6089636,26.5637071 74.6578864,26.566024 74.7068092,26.568341 C74.7976658,26.5729748 74.8815334,26.5752917 74.9374452,26.5822425 C75.0329611,26.5938272 75.0958619,26.6077287 75.1284771,26.6169964 C75.2962124,26.4941993 75.4732663,26.4756639 75.5524746,26.4756639 C75.6200346,26.4756639 75.6875947,26.4872485 75.7551547,26.505784 L76.5053042,26.7513782 C76.7196327,26.818569 76.8920273,26.9714862 76.9782246,27.166108 C77.1413005,27.5298654 76.9805542,27.8704536 76.8617417,28.1183647 L76.8617417,28.1183647 Z" id="path3651" fill="#EAF4FE" fill-rule="nonzero"></path>
                <path d="M32.7888354,32.6037031 C32.7585498,32.5759 32.7259347,32.5457799 32.6956491,32.5179768 C32.5185952,32.3581089 32.2972778,32.1542194 32.1225535,31.8970405 C31.9967521,32.1078808 31.9128844,32.260798 31.847654,32.4021305 C32.1318722,32.4415182 32.41842,32.5295614 32.649056,32.6315062 C32.7003084,32.6315062 32.7492312,32.6338231 32.798154,32.6361401 C32.7958244,32.6268723 32.791165,32.6152877 32.7888354,32.6037031 M41.9933093,30.8451559 L41.5995974,31.0397777 C41.2594675,31.2459842 41.0311611,31.6236432 40.7888768,32.0267884 C40.6770533,32.2167764 40.5582408,32.4137151 40.4301096,32.5921185 C40.3066378,32.7728387 40.1342432,32.9257559 39.9967935,33.048553 C39.9711673,33.0717222 39.9385521,33.0995253 39.9129258,33.1250115 C39.4889283,34.2811578 39.0393045,35.6319259 38.9298107,37.1008573 C38.9018548,37.4669316 38.6875264,38.0925018 38.452231,38.4979639 L38.4429124,38.5095485 C37.7696416,39.6031378 36.2064419,41.4126573 36.1155853,41.5099682 C36.0550142,41.5702083 35.9921135,41.6350823 35.9362017,41.6883716 L35.8942679,41.7277593 L33.1079984,44.0331011 L33.0660645,44.0655381 C32.478991,44.4756341 32.2669923,44.5683111 31.8103795,44.7351298 C31.0951749,44.9923087 30.0980818,44.9552378 29.3782178,44.6494036 L29.3316247,44.6262343 C29.0916701,44.4988033 28.8656934,44.3574708 28.6467056,44.2184552 C28.3135647,44.0076149 27.999061,43.8083593 27.6822277,43.7017806 L27.6216566,43.6786114 C27.3490868,43.5581312 27.0369128,43.4608203 26.7363871,43.3681432 C26.0770942,43.1665706 25.331604,42.934878 24.714245,42.3718649 C24.5628173,42.2351662 24.4393455,42.1193199 24.3345109,42.022009 C24.1854129,41.8806765 24.0433038,41.7486117 23.9850624,41.7092239 C23.9687548,41.706907 23.9361396,41.7045901 23.8662499,41.7045901 C22.8225637,41.7045901 22.0467879,41.4381435 21.2733419,40.8079395 L21.2477157,40.7870872 C20.7747953,40.3607727 20.3111936,39.9622614 19.8219657,39.7954427 C19.6216152,39.7259349 19.3676826,39.6958149 19.0881238,39.6680117 L19.0601679,39.6656948 C18.5919069,39.6239901 18.4917317,39.6147224 18.0397783,39.5081438 C17.247695,39.3251066 16.4789082,38.7319735 15.8615492,38.2546866 C15.5889793,38.0438463 15.4119254,37.9117815 15.3373764,37.8631261 C15.2837943,37.8260552 15.2162342,37.7866675 15.1626521,37.7542305 C14.484722,37.360353 13.8999782,37.0197648 13.1940922,37.0197648 L13.1591473,37.0197648 C12.7724243,37.0545187 12.4113275,37.3209653 12.2878557,37.6638704 C12.1713728,38.1087203 12.3088226,38.5535701 12.672249,38.9173276 C12.9075444,39.1490202 13.1847735,39.3853467 13.4550137,39.6124055 C13.9325934,40.0178676 14.3845468,40.3978436 14.722347,40.8496442 C15.2511791,41.5539899 15.197597,42.6568468 14.6012049,43.3055862 C14.1445921,43.8037254 13.3548385,44.0470027 12.7165125,44.2022368 L12.6629304,44.2138214 C12.6326449,44.2230891 12.590711,44.2300399 12.5487772,44.2369906 L12.5115027,44.2439414 C12.4392834,44.257843 12.3693936,44.2694276 12.2995039,44.2833292 C12.1760321,44.3041815 12.0595493,44.3250339 11.9477258,44.352837 C11.7310677,44.4130771 11.5074206,44.5659942 11.2721253,44.730496 C11.1020604,44.8463423 10.9273361,44.9645055 10.7316449,45.0687672 L10.2144611,45.3467984 L9.89296849,44.8579269 C9.65068418,44.4849018 9.54817928,44.0701719 9.58312413,43.5882512 L9.58545379,43.5534974 C9.69727732,42.6800161 10.391515,41.769464 11.2395101,41.3848542 L11.2581474,41.3779034 C11.2884329,41.3640019 11.3187184,41.3524173 11.349004,41.3408326 C11.5446951,41.2597402 11.7380567,41.2249863 11.9174402,41.2110847 C11.4584978,40.8287919 11.0018851,40.4233298 10.6035138,39.9344583 C9.82307878,39.0795124 9.77648565,37.6939904 10.1329231,36.7649029 C10.5895359,35.5461996 11.8219243,34.8673402 12.8469733,34.7329585 C13.0240272,34.7074723 13.2034108,34.6935707 13.3897833,34.6935707 C13.711276,34.6935707 14.0187907,34.7352754 14.3076681,34.7931986 C14.3099978,34.7885647 14.3099978,34.7839308 14.3099978,34.779297 C14.3309647,34.3228625 14.3449426,34.0309298 14.3775578,33.8548434 C14.4521068,33.4725505 14.6245014,33.048553 14.7409843,32.7682049 C14.7433139,32.7589372 14.7479732,32.7496694 14.7526325,32.7404017 C14.5243262,32.5967523 14.1888556,32.4623706 14.0583948,32.4276167 C13.8766816,32.4067643 13.6809904,32.3951797 13.5365517,32.3882289 C13.4363765,32.3835951 13.3571681,32.3766443 13.317564,32.3720104 C13.1009059,32.3488412 12.9075444,32.258481 12.7514574,32.1078808 C12.5534365,31.9178929 12.434624,31.6143755 12.2715481,31.1950118 C12.2063177,31.0281931 12.1387576,30.8567406 12.0735272,30.7154081 C12.0176155,30.6343156 11.9430665,30.560174 11.8568692,30.4929831 C11.7450456,30.6922388 11.5633324,30.8382052 11.4468496,30.9285653 L11.4468496,30.9285653 L11.4282123,30.9447838 C11.1393349,31.1741595 10.6967001,31.1811103 10.3752074,30.9633192 C10.3286143,30.9308822 10.2796915,30.9007622 10.2330984,30.8683252 L10.1934942,30.842839 C9.99314373,30.7107742 9.76483736,30.560174 9.52255306,30.3586014 C9.36180674,30.2265366 9.24765356,30.024964 9.19407145,29.804856 C9.13815969,29.7979052 9.07991827,29.7840036 9.02633616,29.7608344 C8.6466021,29.6056003 8.2156156,29.1653843 8.1830004,28.7205344 C8.17135212,28.5606665 8.14805555,28.2640999 8.12475898,28.1806905 C8.12009967,28.1737398 8.10845139,28.1598382 8.08515482,28.1366689 C7.82889257,27.8493701 7.7520139,27.3396463 8.08282516,27.0106427 C8.30414256,26.7882178 9.16378591,26.558842 9.33385086,26.558842 L9.37578468,26.558842 L9.48061923,26.5727436 L9.52954203,26.5866452 C9.58312413,26.6028637 9.63204693,26.623716 9.6763104,26.6468853 L9.87666089,26.6283498 C9.98149544,26.6190821 10.1026376,26.5935959 10.2470763,26.561159 C10.473053,26.5125035 10.7293153,26.4568973 11.0042148,26.4568973 C11.3000812,26.4568973 11.5703214,26.5240882 11.810276,26.6515191 C12.2435922,26.8600425 12.4579206,27.2261169 12.6163373,27.4971973 C12.6606007,27.5736558 12.7071939,27.6547482 12.753787,27.7173053 C12.7770836,27.7103545 12.8027098,27.7034037 12.8236767,27.6987698 C12.9424892,27.6663329 13.0892576,27.6269451 13.2523336,27.6199944 C13.9512306,27.5806066 14.5639303,27.9744841 14.8644561,28.2108106 C14.9832686,28.3058046 15.0974217,28.4100663 15.1999266,28.5050602 C15.3140798,28.6116389 15.4305627,28.7228513 15.5353972,28.7923591 C15.6402318,28.8363807 15.7846705,28.8572331 15.9640541,28.8572331 C16.2669095,28.8572331 16.6140283,28.7923591 16.8959168,28.7413867 C17.5086165,28.5861527 18.1655797,28.6602943 18.659467,28.9383255 C18.9250478,29.0889257 19.1929584,29.2279413 19.4096165,29.3414707 L19.446891,29.3600061 C19.5633738,29.4225631 19.6682084,29.4758524 19.752076,29.5221909 C20.2552819,29.7955883 20.6326863,30.3910384 20.8633223,30.8451559 C20.9751458,31.0675809 21.1452108,31.4823107 21.1918039,31.598157 C21.238397,31.5958401 21.2849902,31.5958401 21.333913,31.5958401 L21.333913,31.5958401 C21.6647242,31.5958401 22.0071838,31.6491294 22.3100392,31.6954679 C22.5197083,31.7279049 22.7177291,31.7603419 22.8668271,31.7672926 L22.8924534,31.7696096 C22.9530244,31.7742434 23.0135955,31.7765604 23.0741666,31.7765604 C23.377022,31.7765604 23.8173271,31.7418065 24.1481384,31.7047356 C24.4230379,31.6746156 24.6117401,31.6468125 24.9751665,31.630594 C25.0240893,31.6282771 25.0776714,31.6236432 25.1335832,31.6190094 C25.2477364,31.6097416 25.3805268,31.6004739 25.5226359,31.6004739 C25.8930513,31.6004739 26.1959067,31.6862002 26.4428503,31.8089973 C26.51274,31.7394895 26.6292228,31.5773047 26.7084312,31.5124307 C26.6967829,31.5124307 26.6851346,31.5124307 26.6734863,31.5124307 C26.4358613,31.5124307 26.2168736,31.4151198 26.0677756,31.2575688 C25.8604361,31.3548797 25.5203062,31.3548797 25.2104619,31.3293936 C24.8423761,31.3015904 24.5115648,31.2459842 24.1411494,31.1672087 C23.8662499,31.1092855 23.6658994,30.9772207 23.5517462,30.7269927 C23.4352634,30.4698138 23.451571,30.1755642 23.5960097,29.9183854 C23.7870416,29.582431 23.9710844,29.2742798 24.164446,28.952227 L24.2506433,28.8085776 C24.3391702,28.6602943 24.558158,28.4123832 25.0240893,28.4123832 C25.0800011,28.4123832 25.1452315,28.4147001 25.2151212,28.419334 C25.2197805,28.419334 25.2267695,28.419334 25.2337584,28.4216509 C25.2454067,28.4007986 25.257055,28.3776293 25.2710329,28.356777 C25.4108123,28.1065489 25.5832069,27.7960808 25.8930513,27.5528035 C26.2052253,27.2863569 26.6362118,27.1357567 27.0788466,27.1357567 C27.2768674,27.1357567 27.4678993,27.1635598 27.6496125,27.2191661 C28.4906186,27.4832957 29.3129875,27.7520592 30.1143894,28.1598382 L30.2192239,28.1598382 L30.2844543,28.1644721 C30.3357068,28.1691059 30.3869592,28.1737398 30.4405413,28.1760567 C30.762034,28.199226 31.2489322,28.2362968 31.6193477,28.6255404 L31.6542925,28.6626112 L31.6822484,28.7043159 C31.8290168,28.9151562 31.9641369,29.1259965 32.0876087,29.3414707 C32.0945977,29.3159845 32.1015866,29.2904983 32.1085756,29.2626952 L32.1155646,29.2464767 C32.3042668,28.6950482 32.872703,28.449454 33.354942,28.449454 L33.3828979,28.449454 C33.9280376,28.4726233 34.4009579,28.6440758 34.8179664,28.7923591 L34.848252,28.8039438 C34.9064934,28.8247961 34.9647348,28.8456484 35.0253059,28.8665008 L35.0672397,28.8827193 C35.384073,29.0194179 35.8453451,29.0425872 36.4021331,28.952227 L36.4743524,28.9406424 L36.5465718,28.9452763 C37.1336453,28.9823471 37.5879284,29.2650121 37.9606735,29.5662125 C38.6688891,28.8247961 39.5704663,28.4471371 40.6374491,28.4471371 C40.6747236,28.4471371 40.7143278,28.4471371 40.7562616,28.449454 L40.9286562,28.4610386 L40.977579,28.4726233 C41.3270275,28.5537157 41.5623228,28.8178453 41.5926084,29.1607504 C41.5995974,29.2279413 41.5972677,29.2951322 41.5856194,29.3600061 C41.6508498,29.3669569 41.7137505,29.3762246 41.7743216,29.3901261 C42.1051329,29.4619509 42.3520765,29.7168128 42.4009993,30.0388655 C42.4545814,30.3840876 42.2984944,30.6922388 41.9933093,30.8451559" id="path3655" fill="#EAF4FE" fill-rule="nonzero"></path>
                <path d="M58.0266898,30.6894575 C57.9870857,30.738113 57.903218,30.7473807 57.8589545,30.7473807 C57.8379876,30.7473807 57.8193504,30.7450637 57.8007131,30.7427468 C57.6609337,30.7242114 57.5328026,30.7149437 57.3976825,30.7149437 C57.3208038,30.7149437 57.2532438,30.7195775 57.190343,30.7218945 C57.1367609,30.7242114 57.0855085,30.7242114 57.034256,30.7242114 C56.9503884,30.7242114 56.8828283,30.7195775 56.8152683,30.7079929 L56.8012904,30.705676 L56.7919717,30.6917744 C56.7826531,30.673239 56.5217315,30.2191214 56.5566764,29.9341395 C56.5939509,29.6259883 56.9107842,29.5634313 57.1507389,29.5147758 C57.2369362,29.4962404 57.3371114,29.4800219 57.434957,29.4800219 C57.6073516,29.4800219 57.7215048,29.5356281 57.7774166,29.6514745 C57.9218553,30.0198658 58.0057229,30.3210662 58.0476567,30.6014143 C58.0546457,30.643119 58.0406678,30.673239 58.0266898,30.6894575" id="path3659" fill="#97A3C3"></path>
                <path d="M75.1850867,29.6690842 C75.0359887,29.8822415 74.7773968,30.053694 74.5677277,30.1927096 C74.4722118,30.2552666 74.3883441,30.3108729 74.3301027,30.3618452 L74.2881689,30.3919653 C74.2392461,30.43367 74.1833343,30.4522054 74.1181039,30.4522054 C73.8851383,30.4522054 73.6265464,30.1718573 73.621887,30.0768633 C73.6148981,29.9355308 73.8175782,29.6853027 74.0808294,29.3725177 L74.1367412,29.3076437 C74.2695316,29.1500927 74.4139704,29.0643664 74.565398,29.0527818 L74.5677277,29.0527818 C74.721485,29.0527818 74.8426272,29.1037542 74.973088,29.2242344 C75.0686039,29.3122776 75.2806027,29.5323856 75.1850867,29.6690842" id="path3663" fill="#97A3C3"></path>
                <path d="M76.2837431,27.8500638 C76.244139,27.9334731 76.2068645,28.0145655 76.1928865,28.0724887 C76.16959,28.1744335 76.155612,28.2856459 76.1439637,28.3922245 C76.1206672,28.5636771 76.1020299,28.7258619 76.0461181,28.850976 C75.9832174,29.0015762 75.8038338,29.1174225 75.6337689,29.1174225 C75.5731978,29.1174225 75.5149564,29.103521 75.4613743,29.0757178 C75.2027824,28.9482869 75.0513547,28.8115882 75.0932885,28.5219724 C75.2330679,28.1026087 75.3052873,27.7967745 75.3984736,27.3843615 C75.4077922,27.3218045 75.4520557,27.1132812 75.5522309,27.1132812 C75.5592199,27.1132812 75.5662088,27.1132812 75.5755275,27.1155981 L76.3163583,27.3588754 C76.3536328,27.37046 76.3792591,27.3936293 76.393237,27.4260662 C76.4375005,27.5233771 76.3606218,27.6901958 76.2837431,27.8500638" id="path3667" fill="#97A3C3"></path>
                <path d="M28.3203174,30.0761669 C28.3016802,30.1086039 28.2807133,30.1456747 28.2574167,30.1920133 C28.1921863,30.3148104 28.1549118,30.4445582 28.1246262,30.5580876 C28.0570662,30.7874633 28.0011544,30.9844021 27.7542108,30.9496482 C27.3977733,30.8986758 27.0553138,30.8755066 26.6732501,30.8755066 C26.6685908,30.8755066 26.5474486,30.8755066 26.5125037,30.7920972 C26.4682403,30.6947863 26.5660859,30.6067431 26.6685908,30.514066 C26.7268322,30.4607767 26.7850736,30.4051705 26.8270074,30.3472473 C26.8992268,30.2429856 26.9667868,30.0947023 27.0320172,29.9510529 C27.1345221,29.7216772 27.2253787,29.5247384 27.3325429,29.4923015 C27.3744768,29.4783999 27.4233996,29.4714491 27.4793113,29.4714491 C27.7169363,29.4714491 28.0500772,29.601197 28.2900319,29.7865511 C28.4228223,29.9000805 28.3808885,29.9742222 28.3203174,30.0761669" id="path3671" fill="#97A3C3"></path>
                <path d="M11.0470715,30.4325103 L11.0284342,30.4487288 C10.9562148,30.5066519 10.8210948,30.4973842 10.7348975,30.4371441 C10.6719967,30.3954395 10.6114256,30.3560517 10.5485249,30.314347 C10.3505041,30.1845992 10.1478239,30.0502174 9.93116586,29.8718141 C9.85428719,29.8069402 9.81235337,29.6818261 9.80303474,29.5868321 C9.79604577,29.5103736 9.81002371,29.4501335 9.8426389,29.4130627 C9.8589465,29.3945273 10.0173632,29.2207578 10.0499784,29.1929547 C10.1012308,29.148933 10.1850985,29.0933268 10.3015813,29.0933268 C10.3668117,29.0933268 10.439031,29.1118622 10.5112504,29.148933 C10.8933141,29.338921 11.2870261,30.0409497 11.3033337,30.0849713 C11.3429379,30.1961838 11.2124771,30.3004455 11.0470715,30.4325103" id="path3675" fill="#97A3C3"></path>
                <path d="M9.78998786,28.7666406 C9.71310918,28.8755362 9.45218762,29.1790535 9.30308959,29.1790535 C9.2914413,29.1790535 9.27979302,29.1767366 9.26814474,29.1721027 C9.06546459,29.0910103 8.83016926,28.8291976 8.81852098,28.6739636 C8.76726853,27.9927872 8.74863127,27.9209625 8.56225873,27.7124391 C8.50867662,27.6545159 8.47373177,27.5201342 8.53430285,27.4598941 C8.5855553,27.4089217 9.25882611,27.1957645 9.33337513,27.1957645 L9.34968272,27.1980814 C9.40792414,27.2142999 9.45917659,27.3672171 9.59429669,27.8375531 C9.6688457,28.0900981 9.75038369,28.377397 9.84356996,28.6368927 C9.85055893,28.6531112 9.85055893,28.6785974 9.78998786,28.7666406 L9.78998786,28.7666406 Z" id="path3679" fill="#97A3C3" fill-rule="nonzero"></path>
                <path d="M37.7002145,34.0110027 C37.6722586,33.841867 37.6326544,33.7607746 37.6116875,33.7213869 C37.588391,33.6796822 37.5487868,33.591639 37.4229853,33.591639 C37.2855356,33.5893221 37.2948542,33.7515069 37.2948542,33.7746762 C37.2948542,33.7746762 37.2785466,34.2241599 37.1900196,34.4118309 C37.0968334,34.6180374 36.6425503,35.1995859 36.3816287,35.1740997 C36.3140687,35.167149 36.1440038,35.0652042 36.0158726,34.9007024 C35.8621153,34.7014467 35.8621153,34.6782775 35.8155221,34.6481574 C35.768929,34.6180374 35.7060283,34.6342559 35.6850614,34.7501022 C35.6640945,34.8682655 35.6431275,34.9632594 35.6990393,35.1880013 C35.7526214,35.4127432 35.8085332,35.4613986 35.8760932,35.6235835 C35.8760932,35.6235835 36.0112133,35.9363685 36.0624658,36.015144 C36.2045748,36.2259843 36.393277,36.2120828 36.393277,36.2120828 C36.4421998,36.2097658 36.6052758,36.2306182 36.7800001,36.0128271 C36.9803505,35.762599 36.9384167,35.7857683 36.9943285,35.6954082 C37.0502402,35.607365 37.1108113,35.5146879 37.2785466,35.3339677 C37.4439522,35.1532474 37.6279951,34.8010746 37.6792476,34.5832835 C37.7305,34.3654924 37.7258407,34.1801383 37.7002145,34.0110027 M36.4421998,31.1380139 C36.4421998,31.1380139 36.4212329,30.9318075 36.3233873,30.8437643 C36.2255417,30.7557211 35.8760932,30.7070656 35.6920503,30.7140164 C35.5103371,30.7209672 35.4451067,30.7464533 35.4078322,30.8020596 C35.3635687,30.8646166 35.4334584,30.9897306 35.4334584,30.9897306 C35.456755,31.0337522 35.6734131,31.4786021 36.1043996,31.5944484 C36.1043996,31.5944484 36.2465087,31.6454208 36.3792991,31.5805469 C36.5097599,31.5156729 36.4491888,31.1843524 36.4421998,31.1380139 M31.8248201,38.4154798 C31.8108421,38.3621905 31.7758973,38.3274366 31.7409524,38.3274366 C31.7246448,38.3274366 31.6850407,38.3367043 31.6710627,38.4038952 C31.5289537,39.133727 31.4404267,39.4928506 31.2750211,39.8311218 C31.2191093,39.9400174 31.1538789,40.0303775 31.0956375,40.109153 C30.9721657,40.2782886 30.8650015,40.4219381 30.9861436,40.6165599 C31.0210885,40.6744831 31.1072858,40.7138708 31.2028017,40.7138708 C31.2517245,40.7138708 31.295988,40.7046031 31.3332625,40.6860677 C31.4753716,40.6188768 31.6128213,40.4497412 31.7549304,40.1647593 C32.1090382,39.4441951 31.8271497,38.4270644 31.8248201,38.4154798 M41.7072242,30.2761173 C41.5161923,30.3711113 41.2925453,30.4823237 41.2925453,30.4823237 C40.8009877,30.7673057 40.5167695,31.2422756 40.24187,31.6987101 C40.1347058,31.8794304 40.0228823,32.0647845 39.9017401,32.2339201 C39.8225318,32.3497664 39.6874117,32.4702466 39.5685992,32.5768252 C39.4660943,32.6671853 39.3682487,32.7552286 39.3496115,32.803884 C38.8999877,34.0225873 38.4107598,35.4590817 38.2919473,37.0531271 C38.2733101,37.2987213 38.1009155,37.8292974 37.8982353,38.1791533 C37.2599094,39.2125025 35.7339842,40.9849512 35.6501165,41.0729944 C35.5965344,41.1286006 35.538293,41.1842069 35.4893702,41.2328623 L35.4474364,41.274567 L32.6984414,43.5451549 C32.1533017,43.9251308 31.9855664,43.9946386 31.5918544,44.1359711 C31.3402515,44.2286482 31.0397257,44.2749867 30.7275517,44.2749867 C30.338499,44.2749867 29.9494464,44.2008451 29.6302834,44.0664633 C29.4112956,43.950617 29.1992969,43.8139184 28.9919574,43.6841705 C28.6401792,43.4594286 28.2790824,43.2300529 27.8830408,43.0979881 C27.5778557,42.9612894 27.2447148,42.8593447 26.9255518,42.7597168 C26.3012038,42.5697289 25.6582186,42.3704732 25.1456941,41.904771 C24.996596,41.7680723 24.8754539,41.6545429 24.772949,41.559549 C24.3023583,41.117016 24.2534355,41.0706775 23.8667125,41.0706775 C22.9697946,41.0706775 22.336128,40.8528864 21.6768351,40.3153595 C21.154992,39.8450234 20.6354785,39.4024905 20.0320974,39.1939671 C19.7618572,39.10129 19.4613315,39.0665361 19.1444982,39.0340992 C18.6878855,38.9947114 18.6179957,38.9900776 18.1846796,38.8881328 C17.5323757,38.7375326 16.8404676,38.2046395 16.2557238,37.7528388 C16.0646919,37.6045556 15.8061,37.4076168 15.6872875,37.3288413 C15.6243868,37.2894536 15.5475081,37.243115 15.486937,37.2060442 C14.7600841,36.7843636 14.0728354,36.3835353 13.1945547,36.3835353 C13.1712582,36.3835353 13.1502913,36.3835353 13.1293244,36.3858523 C12.4746908,36.4321908 11.875969,36.8816745 11.6756185,37.4771246 C11.4915756,38.1490333 11.6895965,38.8371604 12.2207582,39.3654196 C12.4746908,39.6179646 12.7635682,39.8612419 13.0407974,40.0975684 C13.4904212,40.4775443 13.9144187,40.8366679 14.2102851,41.2305454 C14.5527447,41.6869799 14.5154701,42.4585164 14.1287471,42.8778801 C13.7443537,43.2972438 12.8870401,43.5057672 12.5632178,43.5845426 L12.507306,43.5984442 C12.4770205,43.605395 12.418779,43.6123458 12.3884935,43.6192965 C12.1834837,43.6586843 11.9877925,43.6888043 11.787442,43.7374598 C11.2772472,43.8741585 10.8812056,44.2680359 10.4292521,44.5113132 C10.2545279,44.2448667 10.1962865,43.9552509 10.219583,43.6331981 C10.30811,42.9543387 10.8742166,42.249993 11.5055536,41.9650111 C11.5311798,41.9534264 11.5591357,41.9418418 11.5847619,41.9325741 C11.7851124,41.8468478 11.9947815,41.8352632 12.1928023,41.8352632 C12.2347362,41.8352632 12.27667,41.8352632 12.3186038,41.8375801 C12.3628673,41.8375801 12.4048011,41.8375801 12.4467349,41.8375801 C12.5678771,41.8375801 12.7146454,41.8375801 12.8474359,41.8051432 C12.968578,41.7727062 13.0967092,41.652226 13.1130168,41.4993089 C13.1223354,41.4089487 13.0827312,41.3394409 12.9662484,41.2490808 C12.8614138,41.1610376 12.7542496,41.0753113 12.6470854,40.9849512 C12.1042754,40.5401013 11.5428281,40.079033 11.088545,39.5206537 C10.4758453,38.8626466 10.4502191,37.7250357 10.7344372,36.9859362 C11.0978636,36.0128271 12.1019457,35.4706663 12.9382925,35.3640877 C13.0850609,35.3409184 13.2341589,35.3293338 13.3902459,35.3293338 C13.8818035,35.3293338 14.3500645,35.4451801 14.8043476,35.5610265 C14.8206552,35.5633434 14.8346331,35.5656603 14.8462814,35.5656603 C14.8672483,35.5656603 14.9068525,35.5656603 14.9138415,35.4637155 C14.9278194,35.2621429 14.937138,35.0327672 14.9464567,34.8126592 C14.9650939,34.4535356 14.9790718,34.1152644 15.0070277,33.9739319 C15.0675988,33.654196 15.2260155,33.2649524 15.3331797,33.0100905 C15.3774432,32.9011949 15.412388,32.8154686 15.4240363,32.771447 C15.4659701,32.6254807 15.4263659,32.4679297 15.3285204,32.3775695 C14.9837312,32.0647845 14.2871638,31.8145564 14.1590327,31.8006549 C13.9516932,31.7728518 13.7303758,31.7612671 13.5696295,31.7519994 C13.4880915,31.7496825 13.4228611,31.7450486 13.3902459,31.7427317 C13.3133672,31.733464 13.2504665,31.703344 13.1968844,31.6523716 C13.0990388,31.5573776 12.9918746,31.2816633 12.8660731,30.9642444 C12.7915241,30.7742565 12.7146454,30.5773177 12.6354371,30.4128159 C12.4164494,30.0490585 12.0483636,29.8382182 11.6942558,29.6343287 C11.6033992,29.5833563 11.5148722,29.5323839 11.4310046,29.4790946 L11.4193563,29.46751 C11.2749176,29.2381342 11.1258195,29.0180262 10.939447,28.8535245 C10.7926786,28.7168258 10.6039764,28.6867058 10.4245928,28.6658534 L10.4129445,28.6635365 L10.4036259,28.6542688 C10.1263968,28.3368499 10.0378698,27.9174862 9.94934284,27.5097071 C9.9353649,27.4471501 9.92371662,27.3845931 9.90973868,27.3220361 L9.89809039,27.2664299 L9.93303525,27.261796 C10.0798036,27.2478944 10.226572,27.2177744 10.382659,27.1830205 C10.5853391,27.1389989 10.7973379,27.0949773 11.0046774,27.0949773 C11.2003685,27.0949773 11.3704335,27.1343651 11.5195315,27.2177744 C11.7851124,27.3405715 11.9272215,27.5815319 12.0646712,27.8155414 C12.1531982,27.9707755 12.2463844,28.1283265 12.3745156,28.2534405 C12.4513942,28.3345329 12.5399212,28.3739207 12.6587337,28.3739207 C12.7612386,28.3739207 12.8753918,28.3414837 12.9848856,28.3136806 C13.0850609,28.2858775 13.1898954,28.2603913 13.287741,28.2534405 C13.7769689,28.2256374 14.2405706,28.5314717 14.468877,28.709875 C14.5667226,28.7886505 14.6668978,28.8813276 14.7624138,28.9693708 C14.9115118,29.1083864 15.0629395,29.2520358 15.2260155,29.3516636 C15.4240363,29.4466576 15.6663206,29.4929962 15.962187,29.4929962 C16.3302728,29.4929962 16.7216551,29.4188545 17.0338291,29.3609313 C17.2015644,29.3192267 17.3716294,29.2960574 17.544024,29.2960574 C17.8398904,29.2960574 18.1171195,29.3632483 18.3454259,29.4929962 C18.6179957,29.6459133 18.8928952,29.7895627 19.111883,29.9030921 C19.2423438,29.970283 19.3541673,30.0305231 19.4450239,30.0791785 C19.8364062,30.2946527 20.1695472,30.8877859 20.293019,31.1310631 C20.4071722,31.3604388 20.6075226,31.8539442 20.6098523,31.858578 L20.6168413,31.8817473 L20.1625582,32.2292863 L20.1415913,32.1991662 C20.1392616,32.1922154 19.8410656,31.703344 19.6453744,31.4762852 C18.8416428,30.3850128 17.5277164,30.2436803 16.4770412,30.2436803 C16.4024921,30.2459972 16.3302728,30.2483142 16.2580534,30.2483142 C14.9534456,30.2483142 13.9051001,29.812732 13.1363133,28.9531523 C13.0990388,28.9137645 13.0384677,28.9068138 13.0105119,28.9415677 C12.9942043,28.96242 12.989545,28.994857 12.9988636,29.0342447 C13.0221601,29.1246049 13.0314788,29.150091 13.0850609,29.2497189 C13.9027704,30.4012313 15.2959052,30.5726839 16.4187997,30.5935362 C17.2481576,30.6491424 17.8538683,30.7904749 18.3780411,31.0569215 C19.0513119,31.3998266 19.5498585,32.1528277 19.7455496,32.7505947 C19.8736808,33.1421553 19.9365815,33.5615189 19.9994822,33.9646641 C20.0460754,34.2867169 20.0973278,34.6203543 20.1788658,34.9238717 C20.1928437,34.9678933 20.2347776,34.9910626 20.2720521,34.9910626 C20.2813707,34.9910626 20.2883597,34.9887456 20.3046673,34.9841118 C20.3466011,34.977161 20.4281391,34.944724 20.4281391,34.882167 C20.3139859,34.2496461 20.1602285,33.3807987 20.4514356,32.6556007 C20.5865557,32.3706188 20.8754332,32.2316032 21.3343756,32.2316032 C21.6139344,32.2316032 21.9167898,32.2779417 22.2103265,32.3242802 C22.4363032,32.3613511 22.6506316,32.393788 22.8370042,32.4030557 C22.9162125,32.4100065 22.9954208,32.4123234 23.0746292,32.4123234 C23.4403853,32.4123234 23.7944931,32.3428157 24.134623,32.2733079 C24.4328191,32.2130678 24.7403338,32.1528277 25.0571671,32.1366092 C25.1130789,32.1342923 25.1736499,32.1296584 25.2365507,32.1250246 C25.3460445,32.1157569 25.4601977,32.1064892 25.5743509,32.1064892 C25.8422614,32.1064892 26.0309636,32.1597785 26.1684134,32.2709909 C26.266259,32.3497664 26.2313141,32.4679297 26.1893803,32.616213 L26.1800617,32.6416992 C26.1730727,32.6671853 26.1660837,32.6949885 26.1544355,32.7251085 C26.0938644,32.9197303 26.0006781,33.2186138 26.1567651,33.3529956 C26.177732,33.371531 26.2126769,33.3831156 26.2406328,33.3831156 C26.2685886,33.3831156 26.3012038,33.3738479 26.3128521,33.3367771 C26.3314894,33.2788539 26.347797,33.2209308 26.3641046,33.1653245 C26.4316646,32.9266811 26.5015543,32.6810869 26.6553117,32.4725635 C26.9744746,32.0647845 27.4706915,31.6801747 28.0857209,31.3604388 C28.4817626,31.0893585 28.9616719,30.630607 28.9989464,29.9934523 C28.9989464,29.7038365 28.7170579,29.5022639 28.5073888,29.3771498 C28.1765775,29.2126481 27.6593937,29.0133924 27.3448901,29.0296109 C27.1328913,29.0388786 26.958167,29.1732603 26.9465188,29.1848449 C26.6250261,29.4767777 26.6623006,29.5787224 26.4526315,29.9285783 C26.340808,30.1139324 26.2243252,30.3062373 26.0798864,30.475373 C25.879536,30.695481 25.627933,30.7812072 25.2878031,30.7534041 C24.9593215,30.7279179 24.6564661,30.6653609 24.2953693,30.5889023 C24.2208203,30.5726839 24.1625789,30.5286623 24.134623,30.4661052 C24.1020078,30.3942805 24.1089968,30.3085543 24.1532603,30.2297788 C24.3396328,29.9007752 24.521346,29.5972578 24.7123779,29.277522 L24.7985752,29.1361895 C24.8451683,29.057414 24.9430139,29.0458294 25.0222223,29.0458294 C25.0664857,29.0458294 25.1154085,29.0504632 25.1643313,29.0527801 C25.2179134,29.057414 25.2738252,29.0620478 25.3274073,29.0620478 C25.4951426,29.0620478 25.5999771,29.0226601 25.6675372,28.9369338 C25.7257786,28.8512075 25.7770311,28.7562136 25.8282835,28.6658534 C25.954085,28.4411116 26.0822161,28.2094189 26.3012038,28.0426002 C26.496895,27.8688307 26.7811131,27.7715198 27.0793092,27.7715198 C27.2120996,27.7715198 27.3379011,27.7900552 27.4590433,27.8271261 C28.3186866,28.0958895 29.1596927,28.3716038 29.9564353,28.7956013 L30.2173569,28.7979182 C30.2755983,28.8025521 30.3338397,28.8071859 30.3944108,28.8118198 C30.6693103,28.8303552 30.9535284,28.8535245 31.1562086,29.0643648 C31.4124708,29.435073 31.6291289,29.8057812 31.8224904,30.1973418 C31.994885,30.5471977 31.9972147,30.8924197 31.8271497,31.1635001 C31.3192845,31.9697905 31.2284279,32.1829477 31.0210885,32.7343762 L31.0140995,32.7505947 L31.0001216,32.7552286 C30.9395505,32.771447 30.8789794,32.7946163 30.820738,32.8177856 C30.6972662,32.866441 30.5668054,32.9174134 30.4177074,32.9174134 L30.3990701,32.9174134 C30.2243459,32.9127796 30.1055334,32.8571733 30.0566106,32.7598624 L30.0496216,32.7459608 L30.9721657,30.9364413 C31.0304071,30.7951088 31.0979672,30.6514594 31.0630223,30.4406191 C31.0280774,30.2297788 30.5737944,29.5231162 30.4386743,29.4327561 C30.4060591,29.4095868 30.3781032,29.3980022 30.359466,29.3980022 C30.3478177,29.3980022 30.3012245,29.4072699 30.3315101,29.5138485 C30.4177074,29.8080981 30.5248716,30.4985422 30.4969157,30.7209672 C30.4643005,30.9758291 29.6908545,32.2478217 29.6582393,32.301111 L29.6442613,32.3242802 C29.5254488,32.5189021 29.401977,32.7181577 29.4112956,32.9544842 C29.4112956,33.0610628 29.5138005,33.1352045 29.5860199,33.1653245 C29.72114,33.21398 29.8469415,33.2348323 29.9867209,33.2626354 C30.3152025,33.3367771 30.6530027,33.4086018 30.7741449,33.591639 C31.1445603,34.1500183 31.363548,34.7338837 31.5079867,35.5401741 C31.5149757,35.574928 31.5406019,35.6421189 31.5918544,35.6421189 C31.6221399,35.6421189 31.6524255,35.6328512 31.6640738,35.5633434 C31.7991938,34.7987577 31.615151,33.9971011 31.1608679,33.3645802 C31.132912,33.3275094 31.1142748,33.2556847 31.1282527,33.1884938 C31.1375713,33.1236199 31.2121203,33.0726475 31.2121203,33.0726475 C31.3891743,32.9521673 32.0368188,33.0216751 32.5050799,33.2649524 C32.8615173,33.2580016 33.1993176,33.3228755 33.5254695,33.3831156 C33.6303041,33.401651 33.732809,33.4201864 33.8329842,33.4387218 C33.8655994,33.4201864 33.8912256,33.3923833 33.8982146,33.3668971 C33.6233151,33.0587459 33.4555798,32.711207 33.3693825,32.2779417 C33.2925038,32.2014831 33.2086362,32.1227076 33.1270982,32.048566 C32.8265725,31.7751687 32.5004205,31.4693344 32.4864426,31.0777738 C32.4864426,31.0777738 32.477124,30.9387582 32.6285517,30.9271736 C32.6774745,30.9225398 32.7310566,30.9480259 32.7846387,30.9688783 C32.8405504,30.9920475 32.8987918,31.0152168 32.9430553,31.008266 C32.9919781,31.0013153 33.026923,30.9619275 33.0315823,30.913272 L32.6867931,30.4128159 C32.558662,30.2042926 32.6145737,29.9818676 32.6658262,29.7687104 C32.7054303,29.6482302 32.6867931,29.5555532 32.7194083,29.4512915 C32.8056056,29.2033803 33.1107906,29.0829002 33.3554046,29.0829002 C33.8026987,29.1037525 34.208059,29.2497189 34.601771,29.3910514 C34.6716607,29.4165376 34.7415504,29.4420238 34.8137697,29.46751 C35.2447562,29.6528641 35.8201815,29.6922518 36.5051006,29.5787224 C37.0572292,29.6134763 37.4719081,29.9772338 37.8726091,30.3294066 C38.042674,30.3247727 38.2197279,30.222828 38.4037708,30.0282062 C38.9978333,29.3933683 39.7293455,29.0829002 40.635582,29.0829002 C40.6705269,29.0829002 40.7031421,29.0829002 40.7380869,29.0829002 L40.8312732,29.0921679 C40.9267891,29.1130202 40.9500857,29.1593587 40.954745,29.2172819 C40.961734,29.2891066 40.9081519,29.3586144 40.805647,29.4049529 L40.2977818,29.6737164 C39.8924215,29.9308952 39.4497867,30.2390465 39.3286446,30.6468255 C39.1958541,31.0800908 38.9512402,31.5226237 38.7671973,31.8191903 C38.7322524,31.8771134 38.6926483,31.9327197 38.6507145,31.9929598 C38.5784951,32.0949045 38.5039461,32.2014831 38.4526936,32.3126956 L38.4550233,32.3150125 C39.0094816,32.1157569 39.3169963,31.7102947 39.692071,31.0314353 C39.9693002,30.5263453 40.6914938,29.9841846 41.3764129,29.9841846 C41.4672695,29.9841846 41.5534668,29.9934523 41.6373345,30.0119877 C41.7118835,30.0282062 41.7584766,30.0722278 41.7701249,30.1371017 C41.7771139,30.1927079 41.7701249,30.2436803 41.7072242,30.2761173" id="path3683" fill="#97A3C3" fill-rule="nonzero"></path>
                <path d="M54.7642525,41.1179429 C54.6570883,41.0183151 54.5475944,40.9163703 54.4357709,40.8144256 C54.0420589,40.4576189 53.634369,40.0892276 53.3664584,39.6721809 C53.240657,39.5007283 53.1474707,39.3037896 53.0566141,39.1138016 C53.0472955,39.0929493 53.0263286,39.0512446 52.9820651,39.0512446 C52.9610982,39.0512446 52.9424609,39.0605123 52.921494,39.0790477 C52.846945,39.1555063 52.9098457,39.6791316 53.0076913,39.9432612 C53.2243494,40.5271267 53.7182366,41.1364784 54.3612219,41.6160821 C54.4287819,41.6601037 54.5173089,41.683273 54.5988469,41.683273 C54.7223187,41.683273 54.8131753,41.6299837 54.8527795,41.5326728 C54.9319878,41.4052418 54.9017023,41.2546416 54.7642525,41.1179429 L54.7642525,41.1179429 Z M50.1235762,34.6351828 C50.0630051,34.5540904 49.9651595,34.4938503 49.8719733,34.5401888 C49.785776,34.5726258 49.7065676,34.6838383 49.6576448,34.7695645 C49.5970738,34.8761432 49.5458213,34.9688202 49.4037123,34.9595525 C49.392064,34.9595525 49.4037123,34.9595525 49.3804157,34.9572356 C49.2546142,34.945651 49.1590983,34.8830939 49.0565934,34.8066354 C49.0053409,34.7672476 48.8026608,34.6166474 48.753738,34.5726258 C48.4765088,34.3409332 48.1992797,34.1022897 48.1340493,33.77792 C48.1037638,33.6620737 48.1037638,33.6620737 48.0944451,33.6064675 C48.0758079,33.4929381 48.054841,33.3747748 47.959325,33.3145348 L47.9500064,33.3099009 C47.9360285,33.305267 47.9220505,33.305267 47.9080726,33.305267 C47.8661388,33.305267 47.8218753,33.3214855 47.7892601,33.3492887 C47.7543152,33.3794087 47.7333483,33.4095287 47.7310187,33.4605011 C47.6820959,34.0165635 47.8731277,34.5193365 48.2668397,34.8738262 C48.5207723,35.0823496 48.7281118,35.3441623 48.9261326,35.5967073 C49.0216485,35.7218213 49.1218238,35.8492523 49.2243287,35.9650986 C49.3058667,36.046191 49.4316681,35.9766832 49.6459966,35.7496244 C49.7345235,35.6523135 50.0117527,35.1842944 50.1375541,34.8738262 C50.1841473,34.7394445 50.1235762,34.6351828 50.1235762,34.6351828 L50.1235762,34.6351828 Z M49.8812919,30.7682326 C49.8370284,30.6894571 49.7345235,30.6454355 49.5970738,30.6454355 C49.4782613,30.6454355 49.3547895,30.6801894 49.2779108,30.7334787 C49.1008569,30.8585927 48.998352,31.0694331 48.9820444,31.3405134 C48.9797147,31.4053874 48.9750554,31.4679444 49.0612527,31.5328183 C49.1055162,31.5583045 49.1264831,31.5583045 49.1800652,31.5583045 C49.3478005,31.5583045 49.6180407,31.4517259 49.7624794,31.2779564 C49.771798,31.2640549 49.9954451,30.9698052 49.8812919,30.7682326 L49.8812919,30.7682326 Z M74.9763548,27.2650399 C74.9227727,27.7075728 74.8039602,28.1223026 74.6036097,28.5717864 L74.5942911,28.5926387 L74.5709945,28.5926387 C74.1423377,28.5648356 73.8767568,28.9123746 73.6204945,29.243695 C73.5342972,29.3549075 73.4550889,29.4591692 73.3688916,29.5495293 C73.2361012,29.7024465 73.0893328,29.8321943 72.958872,29.9434068 C72.809774,30.0754716 72.6793132,30.189001 72.6280608,30.2932627 C72.5674897,30.4183767 72.5022593,30.6593371 72.4370289,30.8933466 C72.3927654,31.0601653 72.3485019,31.2177163 72.3112274,31.324295 C72.3019088,31.3474642 72.2925902,31.3683166 72.2832716,31.3914858 C72.2063929,31.5976923 72.1132066,31.8548711 71.8429664,31.8988927 C71.710176,31.919745 71.5657373,31.9266958 71.4259579,31.9313297 C71.0392348,31.9475482 70.6501821,32.017056 70.4498317,32.2904533 C70.2657888,32.5453152 70.3426674,32.7816417 70.4451723,33.0318697 C70.4917655,33.1407653 70.522051,33.2357593 70.5500069,33.3423379 C70.6897863,33.8057232 70.7363794,34.3826378 70.6315449,34.7904169 C70.6152373,34.8529739 70.5919407,34.9178478 70.5709738,34.9804049 C70.5150621,35.1495405 70.4498317,35.4044024 70.4917655,35.4854948 C70.5336993,35.5619534 70.5779628,35.5758549 70.6571711,35.5758549 C70.7247312,35.5758549 70.8016098,35.5526857 70.8761589,35.5318333 C70.929741,35.5179318 70.9693451,35.510981 71.0182679,35.4970794 C71.2116294,35.4530578 71.4981772,35.3997685 71.7614284,35.3997685 C72.1970743,35.3997685 72.653687,35.4924456 73.047399,35.6615812 C73.7905595,36.0230217 74.526731,36.833946 74.4894565,37.8371751 C74.3916109,38.8543058 73.760274,39.8366826 72.5558414,40.8422287 C72.5278855,40.8677149 72.4952703,40.8932011 72.4649848,40.9186873 C72.3088978,41.0461182 72.1201956,41.2083031 72.1155363,41.3542694 C72.1085473,41.4979189 72.4859517,41.5859621 72.721247,41.6392514 C72.7748291,41.650836 72.8260816,41.6624207 72.8680154,41.6740053 L72.9285865,41.6879068 C73.2267826,41.7666823 73.5366269,41.8477748 73.7928891,42.0238612 C74.6502028,42.5984589 74.6199173,43.6109558 74.5220717,44.169335 C74.5197421,44.1832366 74.5150828,44.201772 74.5104234,44.2226243 C74.4941158,44.2944491 74.4754786,44.3871261 74.4079185,44.3871261 C74.384622,44.3871261 74.3659847,44.3755415 74.3426882,44.3546892 C74.3170619,44.3315199 74.2914357,44.3083506 74.2634798,44.2828644 C74.1656342,44.1901874 74.0561404,44.0859257 73.9303389,44.014101 C73.6577691,43.854233 73.3292874,43.7847253 73.0124541,43.7198513 C72.8121036,43.6781466 72.6024345,43.634125 72.4067434,43.5669342 C71.554089,43.2750014 71.0229272,42.8440531 70.8318954,42.2879908 C70.7340498,41.998375 70.7853022,41.6346175 70.9786638,41.2847616 C71.2558929,40.8445456 71.6612532,40.4599358 72.0526355,40.0869107 C72.6676649,39.5007283 73.3036612,38.8936936 73.4527593,38.0711847 C73.5319676,37.5915809 73.3362764,37.1861188 72.8540375,36.8362629 C72.6001049,36.6833458 72.2786122,36.6045703 71.9175154,36.6045703 C71.4772103,36.6045703 71.0019603,36.7227335 70.6152373,36.9312569 C70.1143611,37.179168 69.6321221,37.4989039 69.1638611,37.809372 C68.4626344,38.2773911 67.7357815,38.7593118 66.9297203,39.0164907 C66.5802717,39.1740417 66.1935487,39.2505002 65.818474,39.3269588 C65.2849826,39.4335374 64.7328539,39.5447499 64.2925488,39.8899719 C64.1411211,39.9872828 63.9896934,40.0961784 63.8452547,40.2004401 C63.4445537,40.4900559 63.0298748,40.7866225 62.5592841,40.9071026 C62.3845599,40.9650258 62.2121653,40.990512 62.0467596,41.0136813 C61.7904974,41.0507521 61.5482131,41.085506 61.3268957,41.243057 C61.2243908,41.3148817 61.1242155,41.3867064 61.0217106,41.4608481 C60.6489656,41.7342454 60.2622425,42.0145935 59.8755195,42.2068984 C59.2115673,42.5359019 58.5033517,42.7050375 57.713598,42.8764901 C57.4619951,42.9367302 57.3059081,43.1267182 57.1381728,43.3282907 C57.0263493,43.4626725 56.9121961,43.6016881 56.7654277,43.7013159 C56.1550576,44.1809197 55.602929,44.5006555 54.8923836,44.5006555 C54.8271532,44.5006555 54.7595932,44.4983386 54.6920332,44.4937047 C54.3192881,44.4682185 53.953532,44.1855535 53.7112476,43.9770301 C53.0007023,43.3560939 52.2365749,42.8069823 51.4980737,42.2764062 C50.3984757,41.4840173 49.2616032,40.6638254 48.2878066,39.6073069 C47.3326474,38.627247 46.9831988,37.399276 46.6477283,36.2130097 C46.5964758,36.0369233 46.547553,35.8631538 46.4963006,35.6893843 C46.405444,35.3650146 46.3215763,35.0313772 46.242368,34.7070075 C45.8020629,32.9554112 45.3501094,31.2084486 43.5912186,30.0731547 C43.4747357,29.999013 43.5166696,29.8530467 43.6261634,29.811342 C43.6727566,29.7928066 44.5091033,29.5448955 45.14277,30.2816781 C45.6017124,30.8168881 45.8323484,31.3335627 46.3658398,31.9012096 C46.3844771,31.9174281 46.4450481,31.9753513 46.4939709,31.9614497 C46.5312454,31.9498651 46.547553,31.9290128 46.5312454,31.8641388 C46.4706744,31.63708 46.323906,31.4378244 46.1887859,31.2455195 C46.0490065,31.0485807 45.9068974,30.8446912 45.8370077,30.6083647 C45.6669428,30.1055917 45.1963521,29.7001295 44.7816732,29.3433229 C44.7816732,29.3433229 44.7141131,29.3016182 44.6768386,29.2529627 C44.6372345,29.2043073 44.6395641,29.1834549 44.6395641,29.1834549 C44.6279158,29.0722425 44.7164428,29.0050516 44.8934967,28.9981008 C45.8789415,28.9981008 46.5801682,29.6931788 47.2580983,30.3674043 C47.2860542,30.3975244 47.3233287,30.4114259 47.3699219,30.4114259 C47.4071964,30.4114259 47.4328226,30.4160598 47.4794157,30.3928905 C47.5260089,30.3720382 47.6285138,30.2677765 47.7077221,30.1982687 C47.9290395,30.00133 48.1596755,29.7974404 48.4555419,29.7372004 L48.4602013,29.7348834 L48.4671902,29.7372004 C48.8259574,29.7858558 49.1497797,29.8275605 49.4829206,29.8275605 C49.5784365,29.8275605 49.6692931,29.8252436 49.7508311,29.8182928 C50.1095983,29.7117142 50.4683654,29.5750155 50.8154843,29.4452676 C51.0600982,29.3549075 51.3140308,29.2599135 51.5679634,29.1741872 L51.5726227,29.1718703 L51.5796117,29.1718703 C51.9080933,29.1834549 52.1433886,29.4892892 52.3157832,29.7557358 C52.3949916,29.9457237 52.3577171,30.1333948 52.3204425,30.316432 C52.2994756,30.4253275 52.2761791,30.5319061 52.2808384,30.6361678 C52.3437391,30.6686048 52.4252771,30.661654 52.5138041,30.6477524 C52.5930124,30.6361678 52.7071656,30.6477524 52.7444401,30.6547032 C52.8306374,30.6662879 52.921494,30.7659157 52.8958678,30.8933466 C52.8306374,31.2200333 52.6675614,31.4216059 52.5021558,31.6741508 C52.3600467,31.8873081 52.222597,32.0865638 52.1527073,32.3159395 C52.045543,32.614823 51.814907,32.8627341 51.5935896,33.1013775 C51.3373274,33.3817256 51.0927134,33.6435383 51.0204941,33.9794926 C51.0204941,33.9794926 50.9971975,34.0513174 51.0251534,34.0768035 C51.0507796,34.1022897 51.1183396,34.0721697 51.1183396,34.0721697 C51.2371521,33.9864434 51.353635,33.8891325 51.4701178,33.7964555 C51.8428629,33.495255 52.2295859,33.1824699 52.6978469,33.1129622 C53.1358224,33.0689406 53.6157317,33.0156512 54.0816631,33.0527221 C54.2051349,33.0735744 54.2680356,33.180153 54.2377501,33.2867316 C54.0513775,33.6782922 53.8603457,34.0999728 53.7415332,34.5587242 C53.6413579,34.9062632 53.4246999,35.8168153 53.6460173,36.5049424 C53.6693138,36.5721333 53.7135773,36.5953026 53.7555111,36.5953026 C53.7601704,36.5953026 53.7648298,36.5953026 53.7718187,36.5929856 C53.8463677,36.5744502 53.8976202,36.486407 53.9092685,36.4145823 L53.9162574,36.3242222 C53.9814878,35.3881839 54.0420589,34.503118 54.6198138,33.7501169 C54.7735711,33.5068396 54.9948885,33.3770918 55.2068873,33.2496608 C55.3536557,33.1639345 55.521391,33.087476 55.6285552,32.9530942 C55.7496973,32.8001771 55.7706642,32.5406813 55.6867966,32.3808134 L54.9809106,31.3428304 C54.8131753,31.1065039 54.652429,30.851642 54.5918579,30.5944631 C54.5406055,30.3326504 54.563902,30.0777885 54.5848689,29.8345113 L54.5895283,29.7742712 C54.5732207,29.781222 54.5545834,29.8020743 54.5382758,29.8321943 C54.251728,30.3442351 54.1958163,30.7798172 54.340255,31.1111377 C54.4334413,31.3289288 55.0088665,32.1375361 55.1766018,32.4039827 C55.2301839,32.4897089 55.2744474,32.5754352 55.2278542,32.6333584 C55.1719425,32.7075 54.7386263,32.8905372 54.6268028,32.8905372 C54.6198138,32.8905372 54.6104952,32.8905372 54.6058359,32.8882203 C54.503331,32.8604172 54.4381006,32.7677401 54.3798591,32.6866477 C54.3682109,32.6681123 54.3565626,32.6518938 54.3425846,32.6310415 L53.471293,31.0578484 L53.4503261,30.9999253 C53.3990736,30.8423743 53.3571398,30.7056756 53.3990736,30.5226384 C53.4479964,30.2863119 53.5225454,30.0337669 53.5761276,29.8484128 C53.5924352,29.7974404 53.6064131,29.7464681 53.620391,29.6931788 C53.6995994,29.4220984 53.7718187,29.1649195 53.8929609,29.0212701 C53.9698396,28.9332269 54.0653555,28.8915222 54.1934866,28.8915222 C54.258717,28.8915222 54.3286067,28.9007899 54.3938371,28.9123746 C54.503331,28.928593 54.6198138,28.9424946 54.7106704,28.9193253 C54.8411312,28.8868884 54.9319878,28.7895775 55.0275037,28.6876327 C55.1230197,28.583371 55.2231949,28.4791093 55.3676336,28.4374046 C55.6378738,28.3470445 55.9197623,28.2729029 56.1923321,28.2010781 C56.5557586,28.1060842 56.933163,28.0087732 57.2919301,27.8697577 C57.4946103,27.8048837 57.7112684,27.7446436 57.9209375,27.7469606 C58.1539031,27.7469606 58.2960122,27.8095176 58.4986923,27.9717024 C58.7829105,28.2010781 58.8737671,28.4281369 58.9459864,28.7525066 C59.0018982,29.0513901 59.0997438,29.0722425 59.3187315,29.086144 C59.4235661,29.0907779 59.4422033,29.086144 59.5447082,29.1208979 C59.6518725,29.1556518 59.9663761,29.5402616 60.1317818,29.8553636 C60.1760452,29.9410899 60.224968,30.0175485 60.2715612,30.0847393 C60.3181543,30.158881 60.3414509,30.221438 60.3391212,30.283995 C60.3367915,30.4392291 60.2086604,30.4878845 60.1247928,30.4902014 L60.068881,30.4925184 C60.068881,30.4925184 59.139348,30.4971522 58.8854154,30.4925184 C58.5033517,30.471666 58.3356164,30.1079086 58.2028259,29.7835389 C58.1492438,29.6607418 58.100321,29.5425785 58.0374203,29.4383169 C57.9372451,29.2575966 57.7392242,29.1463841 57.4946103,29.1533349 C57.4247206,29.1556518 57.2686336,29.1950396 57.1870956,29.2158919 C56.6838897,29.338689 56.1667059,29.46612 55.9547071,29.9596253 C55.9337402,30.0453516 55.901125,30.221438 56.0292562,30.3697213 C56.2971667,30.6801894 56.6512745,31.0694331 57.014701,31.3520981 C57.5179068,31.4563598 58.0234424,31.827068 58.3006715,32.2974041 C58.3589129,32.3761796 58.3891985,32.4711735 58.419484,32.5638506 C58.4637475,32.7028662 58.508011,32.8372479 58.6361421,32.9206573 C58.7176801,32.960045 58.7829105,32.9461435 58.8015477,32.8766357 C58.8504705,32.614823 58.7502953,32.3645949 58.6524497,32.1213176 C58.6314828,32.0657114 58.6105159,32.0101052 58.5918786,31.9591328 L58.5779007,31.9174281 L58.6175048,31.9151112 C58.7572842,31.9012096 58.901723,31.8942589 59.0461617,31.8942589 C59.5633455,31.8942589 60.0572327,31.9823021 60.5348124,32.0680283 C61.0077327,32.1514377 61.494631,32.2394809 62.0024962,32.2394809 C62.0560783,32.2394809 62.1096604,32.2394809 62.1655721,32.237164 C62.3915488,32.237164 62.6082069,32.2163116 62.8202057,32.1977762 C63.0275451,32.1792408 63.2418736,32.1607054 63.456202,32.1607054 C63.5330807,32.1607054 63.6029704,32.1630223 63.6728601,32.1676562 C64.3205047,32.1954593 64.7910953,32.4897089 64.9308747,32.9507773 C65.0659948,33.3423379 65.0520169,34.0235142 64.8889409,34.9734541 C64.8796223,35.0197926 64.874963,35.0499126 64.874963,35.0545465 C64.874963,35.0591803 64.874963,35.0661311 64.874963,35.0730819 C64.8772926,35.1078358 64.8772926,35.1449066 64.9238858,35.1680759 C64.9821272,35.2005129 65.0473576,35.1680759 65.0776431,35.0916173 C65.3245867,34.410441 65.4643661,33.622686 65.5389152,33.0828421 C65.6227828,32.5568998 65.8441002,32.0263237 66.2168453,31.4563598 C66.680447,30.7705495 67.4422447,30.3743551 68.3065474,30.3743551 C68.5092276,30.3743551 68.709578,30.4137429 68.9099285,30.4392291 C69.0520376,30.4577645 69.10329,30.4508137 69.1964763,30.4508137 C70.2960743,30.4508137 71.2558929,29.9758438 71.9687679,29.0791933 C71.9687679,29.0791933 71.9827458,29.0606578 71.9804162,29.0328547 C71.9780865,28.9957839 71.9245044,28.9587131 71.8755816,28.9795654 L71.7823953,29.0513901 C71.160377,29.5309939 70.5173917,30.0244992 69.7136601,30.1241271 C69.5715511,30.1496133 69.422453,30.1611979 69.259377,30.1611979 C69.0264114,30.1611979 68.798105,30.1357117 68.5767876,30.1102255 C68.3554702,30.0870562 68.1458011,30.0615701 67.9338023,30.0615701 C67.6589028,30.0615701 67.4259372,30.1032747 67.2046198,30.1913179 C66.2774164,30.4948353 65.5202779,31.5559876 65.2779936,32.2139947 C65.2663453,32.237164 65.2337301,32.2765517 65.180148,32.2765517 C65.1568514,32.2765517 65.1312252,32.267284 65.1032693,32.2510655 C64.9961051,32.1838747 64.9774679,32.1468038 64.9611603,32.0819299 C64.9471823,32.0263237 65.0380389,31.5536707 65.0776431,31.3520981 C65.1987853,30.849325 65.2826529,30.2585088 66.0304727,29.7742712 C66.52436,29.4545353 66.6711284,29.3294213 67.216268,29.2483289 C67.3094543,29.2344273 67.5400903,29.2413781 67.6286173,29.2645474 C67.8639126,29.3155198 68.1038673,29.3433229 68.3461516,29.3433229 C69.110279,29.3433229 69.8860547,29.0838271 70.536029,28.6111741 C70.6478525,28.550934 70.7503574,28.4628908 70.848203,28.3794815 C70.9879824,28.2613182 71.1324211,28.1408381 71.3048157,28.078281 C71.4143096,28.0342594 71.5307924,28.0134071 71.6542642,28.0134071 C71.9501306,28.0110902 72.0246796,28.1014503 72.2343488,28.2033951 C72.327535,28.2497336 72.4207213,28.2659521 72.4812924,28.2659521 C72.7189174,28.2659521 72.8493782,28.080598 73.0171134,27.8489053 C73.1172887,27.7075728 73.2314419,27.5500218 73.3851992,27.4110062 C73.5995276,27.2024829 73.8977237,27.1769967 74.133019,27.1769967 C74.2611502,27.1769967 74.3916109,27.1862644 74.5174124,27.1932151 C74.6385546,27.2024829 74.7853229,27.2047998 74.8622016,27.2140675 C74.9390803,27.2233352 74.9786845,27.2349198 74.9786845,27.2349198 L74.9763548,27.2650399 Z" id="path3687" fill="#97A3C3" fill-rule="nonzero"></path>
            </g>
        </g>
    </g>
</svg>