<?xml version="1.0" encoding="UTF-8"?>
<svg width="95px" height="40px" viewBox="0 0 95 40" version="1.1" xmlns="http://www.w3.org/2000/svg" xmlns:xlink="http://www.w3.org/1999/xlink">
    <!-- Generator: Sketch 54.1 (76490) - https://sketchapp.com -->
    <title>tryg</title>
    <desc>Created with Sketch.</desc>
    <defs>
        <polygon id="path-1" points="0 0 94.9187903 0 94.9187903 39.9997436 0 39.9997436"></polygon>
    </defs>
    <g id="Page-1" stroke="none" stroke-width="1" fill="none" fill-rule="evenodd">
        <g id="Client-Logos" transform="translate(-868.000000, -267.000000)">
            <g id="tryg" transform="translate(868.000000, 267.000000)">
                <g id="TrygoO">
                    <g id="Group-3">
                        <mask id="mask-2" fill="white">
                            <use xlink:href="#path-1"></use>
                        </mask>
                        <g id="Clip-2"></g>
                        <path d="M61.8603737,19.7248718 L61.8603737,21.5197436 C61.8603737,25.1105128 61.8593522,28.7012821 61.8629274,32.2920513 C61.8629274,32.4176923 61.7904005,32.6105128 61.9247285,32.6587179 C62.1995134,32.7571795 62.5110726,32.7428205 62.7843253,32.6741026 C62.974836,32.6269231 62.8691102,32.37 62.8691102,32.2115385 C62.873707,23.8864103 62.8731962,15.5617949 62.8731962,7.23666667 C62.8731962,7.13 62.877793,7.02333333 62.8706425,6.91769231 C62.8670672,6.87051282 62.8471478,6.78794872 62.822121,6.78333333 C62.535078,6.72384615 62.2357769,6.71307692 61.9579274,6.77769231 C61.7633306,6.82333333 61.8649704,7.05410256 61.8649704,7.19717949 C61.8593522,11.3730769 61.8603737,15.5484615 61.8603737,19.7248718 M19.4270403,20.2771795 C19.4270403,21.8997436 19.4336801,23.5217949 19.4209113,25.144359 C19.4188683,25.4182051 19.4842446,25.5074359 19.7692446,25.5028205 C20.8152661,25.4853846 21.8617984,25.4807692 22.9078199,25.5048718 C23.2392984,25.5125641 23.2893522,25.3961538 23.2878199,25.1012821 C23.2770941,22.6941026 23.2852661,20.2874359 23.2770941,17.8802564 C23.2765833,17.6274359 23.3281694,17.5171795 23.6085726,17.4694872 C24.6193522,17.2971795 25.6311532,17.2115385 26.6521478,17.3289744 C26.9208038,17.3602564 26.9928199,17.2751282 26.9877124,17.0110256 C26.971879,16.2669231 26.9785188,15.5217949 26.9841371,14.7771795 C26.9861801,14.5817949 26.9688145,14.4592308 26.7165027,14.4520513 C24.3782769,14.3802564 22.0609919,14.5392308 19.7707769,15.0397436 C19.5016102,15.0987179 19.4168253,15.2079487 19.419379,15.49 C19.4352124,17.0858974 19.4270403,18.6817949 19.4270403,20.2771795 M12.3194059,10.9976923 C10.3055081,10.9976923 8.29109946,11.0023077 6.27720161,10.9920513 C6.01058871,10.9905128 5.90792742,11.0423077 5.91763172,11.3351282 C5.94010484,12.0130769 5.94368011,12.6925641 5.91661022,13.37 C5.9038414,13.6864103 6.01671774,13.7366667 6.29865323,13.7330769 C7.49126075,13.7176923 8.68386828,13.7417949 9.87596505,13.7171795 C10.2268522,13.71 10.3111263,13.7997436 10.3095941,14.1525641 C10.295293,17.8115385 10.3044866,21.47 10.2937608,25.1284615 C10.2927392,25.4238462 10.3616909,25.5089744 10.6630349,25.5038462 C11.7361263,25.4838462 12.8097285,25.4812821 13.8823091,25.5048718 C14.2240027,25.5120513 14.2904005,25.4048718 14.289379,25.0817949 C14.2776317,21.4233333 14.2863145,17.7648718 14.2740565,14.1058974 C14.2730349,13.7848718 14.3644597,13.7151282 14.6678468,13.7197436 C15.8997823,13.7366667 17.1322285,13.7187179 18.364164,13.7325641 C18.6287339,13.735641 18.7017715,13.6576923 18.6951317,13.3971795 C18.6782769,12.7192308 18.6731694,12.0402564 18.6971747,11.3617949 C18.7079005,11.0582051 18.6149435,10.9889744 18.3217715,10.9910256 C16.3211532,11.0038462 14.3200242,10.9976923 12.3194059,10.9976923 M30.8776048,30.815641 C32.1718522,30.815641 33.3910188,30.8048718 34.6096747,30.8238462 C34.8824167,30.8279487 34.9983575,30.7330769 35.1056156,30.4961538 C37.4469059,25.3264103 39.7958575,20.1597436 42.1427661,14.9920513 C42.1953737,14.875641 42.2913952,14.77 42.2571747,14.5961538 C40.9363683,14.5961538 39.6130081,14.6069231 38.2906694,14.5879487 C37.9867715,14.5838462 37.8555081,14.6735897 37.7599973,14.964359 C37.0051048,17.2566667 36.232336,19.5433333 35.464164,21.8310256 C35.424836,21.9479487 35.4171747,22.0817949 35.2981694,22.1853846 C35.2578199,22.0730769 35.2200242,21.9751282 35.1863145,21.8751282 C34.4467446,19.675641 33.7071747,17.475641 32.9686263,15.275641 C32.7403199,14.5966667 32.7413414,14.5961538 32.0334382,14.5961538 L28.3835995,14.5961538 C28.3754274,14.7838462 28.4699167,14.904359 28.5281425,15.0330769 C30.0905349,18.4884615 31.6539489,21.9433333 33.2285995,25.3935897 C33.3399435,25.6361538 33.3353468,25.8212821 33.2168522,26.0535897 C32.7888414,26.8920513 32.3797285,27.7402564 31.9655081,28.5853846 C31.6110457,29.3089744 31.2591371,30.0341026 30.8776048,30.815641 M50.5574167,31.6110256 L50.951207,31.6110256 C51.9844597,31.6110256 53.0177124,31.6084615 54.0509651,31.6135897 C54.1955081,31.6141026 54.2608844,31.5484615 54.3140027,31.424359 C54.5642715,30.8402564 54.8548898,30.27 55.0704274,29.6725641 C55.5510457,28.3397436 55.0188414,26.9146154 53.80325,26.1925641 C53.3195672,25.9058974 52.7945134,25.7289744 52.243922,25.6294872 C50.9072823,25.3879487 49.5512339,25.4535897 48.2033575,25.3951282 C47.8958844,25.3812821 47.5945403,25.3597436 47.3146478,25.2253846 C47.0551855,25.1007692 46.8999167,24.8987179 46.8948091,24.6012821 C46.8851048,24.0141026 47.7635995,23.1853846 48.3535188,23.215641 C49.5062876,23.2746154 50.6580349,23.3079487 51.7862876,22.995641 C53.288922,22.5792308 54.4631425,21.7915385 54.8824704,20.1766667 C55.1720672,19.0607692 54.9289489,18.0207692 54.4197285,17.0202564 C54.3579274,16.8982051 54.2404543,16.7935897 54.2705887,16.6294872 C54.75325,16.6510256 55.2297823,16.6653846 55.7047823,16.6971795 C55.8917177,16.7094872 55.9616909,16.6597436 55.9570941,16.4607692 C55.9453468,15.915641 55.9479005,15.37 55.9560726,14.8248718 C55.9591371,14.6551282 55.9116371,14.5879487 55.7338952,14.5941026 C53.415078,14.6715385 51.1034113,14.4838462 48.7891909,14.4110256 C47.6348898,14.3741026 46.4908038,14.5530769 45.4120941,15.0120513 C43.8583844,15.6730769 42.9957231,16.8474359 42.8312608,18.5382051 C42.6627124,20.2684615 43.2827661,21.6017949 44.7859113,22.5002564 C44.9273898,22.5848718 45.1041102,22.6187179 45.2190296,22.7807692 C45.0024704,22.9366667 44.7976586,23.0802564 44.5969328,23.2294872 C43.9518522,23.7079487 43.3644866,24.2402564 43.0319866,24.995641 C42.5069328,26.1905128 42.9170672,27.3012821 44.0872016,27.8597436 C44.3859919,28.0023077 44.6965296,28.1161538 45.021879,28.1838462 C46.343707,28.4587179 47.6793253,28.4382051 49.0169866,28.384359 C49.627336,28.3592308 50.2376855,28.3464103 50.8342446,28.4961538 C51.382793,28.6346154 51.6146747,29.044359 51.4548091,29.5833333 C51.372578,29.8617949 51.2668522,30.1361538 51.1468253,30.4007692 C50.9690833,30.795641 50.7688683,31.1802564 50.5574167,31.6110256 M78.0149704,10.3207692 C72.4876048,10.3576923 68.0890027,14.8212821 68.1247554,20.3571795 C68.1589758,25.7992308 72.6301048,30.2335897 78.0445941,30.1971795 C83.5581694,30.1597436 87.9460457,25.7125641 87.9159113,20.1905128 C87.8862876,14.7489744 83.4080081,10.2853846 78.0149704,10.3207692 M89.5911801,39.9997436 L5.22198656,39.9997436 C5.19338441,39.8946154 5.09889516,39.9192308 5.02738978,39.9048718 C4.48139516,39.7925641 3.94510484,39.644359 3.45018548,39.3833333 C1.16252419,38.1771795 0.0107768817,36.2694872 0.00464784946,33.6787179 C-0.00454569892,29.7674359 0.00260483871,25.8566667 0.00260483871,21.9453846 C0.00260483871,16.7171795 -0.00352419355,11.4884615 0.00464784946,6.26076923 C0.00924462366,3.15666667 2.00271237,0.73974359 5.03096505,0.121282051 C5.14690591,0.0982051282 5.30523925,0.153589744 5.3813414,-0.000256410256 L5.6198629,-0.000256410256 C5.87013172,0.18025641 6.15308871,0.0741025641 6.4166371,0.0741025641 C33.9283306,0.0807692308 61.4405349,0.0812820513 88.9522285,0.0797435897 C89.0615296,0.0797435897 89.1953468,0.141282051 89.2729812,-0.000256410256 L89.4318253,-0.000256410256 C89.4660457,0.105384615 89.5579812,0.0720512821 89.6299973,0.0817948718 C92.1030618,0.426410256 94.0786532,2.18128205 94.7278199,4.60128205 C94.793707,4.85 94.7809382,5.11974359 94.9193522,5.34948718 L94.9193522,34.7305128 C94.7865565,34.8033333 94.8386532,34.9428205 94.8131156,35.0505128 C94.1899973,37.6561538 92.5877661,39.2715385 89.9854812,39.8879487 C89.8552392,39.9192308 89.6897554,39.8505128 89.5911801,39.9997436" id="Fill-1" fill="#97A3C3" mask="url(#mask-2)"></path>
                    </g>
                    <path d="M78.0283522,15.2161538 C80.8523038,15.2479487 83.0929758,17.5161538 83.0562016,20.3064103 C83.0189167,23.1223077 80.748621,25.3479487 77.9496962,25.3130769 C75.1645618,25.2792308 72.9402339,22.9741026 72.9810941,20.164359 C73.0209328,17.4325641 75.3131909,15.1848718 78.0283522,15.2161538" id="Fill-16" fill="#97A3C3"></path>
                    <path d="M82.0071667,16.2092308 C83.117543,15.8764103 84.0854194,14.7153846 84.2677581,13.5364103 C86.4450968,15.3384615 87.9502849,19.1 86.8562527,22.8630769 C86.1825699,25.1820513 83.7146129,28.1528205 82.4336452,28.165641 C83.117543,27.6825641 83.7202312,27.1384615 84.2560108,26.4830769 C83.5256344,26.1712821 82.9408226,25.7271795 82.4648011,25.1476923 C82.0092097,24.5928205 82.016871,24.3492308 82.4556075,23.805641 C84.1492634,21.7051282 84.0818441,18.6235897 82.2952312,16.5369231 C82.2099355,16.4364103 82.1215753,16.3389744 82.0071667,16.2092308" id="Fill-18" fill="#97A3C3"></path>
                    <path d="M74.0456048,24.3282051 C72.7191801,24.7210256 72.0848253,25.7066667 71.6823522,26.9502564 C70.98875,26.3235897 70.4310081,25.5758974 69.9728629,24.7507692 C68.1040188,21.3871795 68.5386694,17.1487179 71.028078,14.2446154 C71.2507661,13.9846154 71.4642608,13.9374359 71.7538575,14.0446154 C72.5756586,14.3482051 73.225336,14.8789744 73.7079973,15.6030769 C73.8382392,15.7984615 73.9031048,15.8205128 74.0849328,15.6784615 C74.452164,15.3917949 74.8658737,15.1815385 75.3005242,15.014359 C75.4343414,14.9625641 75.5671371,14.8861538 75.7796102,14.974359 C74.0139382,15.9046154 72.8024328,17.2615385 72.4484812,19.2369231 C72.0960618,21.2015385 72.6864919,22.9061538 74.0456048,24.3282051" id="Fill-20" fill="#97A3C3"></path>
                    <path d="M48.9633575,21.1842051 C48.5905081,21.1754872 48.2723091,21.1672821 47.9643253,21.0734359 C47.7477661,21.0077949 47.5424435,20.9195897 47.3585726,20.7852308 C46.6527124,20.2647179 46.3738414,18.9601026 46.7206425,17.7990769 C46.9760188,16.9431795 47.6027124,16.4847179 48.6022554,16.4380513 C48.8790833,16.4252308 49.1599973,16.4257436 49.435293,16.4529231 C50.4072554,16.550359 51.0319059,17.1544615 51.1871747,18.1185641 C51.2576586,18.556 51.2632769,18.9893333 51.1979005,19.4288205 C51.0426317,20.4718974 50.4251317,21.0698462 49.3842177,21.1590769 C49.2263952,21.1729231 49.0670403,21.1780513 48.9633575,21.1842051" id="Fill-22" fill="#97A3C3"></path>
                </g>
            </g>
        </g>
    </g>
</svg>