<svg xmlns="http://www.w3.org/2000/svg" xmlns:xlink="http://www.w3.org/1999/xlink" width="95" height="40" viewBox="0 0 95 40">
    <defs>
        <path id="a" d="M0 0h94.919v40H0z"/>
    </defs>
    <g fill="none" fill-rule="evenodd">
        <g>
            <mask id="b" fill="#fff">
                <use xlink:href="#a"/>
            </mask>
            <path fill="#E20613" d="M61.86 19.725v1.795c0 3.59 0 7.181.003 10.772 0 .126-.073.319.062.367.275.098.586.084.86.015.19-.047.084-.304.084-.462.005-8.326.004-16.65.004-24.975 0-.107.005-.214-.002-.32-.004-.046-.024-.13-.049-.134a2.03 2.03 0 0 0-.864-.005c-.195.045-.093.276-.093.42-.006 4.175-.005 8.35-.005 12.527m-42.433.552c0 1.623.007 3.245-.006 4.867-.002.274.063.363.348.359a79.056 79.056 0 0 1 3.139.002c.331.008.381-.109.38-.404-.01-2.407-.003-4.814-.01-7.22-.001-.254.05-.364.33-.412 1.011-.172 2.023-.257 3.044-.14.269.031.34-.054.336-.318-.016-.744-.01-1.49-.004-2.234.002-.195-.015-.318-.267-.325-2.339-.072-4.656.087-6.946.588-.27.059-.354.168-.352.45.016 1.596.008 3.192.008 4.787m-7.108-9.28c-2.013 0-4.028.005-6.042-.005-.266-.001-.37.05-.36.343.023.678.027 1.358 0 2.035-.013.316.1.367.382.363 1.192-.015 2.385.009 3.577-.016.35-.007.435.083.434.436-.015 3.659-.006 7.317-.016 10.975-.001.296.068.381.369.376a79.26 79.26 0 0 1 3.22 0c.341.008.407-.1.406-.422-.011-3.659-.003-7.317-.015-10.976-.001-.321.09-.39.394-.386 1.232.017 2.464-.001 3.696.013.265.003.338-.075.331-.336a33.805 33.805 0 0 1 .002-2.035c.01-.304-.082-.373-.375-.371-2 .013-4.002.007-6.003.007m18.559 19.818c1.294 0 2.513-.011 3.732.008.272.004.388-.09.496-.328 2.34-5.17 4.69-10.336 7.037-15.504.052-.116.148-.222.114-.396-1.32 0-2.644.01-3.966-.008-.304-.004-.435.086-.531.376-.755 2.293-1.528 4.58-2.296 6.867-.04.117-.047.25-.166.354-.04-.112-.078-.21-.112-.31l-2.217-6.6c-.229-.678-.228-.679-.936-.679h-3.65c-.008.188.087.308.145.437a3248.42 3248.42 0 0 0 4.7 10.36.675.675 0 0 1-.011.66c-.428.84-.837 1.687-1.251 2.532-.355.724-.707 1.45-1.088 2.23m19.68.796h.393c1.033 0 2.067-.003 3.1.003.145 0 .21-.066.263-.19.25-.584.54-1.154.756-1.751.481-1.333-.051-2.758-1.267-3.48a4.646 4.646 0 0 0-1.56-.564c-1.336-.241-2.692-.175-4.04-.234-.307-.014-.608-.035-.888-.17-.26-.124-.415-.326-.42-.624-.01-.587.869-1.416 1.459-1.385 1.152.059 2.304.092 3.432-.22 1.503-.417 2.677-1.204 3.096-2.82.29-1.115.047-2.155-.462-3.156-.062-.122-.18-.226-.15-.39.483.021.96.035 1.435.067.187.012.257-.037.252-.236-.012-.545-.01-1.091 0-1.636.002-.17-.045-.237-.223-.23-2.319.077-4.63-.111-6.945-.184-1.154-.037-2.298.142-3.377.601-1.554.661-2.416 1.835-2.58 3.526-.17 1.73.45 3.064 1.954 3.962.141.085.318.119.433.28-.217.157-.421.3-.622.45-.645.478-1.233 1.01-1.565 1.766-.525 1.195-.115 2.305 1.055 2.864.299.142.61.256.935.324 1.322.275 2.657.254 3.995.2.61-.025 1.22-.038 1.817.112.549.139.78.548.62 1.087a6.327 6.327 0 0 1-.307.818c-.178.395-.378.78-.59 1.21m27.458-21.29a9.927 9.927 0 0 0-9.89 10.036c.034 5.442 4.505 9.877 9.92 9.84a9.907 9.907 0 0 0 9.87-10.006c-.029-5.442-4.507-9.906-9.9-9.87M89.591 40H5.222c-.029-.105-.123-.08-.195-.095-.546-.112-1.082-.26-1.577-.522C1.163 38.177.01 36.27.005 33.68c-.01-3.912-.002-7.822-.002-11.734 0-5.228-.007-10.457.002-15.684C.009 3.157 2.003.74 5.03.12c.116-.023.274.033.35-.121h.239c.25.18.533.074.797.074C33.928.081 61.44.081 88.952.08c.11 0 .243.061.321-.08h.159c.034.105.126.072.198.082 2.473.344 4.449 2.1 5.098 4.52.066.248.053.518.191.747v29.382c-.132.072-.08.212-.106.32-.623 2.605-2.225 4.22-4.828 4.837-.13.031-.295-.037-.394.112" mask="url(#b)"/>
        </g>
        <path fill="#FEFCFD" d="M74.046 24.328c-1.36-1.422-1.95-3.126-1.598-5.091.354-1.975 1.566-3.332 3.332-4.263-.213-.088-.346-.011-.48.04a4.688 4.688 0 0 0-1.215.664c-.182.143-.247.12-.377-.075a3.956 3.956 0 0 0-1.954-1.558c-.29-.108-.503-.06-.726.2-2.49 2.904-2.924 7.142-1.055 10.506.458.825 1.016 1.573 1.71 2.2.402-1.244 1.036-2.23 2.363-2.623m7.961-8.119c.115.13.203.227.288.328 1.787 2.087 1.854 5.168.16 7.268-.439.544-.446.788.01 1.343a4.606 4.606 0 0 0 1.791 1.335 9.073 9.073 0 0 1-1.822 1.683c1.28-.013 3.749-2.984 4.422-5.303 1.094-3.763-.41-7.525-2.588-9.327-.183 1.18-1.15 2.34-2.26 2.673m-3.98-.993c-2.715-.03-5.007 2.217-5.047 4.949-.04 2.809 2.183 5.114 4.969 5.148 2.799.035 5.069-2.19 5.106-5.007.037-2.79-2.204-5.058-5.028-5.09m-.013-4.895c5.393-.036 9.871 4.428 9.9 9.87a9.907 9.907 0 0 1-9.87 10.006c-5.415.037-9.886-4.398-9.92-9.84a9.928 9.928 0 0 1 9.89-10.036M48.963 21.184c.104-.006.263-.011.421-.025 1.041-.09 1.659-.687 1.814-1.73.065-.44.06-.873-.01-1.31-.156-.965-.78-1.569-1.753-1.666a5.79 5.79 0 0 0-.833-.015c-1 .047-1.626.505-1.881 1.361-.347 1.161-.068 2.466.638 2.986.183.135.389.223.605.288.308.094.627.102 1 .111zm1.594 10.427c.212-.43.412-.816.59-1.21.12-.265.226-.54.308-.818.16-.539-.072-.949-.62-1.086-.597-.15-1.208-.138-1.818-.113-1.338.055-2.673.075-3.995-.2a4.12 4.12 0 0 1-.935-.324c-1.17-.558-1.58-1.67-1.055-2.864.332-.756.92-1.288 1.565-1.767.2-.149.405-.292.622-.448-.115-.162-.292-.196-.433-.28-1.503-.9-2.123-2.233-1.955-3.963.165-1.69 1.027-2.865 2.581-3.526 1.079-.46 2.223-.638 3.377-.601 2.314.073 4.626.26 6.945.183.178-.006.225.061.222.231-.008.545-.01 1.091.001 1.636.005.2-.065.248-.252.236-.475-.032-.952-.046-1.434-.068-.03.164.087.27.149.391.509 1 .752 2.04.462 3.157-.419 1.615-1.593 2.403-3.096 2.818-1.128.313-2.28.28-3.432.22-.59-.03-1.469.8-1.46 1.386.006.298.161.5.42.624.28.135.582.157.89.17 1.347.058 2.703-.007 4.04.234.55.1 1.076.277 1.56.564 1.215.721 1.747 2.147 1.266 3.48-.215.597-.506 1.167-.756 1.752-.053.123-.118.189-.263.188-1.034-.005-2.067-.002-3.1-.002h-.394zM30.878 30.816c.381-.782.733-1.507 1.087-2.23.415-.846.823-1.694 1.252-2.532.119-.233.123-.418.012-.66-1.575-3.45-3.138-6.906-4.7-10.361-.059-.129-.153-.25-.145-.437h3.65c.707 0 .706 0 .934.68l2.218 6.6c.034.1.071.197.112.31.119-.104.126-.238.166-.355.768-2.288 1.541-4.574 2.296-6.867.096-.29.227-.38.53-.376 1.323.019 2.646.008 3.967.008.034.174-.061.28-.115.396-2.346 5.168-4.695 10.334-7.037 15.504-.106.237-.223.332-.496.328-1.218-.02-2.437-.008-3.731-.008M12.32 10.998c2 0 4.001.006 6.002-.007.293-.002.386.067.375.371a33.804 33.804 0 0 0-.002 2.035c.007.26-.066.339-.33.336-1.233-.014-2.465.004-3.697-.013-.304-.005-.395.065-.394.386.012 3.659.004 7.317.015 10.976.001.323-.065.43-.406.423a80.23 80.23 0 0 0-3.22-.001c-.301.005-.37-.08-.37-.375.011-3.659.002-7.318.017-10.977.001-.352-.083-.442-.434-.435-1.192.025-2.385 0-3.577.016-.282.004-.395-.047-.382-.363.027-.677.023-1.357 0-2.035-.01-.292.094-.345.36-.343 2.014.01 4.028.006 6.042.006M19.427 20.277c0-1.595.008-3.192-.008-4.787-.002-.282.083-.391.352-.45 2.29-.5 4.607-.66 6.945-.588.253.007.27.13.268.325-.006.745-.012 1.49.004 2.234.005.264-.067.35-.336.318-1.02-.118-2.032-.032-3.043.14-.28.048-.332.158-.331.411.007 2.407 0 4.814.01 7.221.001.295-.049.412-.38.404a79.055 79.055 0 0 0-3.139-.003c-.285.005-.35-.084-.348-.358.013-1.622.006-3.244.006-4.867M61.86 19.725c0-4.177 0-8.352.005-12.528 0-.143-.102-.374.093-.42a2.03 2.03 0 0 1 .864.006c.025.005.045.088.049.135.007.105.002.212.002.319 0 8.325 0 16.65-.004 24.975 0 .158.106.415-.085.462-.273.069-.584.083-.86-.015-.134-.048-.061-.241-.061-.367-.004-3.59-.003-7.181-.003-10.772v-1.795z"/>
        <path fill="#E20613" d="M78.028 15.216c2.824.032 5.065 2.3 5.028 5.09-.037 2.816-2.307 5.042-5.106 5.007-2.785-.034-5.01-2.339-4.969-5.149.04-2.731 2.332-4.98 5.047-4.948"/>
        <path fill="#E20613" d="M82.007 16.21c1.11-.334 2.078-1.495 2.26-2.674 2.178 1.802 3.683 5.564 2.59 9.327-.674 2.32-3.142 5.29-4.423 5.303a9.073 9.073 0 0 0 1.822-1.683 4.606 4.606 0 0 1-1.791-1.335c-.456-.555-.448-.799-.01-1.342 1.694-2.1 1.627-5.182-.16-7.27-.085-.1-.173-.197-.288-.327M74.046 24.328c-1.327.393-1.961 1.379-2.364 2.622-.693-.626-1.251-1.374-1.71-2.2-1.868-3.363-1.433-7.601 1.056-10.505.223-.26.436-.308.726-.2a3.956 3.956 0 0 1 1.954 1.558c.13.195.195.218.377.075.367-.286.78-.496 1.216-.664.133-.051.266-.128.479-.04-1.766.93-2.978 2.288-3.332 4.263-.352 1.965.238 3.67 1.598 5.091M48.963 21.184c-.372-.009-.69-.017-.999-.11a1.985 1.985 0 0 1-.605-.289c-.706-.52-.985-1.825-.638-2.986.255-.856.882-1.314 1.881-1.36a5.79 5.79 0 0 1 .833.014c.972.097 1.597.701 1.752 1.666.07.437.076.87.01 1.31-.154 1.043-.772 1.64-1.813 1.73-.158.014-.317.02-.42.025"/>
    </g>
</svg>
