<?xml version="1.0" encoding="UTF-8"?>
<svg width="95px" height="30px" viewBox="0 0 95 30" version="1.1" xmlns="http://www.w3.org/2000/svg" xmlns:xlink="http://www.w3.org/1999/xlink">
    <!-- Generator: Sketch 54.1 (76490) - https://sketchapp.com -->
    <title>zeplnc</title>
    <desc>Created with Sketch.</desc>
    <defs>
        <polygon id="path-1" points="0.000201058206 0.00905816135 22.3699365 0.00905816135 22.3699365 23.4217165 0.000201058206 23.4217165"></polygon>
        <polygon id="path-3" points="0.352826825 0.00905816135 9.45616931 0.00905816135 9.45616931 23.4404716 0.352826825 23.4404716"></polygon>
    </defs>
    <g id="Page-1" stroke="none" stroke-width="1" fill="none" fill-rule="evenodd">
        <g id="Client-Logos" transform="translate(-1198.000000, -272.000000)">
            <g id="zeplnc" transform="translate(1198.000000, 272.000000)">
                <g id="Group-3">
                    <mask id="mask-2" fill="white">
                        <use xlink:href="#path-1"></use>
                    </mask>
                    <g id="Clip-2"></g>
                    <path d="M22.3699365,0.00847448405 C21.7305714,1.5163075 20.6770265,2.78288724 19.784328,4.14090976 C16.8488783,8.59631313 13.8732169,13.0264238 10.919672,17.4682081 C10.7326878,17.7483732 10.577873,18.0499398 10.3044339,18.5207728 C13.0066561,18.5207728 15.5359683,18.5694126 18.0612593,18.4954801 C19.1328995,18.4662962 19.5209418,18.7172775 19.1992487,19.7678966 C19.0182963,20.3554651 18.9539577,20.974163 18.8373439,21.5792418 C18.4834815,23.4217165 18.4834815,23.4217165 16.6156508,23.4217165 L1.42771429,23.4217165 L0.000201058206,23.4217165 C4.36115344,17.2094445 8.59141799,11.1820036 12.9644339,4.95027561 L5.34633862,4.95027561 C3.82432804,4.95027561 3.83237037,4.95027561 4.07967196,3.54361332 C4.2867619,2.36653077 4.46771429,1.18750263 4.65871958,0.00847448405 L22.3699365,0.00847448405 Z" id="Fill-1" fill="#97A3C3" mask="url(#mask-2)"></path>
                </g>
                <g id="Group-6" transform="translate(54.285714, 0.000000)">
                    <mask id="mask-4" fill="white">
                        <use xlink:href="#path-3"></use>
                    </mask>
                    <g id="Clip-5"></g>
                    <path d="M9.45616931,0.00847448405 C9.19881481,2.79845197 8.59161905,5.5358985 8.14929101,8.29863771 C7.40537566,12.9174707 6.60516402,17.5265758 5.87130159,22.1454088 C5.72653968,23.0501086 5.42495238,23.5267784 4.36738624,23.4275533 C3.38220106,23.3341649 2.37489947,23.3614032 1.38167196,23.4197709 C0.503047619,23.4742475 0.249714286,23.1298779 0.388444444,22.3399679 C0.877015873,19.5460992 1.36357672,16.7483394 1.824,13.9505795 C2.55384127,9.52436004 3.2655873,5.09619493 3.99140741,0.669975422 C4.02759788,0.446232458 4.12209524,0.228326266 4.19045503,0.00847448405 L9.45616931,0.00847448405 Z" id="Fill-4" fill="#97A3C3" mask="url(#mask-4)"></path>
                </g>
                <path d="M49.8544974,13.9724255 C49.8783565,11.5893872 48.8126466,10.3510653 46.8482409,10.4271197 C45.8799559,10.4641719 45.3968075,10.8093419 45.2635938,11.8487522 C44.9991545,13.9451239 44.5657128,16.0239445 44.1958955,18.1086155 C43.989116,19.2864838 44.1839659,19.5263477 45.4107254,19.5243976 C45.6811294,19.5243976 45.9594865,19.4873455 46.225914,19.4288421 C48.3831814,18.9666653 49.8246734,16.790339 49.8544974,13.9724255 M47.1842576,6.1992744 C51.8467388,6.06081636 55.3023431,9.39941009 55.023986,14.0387293 C54.7814177,18.0559624 52.9243783,21.1956446 49.1605929,23.0580027 C47.7191009,23.769794 46.1543364,24.0662112 44.5677011,23.7249414 C43.4662023,23.4870276 43.1480799,23.8653495 43.0267958,24.8657576 C42.8538167,26.320542 42.4979173,27.7538752 42.3050556,29.2067095 C42.217572,29.8775484 41.917344,30.0140563 41.3069467,29.9945552 C40.1239291,29.957503 38.9409115,29.9458023 37.7598821,29.9965053 C37.0003649,30.0296572 36.8552216,29.8346459 36.9884354,29.0799521 C38.0978872,22.8434902 39.1536558,16.5972778 40.2273188,10.3549655 C40.3326969,9.74653023 40.4480162,9.14004504 40.5553825,8.53160973 C40.911282,6.56394556 40.9132702,6.60294782 42.8756876,6.53664397 C44.289344,6.48984126 45.701012,6.32018141 47.1842576,6.1992744" id="Fill-7" fill="#97A3C3"></path>
                <path d="M25.9329341,13.6477918 C27.9916662,13.6477918 29.9324194,13.6379374 31.8731726,13.6556753 C32.3804819,13.6596171 32.555484,13.4842085 32.5161577,12.9678373 C32.4139093,11.6256662 31.3717622,10.5613895 30.016971,10.4766416 C28.2630177,10.3643013 26.8806981,11.3911311 25.9329341,13.6477918 M34.6181487,18.2064434 C34.4038204,19.5998575 34.2189867,20.7882997 34.0361194,21.9747711 C33.9810626,22.32953 33.71561,22.5029676 33.4304943,22.6369877 C30.5498424,24.0047802 27.5394137,24.5250933 24.4640966,23.537681 C21.0977648,22.4576373 19.2533611,19.221448 19.658422,15.4767709 C20.1991587,10.4884669 25.1208459,6.12887439 30.1310173,6.19588441 C35.1647844,6.26289442 38.4504972,10.2598445 37.5499248,15.2244979 C37.494868,15.5319556 37.3945859,15.8315298 37.3670575,16.1409584 C37.2923375,16.9746417 36.8676134,17.1953806 36.04766,17.1835553 C32.6931261,17.1362541 29.3385922,17.1934097 25.9840583,17.1461085 C24.922248,17.1303415 24.9615744,17.5205762 25.4039953,18.2182687 C26.1079362,19.3278756 27.2307022,19.6195663 28.4281882,19.708256 C30.5459098,19.8639557 32.5122251,19.2904289 34.6181487,18.2064434" id="Fill-9" fill="#97A3C3"></path>
                <path d="M75.1998354,23.2896528 C72.4110541,23.2896528 72.493077,23.3031491 72.9656856,20.5788271 C73.3953298,18.1090065 73.9265263,15.6526822 74.0847135,13.1423727 C74.2233714,10.9521181 72.5126063,10.0748594 70.4073498,10.4662517 C69.883965,10.5626538 69.7199191,10.9675424 69.6378961,11.4765452 C69.0403001,15.1128307 68.389975,18.741404 67.8099554,22.3796175 C67.7025443,23.0486477 67.4564754,23.3127893 66.7807622,23.297365 C65.6207229,23.2684444 64.4567777,23.2568761 63.2967384,23.3012211 C62.5722021,23.3282137 62.5097084,23.0814244 62.6249311,22.4297465 C63.4021965,17.9759717 64.1130624,13.5125566 64.8922807,9.05878172 C65.0367974,8.22586798 64.7379994,7.07289942 65.5504175,6.64680235 C66.2202719,6.29589887 67.2143123,6.56775266 68.063836,6.51569555 C69.0246767,6.45978236 69.9855173,6.38073268 70.9404992,6.25926609 C75.3931753,5.69049398 79.1369386,8.977804 79.1662325,13.2002139 C79.1896676,16.3795537 78.2581209,19.4354987 77.8948763,22.5666374 C77.8323826,23.1045609 77.5199141,23.345566 76.9418473,23.299293 C76.3637806,23.2530201 75.7798551,23.2896528 75.1998354,23.2896528" id="Fill-11" fill="#97A3C3"></path>
                <path d="M88.8155386,24.0244268 C84.5609208,24.3373242 81.4463636,21.5925406 80.8351142,18.2437461 C80.2922282,15.2573582 81.1447603,12.5660444 83.1152355,10.2490193 C85.2083627,7.78940798 87.8845896,6.35760527 91.1579912,6.20313693 C92.251806,6.15362785 93.3717598,6.33384091 94.4213394,6.73387431 C94.8214665,6.88636229 95.141166,7.08835935 94.9360758,7.60721455 C94.8677123,7.78544725 94.8717337,7.99140504 94.8335306,8.18350029 C94.6726755,9.02713508 94.7450603,10.0391008 94.2846125,10.6688563 C93.7356945,11.4134729 92.8007241,10.5777596 92.0406837,10.5124076 C88.8577631,10.2410978 85.9684031,12.781904 85.8276548,15.8989959 C85.6949494,18.8022086 87.8101941,20.3508528 91.0554461,19.9567605 C91.6405566,19.8874477 92.2316991,19.7409008 92.7826279,19.5329627 C93.6874379,19.1903598 93.7276517,19.643863 93.602989,20.3053044 C93.4662621,21.0320978 93.2450864,21.7549304 93.2008512,22.4876648 C93.1606374,23.11544 92.8871837,23.3926909 92.3201694,23.5531003 C91.1258202,23.8917424 89.9234282,24.1135431 88.8155386,24.0244268" id="Fill-13" fill="#97A3C3"></path>
            </g>
        </g>
    </g>
</svg>