<svg xmlns="http://www.w3.org/2000/svg" xmlns:xlink="http://www.w3.org/1999/xlink" width="95" height="30" viewBox="0 0 95 30">
    <defs>
        <path id="a" d="M0 .5h22.37v23.03H0z"/>
        <path id="c" d="M.353.5h9.103v23.048H.353z"/>
    </defs>
    <g fill="none" fill-rule="evenodd">
        <g>
            <mask id="b" fill="#fff">
                <use xlink:href="#a"/>
            </mask>
            <path fill="#0E61A3" d="M22.37.5c-.64 1.483-1.693 2.73-2.586 4.065-2.935 4.382-5.91 8.74-8.864 13.109-.187.275-.342.572-.616 1.035 2.703 0 5.232.048 7.757-.025 1.072-.029 1.46.218 1.138 1.252-.18.578-.245 1.186-.362 1.781-.354 1.813-.354 1.813-2.221 1.813H0c4.361-6.11 8.591-12.04 12.964-18.17H5.346c-1.522 0-1.514 0-1.266-1.383.207-1.157.388-2.317.579-3.477h17.71z" mask="url(#b)"/>
        </g>
        <g transform="translate(54.286)">
            <mask id="d" fill="#fff">
                <use xlink:href="#c"/>
            </mask>
            <path fill="#BCBEC0" d="M9.456.5C9.2 3.244 8.592 5.937 8.15 8.654c-.744 4.544-1.544 9.077-2.278 13.62-.144.89-.446 1.359-1.504 1.261-.985-.092-1.992-.065-2.985-.007-.879.053-1.132-.285-.994-1.062.489-2.749.976-5.5 1.436-8.252.73-4.354 1.442-8.71 2.167-13.063.037-.22.131-.435.2-.65h5.265z" mask="url(#d)"/>
        </g>
        <path fill="#0E61A3" d="M49.854 14.235c.024-2.344-1.041-3.562-3.006-3.487-.968.036-1.451.376-1.584 1.398-.265 2.062-.698 4.107-1.068 6.158-.207 1.158-.012 1.394 1.215 1.392.27 0 .548-.036.815-.094 2.157-.454 3.599-2.595 3.628-5.367m-2.67-7.646c4.663-.136 8.118 3.148 7.84 7.711-.243 3.952-2.1 7.04-5.863 8.872-1.442.7-3.007.991-4.593.656-1.102-.234-1.42.138-1.541 1.122-.173 1.43-.53 2.84-.722 4.27-.087.66-.388.794-.998.775a48.603 48.603 0 0 0-3.547.002c-.76.032-.905-.16-.772-.902 1.11-6.134 2.166-12.278 3.24-18.418.105-.598.22-1.195.327-1.793.356-1.936.358-1.897 2.32-1.963 1.414-.046 2.826-.213 4.31-.332M25.933 13.916c2.059 0 4-.01 5.94.008.507.003.682-.169.643-.677a2.65 2.65 0 0 0-2.499-2.45c-1.754-.11-3.136.9-4.084 3.119m8.685 4.484c-.214 1.37-.399 2.54-.582 3.706-.055.35-.32.52-.606.652-2.88 1.345-5.89 1.857-8.966.886-3.366-1.063-5.21-4.246-4.806-7.93.541-4.906 5.463-9.194 10.473-9.128 5.034.066 8.32 3.997 7.419 8.88-.055.303-.155.598-.183.902-.075.82-.5 1.037-1.32 1.026-3.354-.047-6.708.01-10.063-.037-1.062-.016-1.022.368-.58 1.054.704 1.092 1.827 1.379 3.024 1.466 2.118.153 4.084-.411 6.19-1.477"/>
        <path fill="#BCBEC0" d="M75.2 23.4c-2.789 0-2.707.013-2.234-2.667.43-2.43.96-4.845 1.119-7.314.138-2.155-1.572-3.017-3.678-2.633-.523.095-.687.494-.77.994-.597 3.577-1.247 7.146-1.827 10.725-.107.658-.354.917-1.03.902a56.16 56.16 0 0 0-3.483.004c-.725.027-.787-.216-.672-.857.777-4.38 1.488-8.771 2.267-13.152.145-.82-.154-1.953.658-2.372.67-.346 1.664-.078 2.514-.13.96-.054 1.922-.132 2.876-.252 4.453-.559 8.197 2.674 8.226 6.828.024 3.127-.908 6.133-1.271 9.212-.063.53-.375.767-.953.721-.578-.045-1.162-.01-1.742-.01M88.816 24.122c-4.255.308-7.37-2.392-7.98-5.686-.544-2.937.309-5.584 2.28-7.863 2.092-2.42 4.769-3.828 8.042-3.98a8.29 8.29 0 0 1 3.263.522c.4.15.72.349.515.86-.068.175-.064.377-.102.566-.161.83-.089 1.825-.55 2.445-.548.732-1.483-.09-2.243-.154-3.183-.267-6.073 2.232-6.213 5.298-.133 2.856 1.982 4.379 5.227 3.991a7.513 7.513 0 0 0 1.728-.416c.904-.337.945.109.82.76-.137.714-.358 1.425-.402 2.146-.04.617-.314.89-.88 1.048-1.195.333-2.398.551-3.505.463"/>
    </g>
</svg>
