<?xml version="1.0" encoding="UTF-8"?>
<svg width="20px" height="20px" viewBox="0 0 20 20" version="1.1" xmlns="http://www.w3.org/2000/svg" xmlns:xlink="http://www.w3.org/1999/xlink">
    <!-- Generator: Sketch 51.3 (57544) - http://www.bohemiancoding.com/sketch -->
    <title>Icon-2</title>
    <desc>Created with Sketch.</desc>
    <defs></defs>
    <g id="Page-1" stroke="none" stroke-width="1" fill="none" fill-rule="evenodd">
        <g id="landing-page" transform="translate(-769.000000, -7638.000000)" fill="#29DED5" fill-rule="nonzero">
            <g id="great-software" transform="translate(114.000000, 6431.000000)">
                <g id="Group-27" transform="translate(0.000000, 787.000000)">
                    <g id="Group-13" transform="translate(655.000000, 39.000000)">
                        <g id="Group-20">
                            <path d="M10,381 C4.4771525,381 6.76353751e-16,385.477153 0,391 C-6.76353751e-16,396.522847 4.4771525,401 10,401 C15.5228475,401 20,396.522847 20,391 C20,388.347835 18.9464316,385.804296 17.0710678,383.928932 C15.195704,382.053568 12.6521649,381 10,381 Z M14.9428571,389.790476 L9.8952381,394.552381 C9.52491094,394.915374 8.93223191,394.915374 8.56190476,394.552381 L5.99047619,391.914286 C5.74209153,391.671005 5.64236343,391.313692 5.7288585,390.976945 C5.81535357,390.640197 6.07493116,390.375173 6.4098109,390.281706 C6.74469063,390.188239 7.10399631,390.280529 7.35238095,390.52381 L9.25714286,392.485714 L13.6285714,388.361905 C13.8837611,388.12713 14.2448169,388.046332 14.5757324,388.149945 C14.906648,388.253559 15.1571494,388.525843 15.2328753,388.864231 C15.3086011,389.202619 15.1980468,389.555702 14.9428571,389.790476 Z" id="Icon-2"></path>
                        </g>
                    </g>
                </g>
            </g>
        </g>
    </g>
</svg>