<?xml version="1.0" encoding="UTF-8"?>
<svg width="50px" height="50px" viewBox="0 0 50 50" version="1.1" xmlns="http://www.w3.org/2000/svg" xmlns:xlink="http://www.w3.org/1999/xlink">
    <!-- Generator: Sketch 53.2 (72643) - https://sketchapp.com -->
    <title>Iterative delivery</title>
    <desc>Created with Sketch.</desc>
    <defs>
        <linearGradient x1="75.4765625%" y1="91.8652344%" x2="23.3007812%" y2="9.76367188%" id="linearGradient-1">
            <stop stop-color="#F6B684" offset="0%"></stop>
            <stop stop-color="#FFEFCB" offset="100%"></stop>
        </linearGradient>
        <filter x="-8.7%" y="-15.3%" width="117.5%" height="130.6%" filterUnits="objectBoundingBox" id="filter-2">
            <feGaussianBlur stdDeviation="1" in="SourceGraphic"></feGaussianBlur>
        </filter>
    </defs>
    <g id="Page-1" stroke="none" stroke-width="1" fill="none" fill-rule="evenodd">
        <g id="Icons-V2-Copy" transform="translate(-279.000000, -290.000000)">
            <g id="Iterative-delivery" transform="translate(279.000000, 290.000000)">
                <g id="Iterate">
                    <circle id="Oval" fill="url(#linearGradient-1)" cx="25" cy="25" r="25"></circle>
                    <path d="M40.342377,33.66 L41.32,33.66 C41.8722847,33.66 42.32,34.1077153 42.32,34.66 L42.32,35.6 C42.32,36.1522847 41.8722847,36.6 41.32,36.6 L9,36.6 C8.44771525,36.6 8,36.1522847 8,35.6 L8,34.66 C8,34.1077153 8.44771525,33.66 9,33.66 L10.060024,33.66 L10.060024,18 C10.060024,17.4477153 10.5077393,17 11.060024,17 L39.342377,17 C39.8946617,17 40.342377,17.4477153 40.342377,18 L40.342377,33.66 Z" id="Combined-Shape" fill="#F6B684" filter="url(#filter-2)"></path>
                    <g id="Group" transform="translate(8.000000, 15.000000)">
                        <path d="M3,0 L31,0 C31.5522847,-1.01453063e-16 32,0.44771525 32,1 L32,19 C32,19.5522847 31.5522847,20 31,20 L3,20 C2.44771525,20 2,19.5522847 2,19 L2,1 C2,0.44771525 2.44771525,1.01453063e-16 3,0 Z" id="Rectangle" fill="#FFFFFF"></path>
                        <path d="M1,17 L33,17 C33.5522847,17 34,17.4477153 34,18 L34,19 C34,19.5522847 33.5522847,20 33,20 L1,20 C0.44771525,20 6.76353751e-17,19.5522847 0,19 L0,18 C-6.76353751e-17,17.4477153 0.44771525,17 1,17 Z" id="Rectangle" fill="#FFFFFF"></path>
                        <path d="M24,7.45468085 L24,3.63625532 C24,3.28476596 23.7149362,3 23.3634468,3 L19.545617,3 C19.1938298,3 18.9090638,3.28506383 18.9090638,3.63625532 L18.9090638,5.22719149 C15.8004681,5.22719149 13.1887234,7.36382979 12.4458298,10.2436596 L11.7842553,10.1271915 C11.6654043,10.1066383 11.5450638,10.1542979 11.4732766,10.2511064 C11.4017872,10.3479149 11.3904681,10.4771915 11.4449787,10.5847234 L12.1342553,11.9457021 C10.9260851,12.1425957 10,13.1911064 10,14.4546809 C10,15.8582553 11.1420426,17 12.545617,17 C13.8413617,17 14.9113191,16.0259574 15.0688936,14.7728085 L17.3181277,14.7728085 L17.3181277,15.4090638 C17.3181277,15.5297021 17.3863404,15.639617 17.4941702,15.6938298 C17.602,15.7474468 17.7309787,15.7361277 17.8277872,15.6634468 L18.9400426,14.8288085 C19.1217447,16.0548511 20.1785957,16.9997021 21.4540851,16.9997021 C22.8579574,17 24,15.8582553 24,14.4546809 C24,13.1589362 23.0259574,12.0886809 21.7722128,11.9314043 L21.7722128,9.68187234 L22.4090638,9.68187234 C22.5291064,9.68187234 22.639617,9.61365957 22.693234,9.50612766 C22.7474468,9.39859574 22.7361277,9.26931915 22.6634468,9.17280851 L21.8517447,8.09123404 L23.3625532,8.09123404 C23.7149362,8.09093617 24,7.80587234 24,7.45468085 Z M20.2470159,9.55410114 C20.3009556,9.66144582 20.410317,9.72905517 20.5300513,9.72905517 L21.1633987,9.72905517 L21.1633987,11.9681703 C20.0389626,12.1099127 19.1439186,12.990317 18.9782465,14.1076506 L17.871,13.2764707 C17.7752718,13.2047099 17.6469426,13.1934416 17.5396559,13.2465209 C17.4326655,13.3007863 17.3644999,13.4099102 17.3644999,13.5300058 L17.3644999,14.1633987 L15.1265935,14.1633987 C14.9831494,13.0181911 14.0735831,12.1093197 12.9281046,11.9675773 C12.9289937,11.9604605 12.9325502,11.9542333 12.9325502,11.9465235 C12.9325502,11.9450408 12.9325502,11.9444477 12.9325502,11.9432616 L13.8907215,11.0456584 C13.9781513,10.9638155 14.0116413,10.839272 13.9778549,10.7242175 C13.9431793,10.6088664 13.8474511,10.5231686 13.7291986,10.5024113 L13.1414926,10.398625 C13.8267051,7.82917294 16.1662672,5.92810458 18.9474238,5.92810458 L18.9474238,7.51188341 C18.9474238,7.86179149 19.2307556,8.14527634 19.5807712,8.14527634 L21.0842673,8.14527634 L20.2769495,9.22228153 C20.2046346,9.31835798 20.1930761,9.44675645 20.2470159,9.55410114 Z" id="Shape" fill="#F78761" fill-rule="nonzero" opacity="0.7"></path>
                    </g>
                </g>
            </g>
        </g>
    </g>
</svg>